<svg width="115" height="143" viewBox="0 0 115 143" fill="none" xmlns="http://www.w3.org/2000/svg">
<rect x="43.5" y="78.5" width="28" height="9" fill="white" stroke="#322828"/>
<path d="M57.5862 93.2347L57.5 93.2663L57.4138 93.2347L43.1244 87.9847L43.2106 87.5H71.7894L71.8756 87.9847L57.5862 93.2347Z" fill="#472510" stroke="#472510" stroke-width="0.5"/>
<path d="M32.5 47.5C32.5 50.8953 30.1864 53.5 27.5 53.5C24.8136 53.5 22.5 50.8953 22.5 47.5C22.5 44.1047 24.8136 41.5 27.5 41.5C30.1864 41.5 32.5 44.1047 32.5 47.5Z" fill="white" stroke="#25344F"/>
<path d="M92.5 47.5C92.5 50.8953 90.1864 53.5 87.5 53.5C84.8136 53.5 82.5 50.8953 82.5 47.5C82.5 44.1047 84.8136 41.5 87.5 41.5C90.1864 41.5 92.5 44.1047 92.5 47.5Z" fill="white" stroke="#25344F"/>
<rect x="29.5" y="23.5" width="56" height="59" rx="28" fill="white" stroke="#25344F"/>
<path d="M31 22.7012L29 41.3884V53H29.52C31.1334 53 32.4579 51.7239 32.5179 50.1116L32.8992 39.8738L33.4068 38.41C34.3647 35.6476 36.9386 33.7715 39.8616 33.7052L73.7728 32.9358C77.267 32.8565 80.4912 34.8074 82.0422 37.9396L83 39.8738L83.4048 50.5018C83.458 51.8966 84.6042 53 86 53L86.5 41.3884V29.3321V24.5096L87.2308 22.3069C87.9119 20.2542 90.2105 19.2314 92.1913 20.0998C92.7422 20.3413 93.2746 19.7266 92.9568 19.2159L91 16.0703L90.03 15.6025C89.1476 15.177 88.0869 15.4532 87.5242 16.255L83 22.7012L84 14.8647L86.084 8.33204C86.2898 7.68695 85.8085 7.02811 85.1313 7.02811H85.0557C83.8167 7.02811 82.7052 7.78975 82.258 8.94518L79.5 16.0703V11.8506L80.5336 6.03544C80.6952 5.12586 79.6426 4.50224 78.9225 5.08101L76.5 7.02811L73.5 16.0703V10.0422L76.1862 4.10475C76.3333 3.77969 76.0956 3.41124 75.7388 3.41124C74.351 3.41124 73.0662 4.14342 72.3588 5.33739L68.5 11.8506V7.02811L70.4991 2.20787C70.7376 1.63281 70.3149 1 69.6924 1H69.1328C67.1483 1 65.2669 1.88382 64 3.41124L57.3302 13.3446C56.7796 14.1646 55.5 13.7748 55.5 12.7871V11.8506L56.9187 7.28935C56.9719 7.11833 57.0701 6.96474 57.2029 6.84462L60.2058 4.12941C60.6354 3.74097 60.6462 3.06996 60.2293 2.6679L59.0013 1.48348C58.7 1.19292 58.2497 1.12071 57.8727 1.30252L53.5 3.41124L50.5 7.02811L43 16.0703L44.5 10.0422V9.20897C44.5 8.35353 43.4957 7.893 42.8475 8.45122L41 10.0422L35 22.7012V19.664C35 18.651 33.667 18.2801 33.1437 19.1475L31 22.7012Z" fill="white"/>
<path d="M68.5 11.8506V7.02811L70.4991 2.20787C70.7376 1.63281 70.3149 1 69.6924 1H69.1328C67.1483 1 65.2669 1.88382 64 3.41124V3.41124L57.3302 13.3446C56.7796 14.1646 55.5 13.7748 55.5 12.7871V11.8506L56.9187 7.28935C56.9719 7.11833 57.0701 6.96474 57.2029 6.84462L60.2058 4.12941C60.6354 3.74097 60.6462 3.06996 60.2293 2.6679L59.0013 1.48348C58.7 1.19292 58.2497 1.12071 57.8727 1.30252L53.5 3.41124L50.5 7.02811L43 16.0703L44.5 10.0422V9.20897C44.5 8.35353 43.4957 7.893 42.8474 8.45122L41 10.0422L35 22.7012V19.664C35 18.651 33.667 18.2801 33.1437 19.1475L31 22.7012L29 41.3884V53H29.52C31.1334 53 32.4579 51.7239 32.5179 50.1116L32.8992 39.8738L33.4068 38.41C34.3647 35.6476 36.9386 33.7715 39.8616 33.7052L73.7727 32.9358C77.267 32.8565 80.4912 34.8074 82.0422 37.9396L83 39.8738L83.4048 50.5018C83.458 51.8966 84.6042 53 86 53V53L86.5 41.3884V29.3321V24.5096L87.2308 22.3069C87.9119 20.2542 90.2105 19.2314 92.1913 20.0998V20.0998C92.7422 20.3413 93.2746 19.7266 92.9568 19.2159L91 16.0703L90.03 15.6025C89.1476 15.177 88.0869 15.4532 87.5242 16.255L83 22.7012L84 14.8647L86.084 8.33204C86.2898 7.68695 85.8085 7.02811 85.1313 7.02811H85.0557C83.8167 7.02811 82.7052 7.78975 82.258 8.94518L79.5 16.0703V11.8506L80.5336 6.03544C80.6952 5.12586 79.6426 4.50224 78.9225 5.08101L76.5 7.02811L73.5 16.0703V10.0422L76.1862 4.10475C76.3333 3.77969 76.0956 3.41124 75.7388 3.41124V3.41124C74.351 3.41124 73.0662 4.14342 72.3588 5.33739L68.5 11.8506ZM68.5 11.8506V16.0703" stroke="#25344F"/>
<path d="M73 47.2888C73 48.5529 70.7614 47.7466 68 47.7466C65.2386 47.7466 63 48.5529 63 47.2888C63 46.0247 65.2386 45 68 45C70.7614 45 73 46.0247 73 47.2888Z" fill="#25344F"/>
<path d="M52 47.2888C52 48.5529 49.7614 47.7466 47 47.7466C44.2386 47.7466 42 48.5529 42 47.2888C42 46.0247 44.2386 45 47 45C49.7614 45 52 46.0247 52 47.2888Z" fill="#25344F"/>
<path d="M43.5197 66.5H72.4832C72.2269 70.1325 69.1988 72.9997 65.5011 72.9997H50.5018C46.8041 72.9997 43.776 70.1325 43.5197 66.5Z" fill="white" stroke="#25344F"/>
<line x1="45" y1="69.5" x2="63.3017" y2="69.5" stroke="#25344F"/>
<path d="M57.5 93.5L43 88L20.1758 92.7371C17.9272 93.2038 16.1423 94.9131 15.5786 97.1394L8.39178 125.527C7.43198 129.319 10.2975 133 14.2083 133H105.292C109.203 133 112.068 129.319 111.108 125.527L103.951 97.258C103.372 94.9706 101.506 93.235 99.183 92.8228L72 88L57.5 93.5Z" fill="white" stroke="#25344F"/>
<rect x="21.5" y="82.5" width="76" height="50" rx="4.5" fill="white" stroke="#25344F"/>
<path d="M21 123H98V128C98 130.761 95.7614 133 93 133H26C23.2386 133 21 130.761 21 128V123Z" fill="#25344F"/>
<rect y="133" width="115" height="10" rx="3" fill="#202020"/>
</svg>
