<svg width="512" height="512" viewBox="0 0 512 512" fill="none" xmlns="http://www.w3.org/2000/svg">
<g clip-path="url(#clip0)">
<path d="M74.664 85.1792C56.991 85.1792 42.664 99.5062 42.664 117.179V202.512H63.997V117.179C63.997 111.288 68.773 106.512 74.664 106.512H330.664V85.1792H74.664Z" fill="#1D3557"/>
<path d="M74.664 405.179C68.773 405.179 63.997 400.403 63.997 394.512V287.845H42.664V394.512C42.664 412.185 56.991 426.512 74.664 426.512H181.331V405.179H74.664V405.179Z" fill="#1D3557"/>
<path d="M338.206 432.688L79.155 173.637C74.99 169.473 68.238 169.473 64.072 173.637L3.123 234.587C-1.041 238.752 -1.041 245.504 3.123 249.67L262.174 508.72C264.174 510.721 266.887 511.845 269.715 511.845C272.544 511.844 275.256 510.72 277.256 508.72L338.205 447.771C342.37 443.605 342.37 436.853 338.206 432.688ZM269.715 486.096L25.747 242.128L71.614 196.261L315.582 440.23L269.715 486.096Z" fill="#1D3557"/>
<path d="M469.331 405.179H309.331V426.512H426.664V479.845C426.664 485.736 431.44 490.512 437.331 490.512H469.331C492.895 490.512 511.998 471.41 511.998 447.845C511.998 424.281 492.895 405.179 469.331 405.179ZM469.331 469.179H447.998V426.512H469.331C481.113 426.512 490.664 436.063 490.664 447.845C490.664 459.628 481.113 469.179 469.331 469.179Z" fill="#1D3557"/>
<path d="M469.331 85.1792H415.998V106.512H469.331C481.113 106.512 490.664 116.063 490.664 127.845V447.845H511.997V127.845C511.998 104.281 492.895 85.1792 469.331 85.1792Z" fill="#1D3557"/>
<path d="M195.127 301.635L163.124 333.638L178.209 348.722L210.211 316.72L195.127 301.635Z" fill="#1D3557"/>
<path d="M152.461 258.968L120.459 290.971L135.543 306.055L167.546 274.053L152.461 258.968Z" fill="#1D3557"/>
<path d="M237.77 344.302L205.768 376.305L220.852 391.389L252.855 359.387L237.77 344.302Z" fill="#1D3557"/>
<path d="M280.456 386.99L248.453 418.993L263.538 434.077L295.541 402.075L280.456 386.99Z" fill="#1D3557"/>
<path d="M109.765 216.302L77.7628 248.304L92.8474 263.389L124.85 231.386L109.765 216.302Z" fill="#1D3557"/>
<path d="M460.094 23.8241L445.352 9.08308C432.879 -2.82392 413.249 -2.82392 400.776 9.08308L238.579 171.28C234.415 175.445 234.415 182.197 238.579 186.363L282.814 230.598C284.809 232.606 287.525 233.731 290.355 233.723C293.184 233.722 295.896 232.598 297.896 230.598L460.094 68.4001C460.099 68.3951 460.104 68.3901 460.109 68.3851C472.41 56.0761 472.403 36.1251 460.094 23.8241ZM445.022 53.3071L290.355 207.973L261.203 178.821L415.87 24.1651C419.898 20.3161 426.242 20.3161 430.27 24.1651L445.022 38.8961C445.023 38.8981 445.025 38.8991 445.027 38.9011C449.003 42.8801 449.001 49.3301 445.022 53.3071Z" fill="#1D3557"/>
<path d="M286.931 212.944L240.894 228.315L256.265 182.203L235.998 175.451L213.875 241.808C213.513 242.896 213.328 244.035 213.328 245.181C213.329 251.072 218.106 255.847 223.997 255.845C225.126 255.849 226.249 255.676 227.325 255.333L293.682 233.21L286.931 212.944Z" fill="#1D3557"/>
<path d="M386.363 38.5648L371.278 53.6494L415.514 97.8856L430.599 82.801L386.363 38.5648Z" fill="#1D3557"/>
<path d="M383.998 234.512H223.998V255.845H383.998V234.512Z" fill="#1D3557"/>
<path d="M426.664 234.512H405.331V255.845H426.664V234.512Z" fill="#1D3557"/>
<path d="M469.331 234.512H447.998V255.845H469.331V234.512Z" fill="#1D3557"/>
</g>
<defs>
<clipPath id="clip0">
<rect width="511.998" height="511.998" fill="white"/>
</clipPath>
</defs>
</svg>
