<svg width="60" height="58" viewBox="0 0 60 58" fill="none" xmlns="http://www.w3.org/2000/svg">
<path d="M0 0V58H60V0H0ZM58 56H2V2H58V56Z" fill="#656C89"/>
<path d="M42 12V0H0V12H42ZM6.586 2L14.586 10H10.414L2.414 2H6.586ZM13.586 2L21.586 10H17.414L9.414 2H13.586ZM20.586 2L28.586 10H24.414L16.414 2H20.586ZM27.586 2L35.586 10H31.414L23.414 2H27.586ZM38.414 10L30.414 2H34.586L40 7.414V10H38.414ZM40 4.586L37.414 2H40V4.586ZM2 4.414L7.586 10H2V4.414Z" transform="translate(9 9)" fill="#656C89"/>
<path d="M9.70825 0.292751C9.61625 0.199751 9.50525 0.12675 9.38225 0.07575C9.13825 -0.02525 8.86325 -0.02525 8.61825 0.07575C8.49525 0.12675 8.38425 0.200751 8.29225 0.292751L0.29325 8.29175C-0.09775 8.68275 -0.09775 9.31475 0.29325 9.70575C0.48825 9.90075 0.744251 9.99875 1.00025 9.99875C1.25625 9.99875 1.51225 9.90075 1.70725 9.70575L8.00025 3.41275V20.9988C8.00025 21.5518 8.44725 21.9988 9.00025 21.9988C9.55325 21.9988 10.0003 21.5518 10.0003 20.9988V3.41275L16.2932 9.70575C16.4882 9.90075 16.7442 9.99875 17.0002 9.99875C17.2562 9.99875 17.5123 9.90075 17.7073 9.70575C18.0983 9.31475 18.0983 8.68275 17.7073 8.29175L9.70825 0.292751Z" transform="translate(21 27.5012)" fill="#656C89"/>
</svg>
