<svg width="60" height="59" viewBox="0 0 60 59" fill="none" xmlns="http://www.w3.org/2000/svg">
<path d="M0 0V59H60V0H0ZM58 57H2V2H58V57Z" fill="#656C89"/>
<path d="M3 9C4.654 9 6 7.654 6 6H17V36H15C13.346 36 12 37.346 12 39C12 40.654 13.346 42 15 42H25C26.654 42 28 40.654 28 39C28 37.346 26.654 36 25 36H23V6H34C34 7.654 35.346 9 37 9C38.654 9 40 7.654 40 6V2.855C40 1.281 38.719 0 37.145 0H2.855C1.281 0 0 1.281 0 2.855V6C0 7.654 1.346 9 3 9ZM2 2.855C2 2.383 2.384 2 2.855 2H37.144C37.616 2 37.999 2.384 37.999 2.855V6C37.999 6.552 37.551 7 36.999 7C36.448 7 35.999 6.552 35.999 6V4H21V38H25C25.551 38 26 38.448 26 39C26 39.552 25.551 40 25 40H15C14.449 40 14 39.552 14 39C14 38.448 14.449 38 15 38H19V4H4V6C4 6.552 3.551 7 3 7C2.449 7 2 6.552 2 6V2.855Z" transform="translate(10 9)" fill="#656C89"/>
</svg>
