<svg width="60" height="60" viewBox="0 0 60 60" fill="none" xmlns="http://www.w3.org/2000/svg">
<path d="M4 0C1.794 0 0 1.794 0 4C0 6.206 1.794 8 4 8C6.206 8 8 6.206 8 4C8 1.794 6.206 0 4 0ZM4 6C2.897 6 2 5.103 2 4C2 2.897 2.897 2 4 2C5.103 2 6 2.897 6 4C6 5.103 5.103 6 4 6Z" transform="translate(3 3)" fill="#656C89"/>
<path d="M4 0C1.794 0 0 1.794 0 4C0 6.206 1.794 8 4 8C6.206 8 8 6.206 8 4C8 1.794 6.206 0 4 0ZM4 6C2.897 6 2 5.103 2 4C2 2.897 2.897 2 4 2C5.103 2 6 2.897 6 4C6 5.103 5.103 6 4 6Z" transform="translate(12 3)" fill="#656C89"/>
<path d="M4 0C1.794 0 0 1.794 0 4C0 6.206 1.794 8 4 8C6.206 8 8 6.206 8 4C8 1.794 6.206 0 4 0ZM4 6C2.897 6 2 5.103 2 4C2 2.897 2.897 2 4 2C5.103 2 6 2.897 6 4C6 5.103 5.103 6 4 6Z" transform="translate(21 3)" fill="#656C89"/>
<path d="M0 0V14V60H60V14V0H0ZM2 2H58V12H2V2ZM58 58H2V14H58V58Z" fill="#656C89"/>
<path d="M0.0770001 11.3823C0.178 11.6273 0.373 11.8223 0.618 11.9233C0.74 11.9743 0.87 12.0003 1 12.0003H6C6.553 12.0003 7 11.5533 7 11.0003C7 10.4473 6.553 10.0003 6 10.0003H3.414L11.707 1.70725C12.098 1.31625 12.098 0.68425 11.707 0.29325C11.316 -0.09775 10.684 -0.09775 10.293 0.29325L2 8.58625V6.00025C2 5.44725 1.553 5.00025 1 5.00025C0.447 5.00025 0 5.44725 0 6.00025V11.0003C0 11.1303 0.0260001 11.2603 0.0770001 11.3823Z" transform="translate(6 41.9998)" fill="#656C89"/>
<path d="M1.00025 12C1.25625 12 1.51225 11.902 1.70725 11.707L10.0003 3.414V6C10.0003 6.553 10.4473 7 11.0003 7C11.5533 7 12.0003 6.553 12.0003 6V1C12.0003 0.87 11.9743 0.74 11.9233 0.618C11.8223 0.373 11.6273 0.178 11.3823 0.0769997C11.2603 0.0259997 11.1303 0 11.0003 0H6.00025C5.44725 0 5.00025 0.447 5.00025 1C5.00025 1.553 5.44725 2 6.00025 2H8.58625L0.29325 10.293C-0.09775 10.684 -0.09775 11.316 0.29325 11.707C0.48825 11.902 0.744251 12 1.00025 12Z" transform="translate(42 18)" fill="#656C89"/>
</svg>
