<svg width="60" height="60" viewBox="0 0 60 60" fill="none" xmlns="http://www.w3.org/2000/svg">
<path d="M4 0C1.794 0 0 1.794 0 4C0 6.206 1.794 8 4 8C6.206 8 8 6.206 8 4C8 1.794 6.206 0 4 0ZM4 6C2.897 6 2 5.103 2 4C2 2.897 2.897 2 4 2C5.103 2 6 2.897 6 4C6 5.103 5.103 6 4 6Z" transform="translate(3 3)" fill="#656C89"/>
<path d="M4 0C1.794 0 0 1.794 0 4C0 6.206 1.794 8 4 8C6.206 8 8 6.206 8 4C8 1.794 6.206 0 4 0ZM4 6C2.897 6 2 5.103 2 4C2 2.897 2.897 2 4 2C5.103 2 6 2.897 6 4C6 5.103 5.103 6 4 6Z" transform="translate(12 3)" fill="#656C89"/>
<path d="M4 0C1.794 0 0 1.794 0 4C0 6.206 1.794 8 4 8C6.206 8 8 6.206 8 4C8 1.794 6.206 0 4 0ZM4 6C2.897 6 2 5.103 2 4C2 2.897 2.897 2 4 2C5.103 2 6 2.897 6 4C6 5.103 5.103 6 4 6Z" transform="translate(21 3)" fill="#656C89"/>
<path d="M0 0V14V60H60V14V0H0ZM2 2H58V12H2V2ZM58 58H2V14H58V58Z" fill="#656C89"/>
<path d="M1 7H26.09C26.568 9.833 29.032 12 32 12C34.968 12 37.431 9.833 37.91 7H45C45.553 7 46 6.553 46 6C46 5.447 45.553 5 45 5H37.91C37.432 2.167 34.968 0 32 0C29.032 0 26.569 2.167 26.09 5H1C0.447 5 0 5.447 0 6C0 6.553 0.447 7 1 7ZM32 2C34.206 2 36 3.794 36 6C36 8.206 34.206 10 32 10C29.794 10 28 8.206 28 6C28 3.794 29.794 2 32 2Z" transform="translate(7 18)" fill="#656C89"/>
<path d="M45 5H19.91C19.432 2.167 16.968 0 14 0C11.032 0 8.569 2.167 8.09 5H1C0.447 5 0 5.447 0 6C0 6.553 0.447 7 1 7H8.09C8.568 9.833 11.032 12 14 12C16.968 12 19.431 9.833 19.91 7H45C45.553 7 46 6.553 46 6C46 5.447 45.553 5 45 5ZM14 10C11.794 10 10 8.206 10 6C10 3.794 11.794 2 14 2C16.206 2 18 3.794 18 6C18 8.206 16.206 10 14 10Z" transform="translate(7 42)" fill="#656C89"/>
<path d="M1 7H17.09C17.568 9.833 20.032 12 23 12C25.968 12 28.431 9.833 28.91 7H45C45.553 7 46 6.553 46 6C46 5.447 45.553 5 45 5H28.91C28.432 2.167 25.968 0 23 0C20.032 0 17.569 2.167 17.09 5H1C0.447 5 0 5.447 0 6C0 6.553 0.447 7 1 7ZM23 2C25.206 2 27 3.794 27 6C27 8.206 25.206 10 23 10C20.794 10 19 8.206 19 6C19 3.794 20.794 2 23 2Z" transform="translate(7 30)" fill="#656C89"/>
</svg>
