<svg width="60" height="60" viewBox="0 0 60 60" fill="none" xmlns="http://www.w3.org/2000/svg">
<path d="M4 0C1.794 0 0 1.794 0 4C0 6.206 1.794 8 4 8C6.206 8 8 6.206 8 4C8 1.794 6.206 0 4 0ZM4 6C2.897 6 2 5.103 2 4C2 2.897 2.897 2 4 2C5.103 2 6 2.897 6 4C6 5.103 5.103 6 4 6Z" transform="translate(3 3)" fill="#656C89"/>
<path d="M4 0C1.794 0 0 1.794 0 4C0 6.206 1.794 8 4 8C6.206 8 8 6.206 8 4C8 1.794 6.206 0 4 0ZM4 6C2.897 6 2 5.103 2 4C2 2.897 2.897 2 4 2C5.103 2 6 2.897 6 4C6 5.103 5.103 6 4 6Z" transform="translate(12 3)" fill="#656C89"/>
<path d="M4 0C1.794 0 0 1.794 0 4C0 6.206 1.794 8 4 8C6.206 8 8 6.206 8 4C8 1.794 6.206 0 4 0ZM4 6C2.897 6 2 5.103 2 4C2 2.897 2.897 2 4 2C5.103 2 6 2.897 6 4C6 5.103 5.103 6 4 6Z" transform="translate(21 3)" fill="#656C89"/>
<path d="M0 0V14V60H60V14V0H0ZM2 2H58V12H2V2ZM58 58H2V14H58V58Z" fill="#656C89"/>
<path d="M50 38V0H0V38H50ZM2 2H48V36H2V2Z" transform="translate(5 17)" fill="#656C89"/>
<path d="M1 2H11C11.552 2 12 1.552 12 1C12 0.448 11.552 0 11 0H1C0.448 0 0 0.448 0 1C0 1.552 0.448 2 1 2Z" transform="translate(24 25)" fill="#656C89"/>
<path d="M21 0H1C0.448 0 0 0.448 0 1C0 1.552 0.448 2 1 2H21C21.552 2 22 1.552 22 1C22 0.448 21.552 0 21 0Z" transform="translate(19 30)" fill="#656C89"/>
<path d="M21 0H1C0.448 0 0 0.448 0 1C0 1.552 0.448 2 1 2H21C21.552 2 22 1.552 22 1C22 0.448 21.552 0 21 0Z" transform="translate(19 35)" fill="#656C89"/>
<path d="M21 0H1C0.448 0 0 0.448 0 1C0 1.552 0.448 2 1 2H21C21.552 2 22 1.552 22 1C22 0.448 21.552 0 21 0Z" transform="translate(19 40)" fill="#656C89"/>
<path d="M21 0H1C0.448 0 0 0.448 0 1C0 1.552 0.448 2 1 2H21C21.552 2 22 1.552 22 1C22 0.448 21.552 0 21 0Z" transform="translate(19 45)" fill="#656C89"/>
<path d="M0.29325 0.29325C-0.09775 0.68425 -0.09775 1.31625 0.29325 1.70725L3.58625 5.00025L0.29325 8.29325C-0.09775 8.68425 -0.09775 9.31625 0.29325 9.70725C0.48825 9.90225 0.744251 10.0003 1.00025 10.0003C1.25625 10.0003 1.51225 9.90225 1.70725 9.70725L6.41425 5.00025L1.70725 0.29325C1.31625 -0.09775 0.68425 -0.09775 0.29325 0.29325Z" transform="translate(46 30.9997)" fill="#656C89"/>
<path d="M6.121 0.29325C5.73 -0.09775 5.098 -0.09775 4.707 0.29325L0 5.00025L4.707 9.70725C4.902 9.90225 5.158 10.0003 5.414 10.0003C5.67 10.0003 5.926 9.90225 6.121 9.70725C6.512 9.31625 6.512 8.68425 6.121 8.29325L2.828 5.00025L6.121 1.70725C6.512 1.31625 6.512 0.68425 6.121 0.29325Z" transform="translate(7.58594 30.9997)" fill="#656C89"/>
</svg>
