<svg width="59" height="60" viewBox="0 0 59 60" fill="none" xmlns="http://www.w3.org/2000/svg">
<path d="M2 4C3.10457 4 4 3.10457 4 2C4 0.89543 3.10457 0 2 0C0.89543 0 0 0.89543 0 2C0 3.10457 0.89543 4 2 4Z" transform="translate(4 5)" fill="#656C89"/>
<path d="M2 4C3.10457 4 4 3.10457 4 2C4 0.89543 3.10457 0 2 0C0.89543 0 0 0.89543 0 2C0 3.10457 0.89543 4 2 4Z" transform="translate(10 5)" fill="#656C89"/>
<path d="M2 4C3.10457 4 4 3.10457 4 2C4 0.89543 3.10457 0 2 0C0.89543 0 0 0.89543 0 2C0 3.10457 0.89543 4 2 4Z" transform="translate(16 5)" fill="#656C89"/>
<path d="M0 0V14V60H59V14V0H0ZM2 2H57V12H2V2ZM57 58H2V14H57V58Z" fill="#656C89"/>
<path d="M15 0H0V12H15V0ZM13 10H2V2H13V10Z" transform="translate(39 19)" fill="#656C89"/>
<path d="M15 0H0V12H15V0ZM13 10H2V2H13V10Z" transform="translate(5 19)" fill="#656C89"/>
<path d="M15 0H0V12H15V0ZM13 10H2V2H13V10Z" transform="translate(22 19)" fill="#656C89"/>
<path d="M15 0H0V12H15V0ZM13 10H2V2H13V10Z" transform="translate(39 33)" fill="#656C89"/>
<path d="M15 12V0H0V12H15ZM2 2H13V10H2V2Z" transform="translate(5 33)" fill="#656C89"/>
<path d="M15 0H0V12H15V0ZM13 10H2V2H13V10Z" transform="translate(22 33)" fill="#656C89"/>
<path d="M21 0H3C1.346 0 0 1.346 0 3C0 4.654 1.346 6 3 6H21C22.654 6 24 4.654 24 3C24 1.346 22.654 0 21 0ZM21 4H3C2.449 4 2 3.552 2 3C2 2.448 2.449 2 3 2H21C21.551 2 22 2.448 22 3C22 3.552 21.551 4 21 4Z" transform="translate(24 4)" fill="#656C89"/>
</svg>
