<svg width="60" height="60" viewBox="0 0 60 60" fill="none" xmlns="http://www.w3.org/2000/svg">
<path d="M14 2C14.552 2 15 1.553 15 1C15 0.447 14.552 0 14 0H1C0.448 0 0 0.447 0 1C0 1.553 0.448 2 1 2H14Z" transform="translate(22 47)" fill="#656C89"/>
<path d="M24 0H1C0.448 0 0 0.447 0 1C0 1.553 0.448 2 1 2H24C24.552 2 25 1.553 25 1C25 0.447 24.552 0 24 0Z" transform="translate(17 51)" fill="#656C89"/>
<path d="M4 0C1.794 0 0 1.794 0 4C0 6.206 1.794 8 4 8C6.206 8 8 6.206 8 4C8 1.794 6.206 0 4 0ZM4 6C2.897 6 2 5.103 2 4C2 2.897 2.897 2 4 2C5.103 2 6 2.897 6 4C6 5.103 5.103 6 4 6Z" transform="translate(3 3)" fill="#656C89"/>
<path d="M4 0C1.794 0 0 1.794 0 4C0 6.206 1.794 8 4 8C6.206 8 8 6.206 8 4C8 1.794 6.206 0 4 0ZM4 6C2.897 6 2 5.103 2 4C2 2.897 2.897 2 4 2C5.103 2 6 2.897 6 4C6 5.103 5.103 6 4 6Z" transform="translate(12 3)" fill="#656C89"/>
<path d="M4 0C1.794 0 0 1.794 0 4C0 6.206 1.794 8 4 8C6.206 8 8 6.206 8 4C8 1.794 6.206 0 4 0ZM4 6C2.897 6 2 5.103 2 4C2 2.897 2.897 2 4 2C5.103 2 6 2.897 6 4C6 5.103 5.103 6 4 6Z" transform="translate(21 3)" fill="#656C89"/>
<path d="M0 0V14V60H60V14V0H0ZM2 2H58V12H2V2ZM58 58H2V14H58V58Z" fill="#656C89"/>
<path d="M13 26C20.168 26 26 20.168 26 13C26 5.832 20.168 0 13 0C5.832 0 0 5.832 0 13C0 20.168 5.832 26 13 26ZM13 2C19.065 2 24 6.935 24 13C24 19.065 19.065 24 13 24C6.935 24 2 19.065 2 13C2 6.935 6.935 2 13 2Z" transform="translate(17 18)" fill="#656C89"/>
<path d="M0.29325 11.7073C0.48825 11.9023 0.744251 12.0003 1.00025 12.0003C1.25625 12.0003 1.51225 11.9023 1.70725 11.7073L6.00025 7.41425L10.2933 11.7073C10.4883 11.9023 10.7443 12.0003 11.0003 12.0003C11.2563 12.0003 11.5123 11.9023 11.7073 11.7073C12.0983 11.3163 12.0983 10.6843 11.7073 10.2933L7.41425 6.00025L11.7073 1.70725C12.0983 1.31625 12.0983 0.68425 11.7073 0.29325C11.3163 -0.09775 10.6843 -0.09775 10.2933 0.29325L6.00025 4.58625L1.70725 0.29325C1.31625 -0.09775 0.68425 -0.09775 0.29325 0.29325C-0.09775 0.68425 -0.09775 1.31625 0.29325 1.70725L4.58625 6.00025L0.29325 10.2933C-0.09775 10.6843 -0.09775 11.3163 0.29325 11.7073Z" transform="translate(24 24.9998)" fill="#656C89"/>
</svg>
