<svg width="60" height="60" viewBox="0 0 60 60" fill="none" xmlns="http://www.w3.org/2000/svg">
<path d="M4 0C1.794 0 0 1.794 0 4C0 6.206 1.794 8 4 8C6.206 8 8 6.206 8 4C8 1.794 6.206 0 4 0ZM4 6C2.897 6 2 5.103 2 4C2 2.897 2.897 2 4 2C5.103 2 6 2.897 6 4C6 5.103 5.103 6 4 6Z" transform="translate(3 3)" fill="#656C89"/>
<path d="M4 0C1.794 0 0 1.794 0 4C0 6.206 1.794 8 4 8C6.206 8 8 6.206 8 4C8 1.794 6.206 0 4 0ZM4 6C2.897 6 2 5.103 2 4C2 2.897 2.897 2 4 2C5.103 2 6 2.897 6 4C6 5.103 5.103 6 4 6Z" transform="translate(12 3)" fill="#656C89"/>
<path d="M4 0C1.794 0 0 1.794 0 4C0 6.206 1.794 8 4 8C6.206 8 8 6.206 8 4C8 1.794 6.206 0 4 0ZM4 6C2.897 6 2 5.103 2 4C2 2.897 2.897 2 4 2C5.103 2 6 2.897 6 4C6 5.103 5.103 6 4 6Z" transform="translate(21 3)" fill="#656C89"/>
<path d="M0 0V14V60H60V14V0H0ZM2 2H58V12H2V2ZM58 58H2V14H58V58Z" fill="#656C89"/>
<path d="M48 7V0H0V7H48ZM2 2H46V5H2V2Z" transform="translate(6 47)" fill="#656C89"/>
<path d="M48 0H0V13H48V0ZM46 8V11H43C43 10.448 42.552 10 42 10C41.448 10 41 10.448 41 11H37C37 10.448 36.552 10 36 10C35.448 10 35 10.448 35 11H31C31 10.448 30.552 10 30 10C29.448 10 29 10.448 29 11H25C25 10.448 24.552 10 24 10C23.448 10 23 10.448 23 11H19C19 10.448 18.552 10 18 10C17.448 10 17 10.448 17 11H13C13 10.448 12.552 10 12 10C11.448 10 11 10.448 11 11H7C7 10.448 6.552 10 6 10C5.448 10 5 10.448 5 11H2V8V2C2 2.552 2.448 3 3 3C3.552 3 4 2.552 4 2H8C8 2.552 8.448 3 9 3C9.552 3 10 2.552 10 2H14C14 2.552 14.448 3 15 3C15.552 3 16 2.552 16 2H20C20 2.552 20.448 3 21 3C21.552 3 22 2.552 22 2H26C26 2.552 26.448 3 27 3C27.552 3 28 2.552 28 2H32C32 2.552 32.448 3 33 3C33.552 3 34 2.552 34 2H38C38 2.552 38.448 3 39 3C39.552 3 40 2.552 40 2H44C44 2.552 44.448 3 45 3C45.552 3 46 2.552 46 2V8Z" transform="translate(6 18)" fill="#656C89"/>
<path d="M1 2H22C22.552 2 23 1.552 23 1C23 0.448 22.552 0 22 0H1C0.448 0 0 0.448 0 1C0 1.552 0.448 2 1 2Z" transform="translate(6 33)" fill="#656C89"/>
<path d="M1 2H47C47.552 2 48 1.552 48 1C48 0.448 47.552 0 47 0H1C0.448 0 0 0.448 0 1C0 1.552 0.448 2 1 2Z" transform="translate(6 37)" fill="#656C89"/>
<path d="M1 2H47C47.552 2 48 1.552 48 1C48 0.448 47.552 0 47 0H1C0.448 0 0 0.448 0 1C0 1.552 0.448 2 1 2Z" transform="translate(6 41)" fill="#656C89"/>
<path d="M1 2C1.55228 2 2 1.55228 2 1C2 0.447715 1.55228 0 1 0C0.447715 0 0 0.447715 0 1C0 1.55228 0.447715 2 1 2Z" transform="translate(50 25)" fill="#656C89"/>
<path d="M1 2C1.55228 2 2 1.55228 2 1C2 0.447715 1.55228 0 1 0C0.447715 0 0 0.447715 0 1C0 1.55228 0.447715 2 1 2Z" transform="translate(47 22)" fill="#656C89"/>
<path d="M1 2C1.55228 2 2 1.55228 2 1C2 0.447715 1.55228 0 1 0C0.447715 0 0 0.447715 0 1C0 1.55228 0.447715 2 1 2Z" transform="translate(44 25)" fill="#656C89"/>
<path d="M1 2C1.55228 2 2 1.55228 2 1C2 0.447715 1.55228 0 1 0C0.447715 0 0 0.447715 0 1C0 1.55228 0.447715 2 1 2Z" transform="translate(41 22)" fill="#656C89"/>
<path d="M1 2C1.55228 2 2 1.55228 2 1C2 0.447715 1.55228 0 1 0C0.447715 0 0 0.447715 0 1C0 1.55228 0.447715 2 1 2Z" transform="translate(38 25)" fill="#656C89"/>
<path d="M1 2C1.55228 2 2 1.55228 2 1C2 0.447715 1.55228 0 1 0C0.447715 0 0 0.447715 0 1C0 1.55228 0.447715 2 1 2Z" transform="translate(35 22)" fill="#656C89"/>
<path d="M1 2C1.55228 2 2 1.55228 2 1C2 0.447715 1.55228 0 1 0C0.447715 0 0 0.447715 0 1C0 1.55228 0.447715 2 1 2Z" transform="translate(32 25)" fill="#656C89"/>
<path d="M1 2C1.55228 2 2 1.55228 2 1C2 0.447715 1.55228 0 1 0C0.447715 0 0 0.447715 0 1C0 1.55228 0.447715 2 1 2Z" transform="translate(29 22)" fill="#656C89"/>
<path d="M1 2C1.55228 2 2 1.55228 2 1C2 0.447715 1.55228 0 1 0C0.447715 0 0 0.447715 0 1C0 1.55228 0.447715 2 1 2Z" transform="translate(26 25)" fill="#656C89"/>
<path d="M1 2C1.55228 2 2 1.55228 2 1C2 0.447715 1.55228 0 1 0C0.447715 0 0 0.447715 0 1C0 1.55228 0.447715 2 1 2Z" transform="translate(23 22)" fill="#656C89"/>
<path d="M1 2C1.55228 2 2 1.55228 2 1C2 0.447715 1.55228 0 1 0C0.447715 0 0 0.447715 0 1C0 1.55228 0.447715 2 1 2Z" transform="translate(20 25)" fill="#656C89"/>
<path d="M1 2C1.55228 2 2 1.55228 2 1C2 0.447715 1.55228 0 1 0C0.447715 0 0 0.447715 0 1C0 1.55228 0.447715 2 1 2Z" transform="translate(17 22)" fill="#656C89"/>
<path d="M1 2C1.55228 2 2 1.55228 2 1C2 0.447715 1.55228 0 1 0C0.447715 0 0 0.447715 0 1C0 1.55228 0.447715 2 1 2Z" transform="translate(14 25)" fill="#656C89"/>
<path d="M1 2C1.55228 2 2 1.55228 2 1C2 0.447715 1.55228 0 1 0C0.447715 0 0 0.447715 0 1C0 1.55228 0.447715 2 1 2Z" transform="translate(11 22)" fill="#656C89"/>
<path d="M1 2C1.55228 2 2 1.55228 2 1C2 0.447715 1.55228 0 1 0C0.447715 0 0 0.447715 0 1C0 1.55228 0.447715 2 1 2Z" transform="translate(8 25)" fill="#656C89"/>
</svg>
