<svg width="60" height="60" viewBox="0 0 60 60" fill="none" xmlns="http://www.w3.org/2000/svg">
<path d="M8 4C8 1.794 6.206 0 4 0C1.794 0 0 1.794 0 4C0 6.206 1.794 8 4 8C6.206 8 8 6.206 8 4ZM4 6C2.897 6 2 5.103 2 4C2 2.897 2.897 2 4 2C5.103 2 6 2.897 6 4C6 5.103 5.103 6 4 6Z" transform="translate(3 3)" fill="#656C89"/>
<path d="M4 8C6.206 8 8 6.206 8 4C8 1.794 6.206 0 4 0C1.794 0 0 1.794 0 4C0 6.206 1.794 8 4 8ZM4 2C5.103 2 6 2.897 6 4C6 5.103 5.103 6 4 6C2.897 6 2 5.103 2 4C2 2.897 2.897 2 4 2Z" transform="translate(12 3)" fill="#656C89"/>
<path d="M4 8C6.206 8 8 6.206 8 4C8 1.794 6.206 0 4 0C1.794 0 0 1.794 0 4C0 6.206 1.794 8 4 8ZM4 2C5.103 2 6 2.897 6 4C6 5.103 5.103 6 4 6C2.897 6 2 5.103 2 4C2 2.897 2.897 2 4 2Z" transform="translate(21 3)" fill="#656C89"/>
<path d="M0 0V12V14V60H9H60V14V0H0ZM2 2H58V12H9H2V2ZM2 58V14H7V58H2ZM58 58H9V14H58V58Z" fill="#656C89"/>
<path d="M2 0H1C0.447 0 0 0.447 0 1C0 1.553 0.447 2 1 2H2C2.553 2 3 1.553 3 1C3 0.447 2.553 0 2 0Z" transform="translate(3 17)" fill="#656C89"/>
<path d="M2 0H1C0.447 0 0 0.447 0 1C0 1.553 0.447 2 1 2H2C2.553 2 3 1.553 3 1C3 0.447 2.553 0 2 0Z" transform="translate(3 21)" fill="#656C89"/>
<path d="M2 0H1C0.447 0 0 0.447 0 1C0 1.553 0.447 2 1 2H2C2.553 2 3 1.553 3 1C3 0.447 2.553 0 2 0Z" transform="translate(3 25)" fill="#656C89"/>
<path d="M2 0H1C0.447 0 0 0.447 0 1C0 1.553 0.447 2 1 2H2C2.553 2 3 1.553 3 1C3 0.447 2.553 0 2 0Z" transform="translate(3 29)" fill="#656C89"/>
<path d="M2 0H1C0.447 0 0 0.447 0 1C0 1.553 0.447 2 1 2H2C2.553 2 3 1.553 3 1C3 0.447 2.553 0 2 0Z" transform="translate(3 33)" fill="#656C89"/>
<path d="M2 0H1C0.447 0 0 0.447 0 1C0 1.553 0.447 2 1 2H2C2.553 2 3 1.553 3 1C3 0.447 2.553 0 2 0Z" transform="translate(3 37)" fill="#656C89"/>
<path d="M2 0H1C0.447 0 0 0.447 0 1C0 1.553 0.447 2 1 2H2C2.553 2 3 1.553 3 1C3 0.447 2.553 0 2 0Z" transform="translate(3 41)" fill="#656C89"/>
<path d="M2 0H1C0.447 0 0 0.447 0 1C0 1.553 0.447 2 1 2H2C2.553 2 3 1.553 3 1C3 0.447 2.553 0 2 0Z" transform="translate(3 45)" fill="#656C89"/>
<path d="M2 0H1C0.447 0 0 0.447 0 1C0 1.553 0.447 2 1 2H2C2.553 2 3 1.553 3 1C3 0.447 2.553 0 2 0Z" transform="translate(3 49)" fill="#656C89"/>
<path d="M2 0H1C0.447 0 0 0.447 0 1C0 1.553 0.447 2 1 2H2C2.553 2 3 1.553 3 1C3 0.447 2.553 0 2 0Z" transform="translate(3 53)" fill="#656C89"/>
<path d="M1 2H14C14.553 2 15 1.553 15 1C15 0.447 14.553 0 14 0H1C0.447 0 0 0.447 0 1C0 1.553 0.447 2 1 2Z" transform="translate(12 17)" fill="#656C89"/>
<path d="M1 2H11C11.553 2 12 1.553 12 1C12 0.447 11.553 0 11 0H1C0.447 0 0 0.447 0 1C0 1.553 0.447 2 1 2Z" transform="translate(29 17)" fill="#656C89"/>
<path d="M1 2H3C3.553 2 4 1.553 4 1C4 0.447 3.553 0 3 0H1C0.447 0 0 0.447 0 1C0 1.553 0.447 2 1 2Z" transform="translate(43 17)" fill="#656C89"/>
<path d="M0 1C0 1.553 0.447 2 1 2H16C16.553 2 17 1.553 17 1C17 0.447 16.553 0 16 0H1C0.447 0 0 0.447 0 1Z" transform="translate(35 21)" fill="#656C89"/>
<path d="M15 0H1C0.447 0 0 0.447 0 1C0 1.553 0.447 2 1 2H15C15.553 2 16 1.553 16 1C16 0.447 15.553 0 15 0Z" transform="translate(17 21)" fill="#656C89"/>
<path d="M1 2H2C2.553 2 3 1.553 3 1C3 0.447 2.553 0 2 0H1C0.447 0 0 0.447 0 1C0 1.553 0.447 2 1 2Z" transform="translate(12 21)" fill="#656C89"/>
<path d="M1 2H10C10.553 2 11 1.553 11 1C11 0.447 10.553 0 10 0H1C0.447 0 0 0.447 0 1C0 1.553 0.447 2 1 2Z" transform="translate(12 25)" fill="#656C89"/>
<path d="M1 2H3C3.553 2 4 1.553 4 1C4 0.447 3.553 0 3 0H1C0.447 0 0 0.447 0 1C0 1.553 0.447 2 1 2Z" transform="translate(25 25)" fill="#656C89"/>
<path d="M15 0H1C0.447 0 0 0.447 0 1C0 1.553 0.447 2 1 2H15C15.553 2 16 1.553 16 1C16 0.447 15.553 0 15 0Z" transform="translate(31 25)" fill="#656C89"/>
<path d="M1 2H14C14.553 2 15 1.553 15 1C15 0.447 14.553 0 14 0H1C0.447 0 0 0.447 0 1C0 1.553 0.447 2 1 2Z" transform="translate(12 29)" fill="#656C89"/>
<path d="M12 1C12 0.447 11.553 0 11 0H1C0.447 0 0 0.447 0 1C0 1.553 0.447 2 1 2H11C11.553 2 12 1.553 12 1Z" transform="translate(29 29)" fill="#656C89"/>
<path d="M1 2H9C9.553 2 10 1.553 10 1C10 0.447 9.553 0 9 0H1C0.447 0 0 0.447 0 1C0 1.553 0.447 2 1 2Z" transform="translate(35 33)" fill="#656C89"/>
<path d="M0 1C0 1.553 0.447 2 1 2H15C15.553 2 16 1.553 16 1C16 0.447 15.553 0 15 0H1C0.447 0 0 0.447 0 1Z" transform="translate(17 33)" fill="#656C89"/>
<path d="M1 2H2C2.553 2 3 1.553 3 1C3 0.447 2.553 0 2 0H1C0.447 0 0 0.447 0 1C0 1.553 0.447 2 1 2Z" transform="translate(12 33)" fill="#656C89"/>
<path d="M1 2H10C10.553 2 11 1.553 11 1C11 0.447 10.553 0 10 0H1C0.447 0 0 0.447 0 1C0 1.553 0.447 2 1 2Z" transform="translate(12 37)" fill="#656C89"/>
<path d="M1 2H3C3.553 2 4 1.553 4 1C4 0.447 3.553 0 3 0H1C0.447 0 0 0.447 0 1C0 1.553 0.447 2 1 2Z" transform="translate(25 37)" fill="#656C89"/>
<path d="M0 1C0 1.553 0.447 2 1 2H16C16.553 2 17 1.553 17 1C17 0.447 16.553 0 16 0H1C0.447 0 0 0.447 0 1Z" transform="translate(31 37)" fill="#656C89"/>
<path d="M1 2H14C14.553 2 15 1.553 15 1C15 0.447 14.553 0 14 0H1C0.447 0 0 0.447 0 1C0 1.553 0.447 2 1 2Z" transform="translate(12 41)" fill="#656C89"/>
<path d="M11 0H1C0.447 0 0 0.447 0 1C0 1.553 0.447 2 1 2H11C11.553 2 12 1.553 12 1C12 0.447 11.553 0 11 0Z" transform="translate(29 41)" fill="#656C89"/>
<path d="M8 0H1C0.447 0 0 0.447 0 1C0 1.553 0.447 2 1 2H8C8.553 2 9 1.553 9 1C9 0.447 8.553 0 8 0Z" transform="translate(43 41)" fill="#656C89"/>
<path d="M5 0H1C0.447 0 0 0.447 0 1C0 1.553 0.447 2 1 2H5C5.553 2 6 1.553 6 1C6 0.447 5.553 0 5 0Z" transform="translate(35 45)" fill="#656C89"/>
<path d="M0 1C0 1.553 0.447 2 1 2H15C15.553 2 16 1.553 16 1C16 0.447 15.553 0 15 0H1C0.447 0 0 0.447 0 1Z" transform="translate(17 45)" fill="#656C89"/>
<path d="M1 2H2C2.553 2 3 1.553 3 1C3 0.447 2.553 0 2 0H1C0.447 0 0 0.447 0 1C0 1.553 0.447 2 1 2Z" transform="translate(12 45)" fill="#656C89"/>
<path d="M10 0H1C0.447 0 0 0.447 0 1C0 1.553 0.447 2 1 2H10C10.553 2 11 1.553 11 1C11 0.447 10.553 0 10 0Z" transform="translate(12 49)" fill="#656C89"/>
<path d="M3 0H1C0.447 0 0 0.447 0 1C0 1.553 0.447 2 1 2H3C3.553 2 4 1.553 4 1C4 0.447 3.553 0 3 0Z" transform="translate(25 49)" fill="#656C89"/>
<path d="M8 0H1C0.447 0 0 0.447 0 1C0 1.553 0.447 2 1 2H8C8.553 2 9 1.553 9 1C9 0.447 8.553 0 8 0Z" transform="translate(31 49)" fill="#656C89"/>
<path d="M2 0H1C0.447 0 0 0.447 0 1C0 1.553 0.447 2 1 2H2C2.553 2 3 1.553 3 1C3 0.447 2.553 0 2 0Z" transform="translate(42 49)" fill="#656C89"/>
</svg>
