<svg width="60" height="60" viewBox="0 0 60 60" fill="none" xmlns="http://www.w3.org/2000/svg">
<path d="M4 0C1.794 0 0 1.794 0 4C0 6.206 1.794 8 4 8C6.206 8 8 6.206 8 4C8 1.794 6.206 0 4 0ZM4 6C2.897 6 2 5.103 2 4C2 2.897 2.897 2 4 2C5.103 2 6 2.897 6 4C6 5.103 5.103 6 4 6Z" transform="translate(3 3)" fill="#656C89"/>
<path d="M4 0C1.794 0 0 1.794 0 4C0 6.206 1.794 8 4 8C6.206 8 8 6.206 8 4C8 1.794 6.206 0 4 0ZM4 6C2.897 6 2 5.103 2 4C2 2.897 2.897 2 4 2C5.103 2 6 2.897 6 4C6 5.103 5.103 6 4 6Z" transform="translate(12 3)" fill="#656C89"/>
<path d="M4 0C1.794 0 0 1.794 0 4C0 6.206 1.794 8 4 8C6.206 8 8 6.206 8 4C8 1.794 6.206 0 4 0ZM4 6C2.897 6 2 5.103 2 4C2 2.897 2.897 2 4 2C5.103 2 6 2.897 6 4C6 5.103 5.103 6 4 6Z" transform="translate(21 3)" fill="#656C89"/>
<path d="M0 0V14V60H60V14V0H0ZM2 2H58V12H2V2ZM58 58H2V14H58V58Z" fill="#656C89"/>
<path d="M16 7V0H0V7V22H16V7ZM2 2H14V5H2V2ZM2 20V7H14V20H2Z" transform="translate(4 21)" fill="#656C89"/>
<path d="M16 7V0H0V7V22H16V7ZM2 2H14V5H2V2ZM2 20V7H14V20H2Z" transform="translate(40 21)" fill="#656C89"/>
<path d="M16 7V0H0V7V30H16V7ZM14 2.586L11.586 5H9.414L12.414 2H14V2.586ZM4.414 5L7.414 2H9.586L6.586 5H4.414ZM4.586 2L2 4.586V2H4.586ZM2 28V7H14V28H2Z" transform="translate(22 17)" fill="#656C89"/>
<path d="M0 6H10V0H0V6ZM2 2H8V4H2V2Z" transform="translate(7 34)" fill="#656C89"/>
<path d="M0 6H10V0H0V6ZM2 2H8V4H2V2Z" transform="translate(25 38)" fill="#656C89"/>
<path d="M0 6H10V0H0V6ZM2 2H8V4H2V2Z" transform="translate(43 34)" fill="#656C89"/>
<path d="M1 2H15C15.553 2 16 1.553 16 1C16 0.447 15.553 0 15 0H1C0.447 0 0 0.447 0 1C0 1.553 0.447 2 1 2Z" transform="translate(4 49)" fill="#656C89"/>
<path d="M15 0H1C0.447 0 0 0.447 0 1C0 1.553 0.447 2 1 2H15C15.553 2 16 1.553 16 1C16 0.447 15.553 0 15 0Z" transform="translate(4 52)" fill="#656C89"/>
<path d="M1 2H15C15.553 2 16 1.553 16 1C16 0.447 15.553 0 15 0H1C0.447 0 0 0.447 0 1C0 1.553 0.447 2 1 2Z" transform="translate(22 49)" fill="#656C89"/>
<path d="M1 2H15C15.553 2 16 1.553 16 1C16 0.447 15.553 0 15 0H1C0.447 0 0 0.447 0 1C0 1.553 0.447 2 1 2Z" transform="translate(22 52)" fill="#656C89"/>
<path d="M1 2H15C15.553 2 16 1.553 16 1C16 0.447 15.553 0 15 0H1C0.447 0 0 0.447 0 1C0 1.553 0.447 2 1 2Z" transform="translate(40 49)" fill="#656C89"/>
<path d="M1 2H15C15.553 2 16 1.553 16 1C16 0.447 15.553 0 15 0H1C0.447 0 0 0.447 0 1C0 1.553 0.447 2 1 2Z" transform="translate(40 52)" fill="#656C89"/>
</svg>
