<svg width="60" height="60" viewBox="0 0 60 60" fill="none" xmlns="http://www.w3.org/2000/svg">
<path d="M4 0C1.794 0 0 1.794 0 4C0 6.206 1.794 8 4 8C6.206 8 8 6.206 8 4C8 1.794 6.206 0 4 0ZM4 6C2.897 6 2 5.103 2 4C2 2.897 2.897 2 4 2C5.103 2 6 2.897 6 4C6 5.103 5.103 6 4 6Z" transform="translate(3 3)" fill="#656C89"/>
<path d="M4 0C1.794 0 0 1.794 0 4C0 6.206 1.794 8 4 8C6.206 8 8 6.206 8 4C8 1.794 6.206 0 4 0ZM4 6C2.897 6 2 5.103 2 4C2 2.897 2.897 2 4 2C5.103 2 6 2.897 6 4C6 5.103 5.103 6 4 6Z" transform="translate(12 3)" fill="#656C89"/>
<path d="M4 0C1.794 0 0 1.794 0 4C0 6.206 1.794 8 4 8C6.206 8 8 6.206 8 4C8 1.794 6.206 0 4 0ZM4 6C2.897 6 2 5.103 2 4C2 2.897 2.897 2 4 2C5.103 2 6 2.897 6 4C6 5.103 5.103 6 4 6Z" transform="translate(21 3)" fill="#656C89"/>
<path d="M24 0H1C0.448 0 0 0.448 0 1C0 1.552 0.448 2 1 2H24C24.552 2 25 1.552 25 1C25 0.448 24.552 0 24 0Z" transform="translate(17.5 26)" fill="#656C89"/>
<path d="M1 2H16C16.552 2 17 1.552 17 1C17 0.448 16.552 0 16 0H1C0.448 0 0 0.448 0 1C0 1.552 0.448 2 1 2Z" transform="translate(21.5 22)" fill="#656C89"/>
<path d="M50 26V0H0V26H50ZM2 2H48V24H2V2Z" transform="translate(5 17)" fill="#656C89"/>
<path d="M0 0V14V60H60V14V0H0ZM2 2H58V12H2V2ZM58 58H2V14H58V58Z" fill="#656C89"/>
<path d="M0 6H16V0H0V6ZM2 2H14V4H2V2Z" transform="translate(22 33)" fill="#656C89"/>
<path d="M3.5 0C1.57 0 0 1.57 0 3.5C0 5.43 1.57 7 3.5 7C5.43 7 7 5.43 7 3.5C7 1.57 5.43 0 3.5 0ZM3.5 5C2.673 5 2 4.327 2 3.5C2 2.673 2.673 2 3.5 2C4.327 2 5 2.673 5 3.5C5 4.327 4.327 5 3.5 5Z" transform="translate(17 46)" fill="#656C89"/>
<path d="M3.5 0C1.57 0 0 1.57 0 3.5C0 5.43 1.57 7 3.5 7C5.43 7 7 5.43 7 3.5C7 1.57 5.43 0 3.5 0ZM3.5 5C2.673 5 2 4.327 2 3.5C2 2.673 2.673 2 3.5 2C4.327 2 5 2.673 5 3.5C5 4.327 4.327 5 3.5 5Z" transform="translate(26 46)" fill="#656C89"/>
<path d="M3.5 0C1.57 0 0 1.57 0 3.5C0 5.43 1.57 7 3.5 7C5.43 7 7 5.43 7 3.5C7 1.57 5.43 0 3.5 0ZM3.5 5C2.673 5 2 4.327 2 3.5C2 2.673 2.673 2 3.5 2C4.327 2 5 2.673 5 3.5C5 4.327 4.327 5 3.5 5Z" transform="translate(35 46)" fill="#656C89"/>
</svg>
