<svg width="60" height="60" viewBox="0 0 60 60" fill="none" xmlns="http://www.w3.org/2000/svg">
<path d="M1 2C1.55228 2 2 1.55228 2 1C2 0.447715 1.55228 0 1 0C0.447715 0 0 0.447715 0 1C0 1.55228 0.447715 2 1 2Z" transform="translate(20 30)" fill="#656C89"/>
<path d="M1 2C1.55228 2 2 1.55228 2 1C2 0.447715 1.55228 0 1 0C0.447715 0 0 0.447715 0 1C0 1.55228 0.447715 2 1 2Z" transform="translate(20 34)" fill="#656C89"/>
<path d="M1 2C1.55228 2 2 1.55228 2 1C2 0.447715 1.55228 0 1 0C0.447715 0 0 0.447715 0 1C0 1.55228 0.447715 2 1 2Z" transform="translate(20 38)" fill="#656C89"/>
<path d="M1 2C1.55228 2 2 1.55228 2 1C2 0.447715 1.55228 0 1 0C0.447715 0 0 0.447715 0 1C0 1.55228 0.447715 2 1 2Z" transform="translate(20 42)" fill="#656C89"/>
<path d="M1 2C1.55228 2 2 1.55228 2 1C2 0.447715 1.55228 0 1 0C0.447715 0 0 0.447715 0 1C0 1.55228 0.447715 2 1 2Z" transform="translate(20 46)" fill="#656C89"/>
<path d="M4 0C1.794 0 0 1.794 0 4C0 6.206 1.794 8 4 8C6.206 8 8 6.206 8 4C8 1.794 6.206 0 4 0ZM4 6C2.897 6 2 5.103 2 4C2 2.897 2.897 2 4 2C5.103 2 6 2.897 6 4C6 5.103 5.103 6 4 6Z" transform="translate(3 3)" fill="#656C89"/>
<path d="M4 0C1.794 0 0 1.794 0 4C0 6.206 1.794 8 4 8C6.206 8 8 6.206 8 4C8 1.794 6.206 0 4 0ZM4 6C2.897 6 2 5.103 2 4C2 2.897 2.897 2 4 2C5.103 2 6 2.897 6 4C6 5.103 5.103 6 4 6Z" transform="translate(12 3)" fill="#656C89"/>
<path d="M4 0C1.794 0 0 1.794 0 4C0 6.206 1.794 8 4 8C6.206 8 8 6.206 8 4C8 1.794 6.206 0 4 0ZM4 6C2.897 6 2 5.103 2 4C2 2.897 2.897 2 4 2C5.103 2 6 2.897 6 4C6 5.103 5.103 6 4 6Z" transform="translate(21 3)" fill="#656C89"/>
<path d="M0 0V14V60H60V14V0H0ZM2 2H58V12H2V2ZM58 58H2V14H58V58Z" fill="#656C89"/>
<path d="M1 27H4H10H12H16H18H22H24H28H30H34H36H42H45C45.552 27 46 26.553 46 26C46 25.447 45.552 25 45 25H42V3H36V0H28V7H22V13H18V3H10V9H4V25H1C0.448 25 0 25.447 0 26C0 26.553 0.448 27 1 27ZM40 5V25H36V5H40ZM30 2H34V3V25H30V7V2ZM24 9H28V25H24V13V9ZM22 15V25H18V15H22ZM15 5C15 5.552 15.448 6 16 6V8C15.448 8 15 8.448 15 9C15 9.552 15.448 10 16 10V12C15.448 12 15 12.448 15 13C15 13.552 15.448 14 16 14V16C15.448 16 15 16.448 15 17C15 17.552 15.448 18 16 18V20C15.448 20 15 20.448 15 21C15 21.552 15.448 22 16 22V24C15.448 24 15 24.448 15 25H13C13 24.448 12.552 24 12 24V22C12.552 22 13 21.552 13 21C13 20.448 12.552 20 12 20V18C12.552 18 13 17.552 13 17C13 16.448 12.552 16 12 16V14C12.552 14 13 13.552 13 13C13 12.448 12.552 12 12 12V10C12.552 10 13 9.552 13 9C13 8.448 12.552 8 12 8V6C12.552 6 13 5.552 13 5H15ZM6 11H10V25H6V11Z" transform="translate(7 24)" fill="#656C89"/>
</svg>
