<svg width="60" height="60" viewBox="0 0 60 60" fill="none" xmlns="http://www.w3.org/2000/svg">
<path d="M1 0C0.448 0 0 0.447 0 1C0 1.553 0.448 2 1 2H14C14.552 2 15 1.553 15 1C15 0.447 14.552 0 14 0H1Z" transform="translate(22 47)" fill="#656C89"/>
<path d="M1 2H25C25.552 2 26 1.553 26 1C26 0.447 25.552 0 25 0H1C0.448 0 0 0.447 0 1C0 1.553 0.448 2 1 2Z" transform="translate(16 51)" fill="#656C89"/>
<path d="M4 0C1.794 0 0 1.794 0 4C0 6.206 1.794 8 4 8C6.206 8 8 6.206 8 4C8 1.794 6.206 0 4 0ZM4 6C2.897 6 2 5.103 2 4C2 2.897 2.897 2 4 2C5.103 2 6 2.897 6 4C6 5.103 5.103 6 4 6Z" transform="translate(3 3)" fill="#656C89"/>
<path d="M4 0C1.794 0 0 1.794 0 4C0 6.206 1.794 8 4 8C6.206 8 8 6.206 8 4C8 1.794 6.206 0 4 0ZM4 6C2.897 6 2 5.103 2 4C2 2.897 2.897 2 4 2C5.103 2 6 2.897 6 4C6 5.103 5.103 6 4 6Z" transform="translate(12 3)" fill="#656C89"/>
<path d="M4 0C1.794 0 0 1.794 0 4C0 6.206 1.794 8 4 8C6.206 8 8 6.206 8 4C8 1.794 6.206 0 4 0ZM4 6C2.897 6 2 5.103 2 4C2 2.897 2.897 2 4 2C5.103 2 6 2.897 6 4C6 5.103 5.103 6 4 6Z" transform="translate(21 3)" fill="#656C89"/>
<path d="M0 0V14V60H60V14V0H0ZM2 2H58V12H2V2ZM58 58H2V14H58V58Z" fill="#656C89"/>
<path d="M13 26C20.168 26 26 20.168 26 13C26 5.832 20.168 0 13 0C5.832 0 0 5.832 0 13C0 20.168 5.832 26 13 26ZM13 2C19.065 2 24 6.935 24 13C24 19.065 19.065 24 13 24C6.935 24 2 19.065 2 13C2 6.935 6.935 2 13 2Z" transform="translate(17 18)" fill="#656C89"/>
<path d="M1.00025 6.99875C1.25625 6.99875 1.51225 6.90075 1.70725 6.70575L5.00025 3.41275V10.9988C5.00025 11.5518 5.44825 11.9988 6.00025 11.9988C6.55225 11.9988 7.00025 11.5518 7.00025 10.9988V3.41275L10.2933 6.70575C10.4883 6.90075 10.7443 6.99875 11.0003 6.99875C11.2563 6.99875 11.5123 6.90075 11.7073 6.70575C12.0983 6.31475 12.0983 5.68275 11.7073 5.29175L6.70825 0.292751C6.61625 0.199751 6.50525 0.12675 6.38225 0.07575C6.13825 -0.02525 5.86225 -0.02525 5.61825 0.07575C5.49525 0.12675 5.38525 0.199751 5.29225 0.292751L0.29325 5.29175C-0.09775 5.68275 -0.09775 6.31475 0.29325 6.70575C0.48825 6.90075 0.744251 6.99875 1.00025 6.99875Z" transform="translate(24 25.0013)" fill="#656C89"/>
</svg>
