<svg width="60" height="60" viewBox="0 0 60 60" fill="none" xmlns="http://www.w3.org/2000/svg">
<path d="M4 0C1.794 0 0 1.794 0 4C0 6.206 1.794 8 4 8C6.206 8 8 6.206 8 4C8 1.794 6.206 0 4 0ZM4 6C2.897 6 2 5.103 2 4C2 2.897 2.897 2 4 2C5.103 2 6 2.897 6 4C6 5.103 5.103 6 4 6Z" transform="translate(3 3)" fill="#656C89"/>
<path d="M4 0C1.794 0 0 1.794 0 4C0 6.206 1.794 8 4 8C6.206 8 8 6.206 8 4C8 1.794 6.206 0 4 0ZM4 6C2.897 6 2 5.103 2 4C2 2.897 2.897 2 4 2C5.103 2 6 2.897 6 4C6 5.103 5.103 6 4 6Z" transform="translate(12 3)" fill="#656C89"/>
<path d="M4 0C1.794 0 0 1.794 0 4C0 6.206 1.794 8 4 8C6.206 8 8 6.206 8 4C8 1.794 6.206 0 4 0ZM4 6C2.897 6 2 5.103 2 4C2 2.897 2.897 2 4 2C5.103 2 6 2.897 6 4C6 5.103 5.103 6 4 6Z" transform="translate(21 3)" fill="#656C89"/>
<path d="M0 0V14V60H60V14V0H0ZM2 2H58V12H2V2ZM58 58H2V14H58V58Z" fill="#656C89"/>
<path d="M14 0H0V16H14V0ZM12 14H2V2H12V14Z" transform="translate(5 18)" fill="#656C89"/>
<path d="M14 0H0V16H14V0ZM12 14H10C10 13.448 9.552 13 9 13C8.448 13 8 13.448 8 14H4C4 13.448 3.552 13 3 13C2.448 13 2 13.448 2 14V8V2C2 2.552 2.448 3 3 3C3.552 3 4 2.552 4 2H8C8 2.552 8.448 3 9 3C9.552 3 10 2.552 10 2H12V4C11.448 4 11 4.448 11 5C11 5.552 11.448 6 12 6V10C11.448 10 11 10.448 11 11C11 11.552 11.448 12 12 12V14Z" transform="translate(23 18)" fill="#656C89"/>
<path d="M14 0H0V16H14V0ZM12 14H2V2H12V14Z" transform="translate(41 18)" fill="#656C89"/>
<path d="M14 16V0H0V16H14ZM2 2H12V14H2V2Z" transform="translate(5 38)" fill="#656C89"/>
<path d="M14 0H0V16H14V0ZM12 14H2V2H12V14Z" transform="translate(23 38)" fill="#656C89"/>
<path d="M14 0H0V16H14V0ZM12 14H2V2H12V14Z" transform="translate(41 38)" fill="#656C89"/>
<path d="M1 2C1.55228 2 2 1.55228 2 1C2 0.447715 1.55228 0 1 0C0.447715 0 0 0.447715 0 1C0 1.55228 0.447715 2 1 2Z" transform="translate(31 25)" fill="#656C89"/>
<path d="M1 2C1.55228 2 2 1.55228 2 1C2 0.447715 1.55228 0 1 0C0.447715 0 0 0.447715 0 1C0 1.55228 0.447715 2 1 2Z" transform="translate(28 22)" fill="#656C89"/>
<path d="M1 2C1.55228 2 2 1.55228 2 1C2 0.447715 1.55228 0 1 0C0.447715 0 0 0.447715 0 1C0 1.55228 0.447715 2 1 2Z" transform="translate(25 25)" fill="#656C89"/>
<path d="M1 2C1.55228 2 2 1.55228 2 1C2 0.447715 1.55228 0 1 0C0.447715 0 0 0.447715 0 1C0 1.55228 0.447715 2 1 2Z" transform="translate(28 28)" fill="#656C89"/>
</svg>
