<svg width="60" height="60" viewBox="0 0 60 60" fill="none" xmlns="http://www.w3.org/2000/svg">
<path d="M4 0C1.794 0 0 1.794 0 4C0 6.206 1.794 8 4 8C6.206 8 8 6.206 8 4C8 1.794 6.206 0 4 0ZM4 6C2.897 6 2 5.103 2 4C2 2.897 2.897 2 4 2C5.103 2 6 2.897 6 4C6 5.103 5.103 6 4 6Z" transform="translate(3 3)" fill="#656C89"/>
<path d="M4 0C1.794 0 0 1.794 0 4C0 6.206 1.794 8 4 8C6.206 8 8 6.206 8 4C8 1.794 6.206 0 4 0ZM4 6C2.897 6 2 5.103 2 4C2 2.897 2.897 2 4 2C5.103 2 6 2.897 6 4C6 5.103 5.103 6 4 6Z" transform="translate(12 3)" fill="#656C89"/>
<path d="M4 0C1.794 0 0 1.794 0 4C0 6.206 1.794 8 4 8C6.206 8 8 6.206 8 4C8 1.794 6.206 0 4 0ZM4 6C2.897 6 2 5.103 2 4C2 2.897 2.897 2 4 2C5.103 2 6 2.897 6 4C6 5.103 5.103 6 4 6Z" transform="translate(21 3)" fill="#656C89"/>
<path d="M0 0V12V14V38V60H60V38V14V12V0H0ZM58 58H2V38H58V58ZM58 36H2V14H58V36ZM2 12V2H58V12H2Z" fill="#656C89"/>
<path d="M0.29325 9.70725C0.48825 9.90225 0.744251 10.0003 1.00025 10.0003C1.25625 10.0003 1.51225 9.90225 1.70725 9.70725L5.41425 6.00025C5.96625 5.44925 5.96625 4.55125 5.41425 4.00025L1.70725 0.29325C1.31625 -0.09775 0.68425 -0.09775 0.29325 0.29325C-0.09775 0.68425 -0.09775 1.31625 0.29325 1.70725L3.58625 5.00025L0.29325 8.29325C-0.09775 8.68425 -0.09775 9.31625 0.29325 9.70725Z" transform="translate(49 19.9997)" fill="#656C89"/>
<path d="M4.12125 9.70725C4.31625 9.90225 4.57225 10.0003 4.82825 10.0003C5.08425 10.0003 5.34025 9.90225 5.53525 9.70725C5.92625 9.31625 5.92625 8.68425 5.53525 8.29325L2.24225 5.00025L5.53525 1.70725C5.92625 1.31625 5.92625 0.68425 5.53525 0.29325C5.14425 -0.09775 4.51225 -0.09775 4.12125 0.29325L0.41325 4.00025C-0.13775 4.55025 -0.13775 5.44725 0.41325 6.00025L4.12125 9.70725Z" transform="translate(5.00098 19.9997)" fill="#656C89"/>
<path d="M7 14C10.86 14 14 10.86 14 7C14 3.14 10.86 0 7 0C3.14 0 0 3.14 0 7C0 10.86 3.14 14 7 14ZM7 2C9.757 2 12 4.243 12 7C12 9.757 9.757 12 7 12C4.243 12 2 9.757 2 7C2 4.243 4.243 2 7 2Z" transform="translate(5 41)" fill="#656C89"/>
<path d="M7 14C10.86 14 14 10.86 14 7C14 3.14 10.86 0 7 0C3.14 0 0 3.14 0 7C0 10.86 3.14 14 7 14ZM7 2C9.757 2 12 4.243 12 7C12 9.757 9.757 12 7 12C4.243 12 2 9.757 2 7C2 4.243 4.243 2 7 2Z" transform="translate(23 41)" fill="#656C89"/>
<path d="M7 14C10.859 14 14 10.86 14 7C14 3.14 10.859 0 7 0C3.14 0 0 3.14 0 7C0 10.86 3.14 14 7 14ZM7 2C9.757 2 12 4.243 12 7C12 9.757 9.757 12 7 12C4.243 12 2 9.757 2 7C2 4.243 4.243 2 7 2Z" transform="translate(41 41)" fill="#656C89"/>
</svg>
