<svg width="60" height="60" viewBox="0 0 60 60" fill="none" xmlns="http://www.w3.org/2000/svg">
<path d="M8 4C8 1.794 6.206 0 4 0C1.794 0 0 1.794 0 4C0 6.206 1.794 8 4 8C6.206 8 8 6.206 8 4ZM2 4C2 2.897 2.897 2 4 2C5.103 2 6 2.897 6 4C6 5.103 5.103 6 4 6C2.897 6 2 5.103 2 4Z" transform="translate(3 3)" fill="#656C89"/>
<path d="M4 8C6.206 8 8 6.206 8 4C8 1.794 6.206 0 4 0C1.794 0 0 1.794 0 4C0 6.206 1.794 8 4 8ZM4 2C5.103 2 6 2.897 6 4C6 5.103 5.103 6 4 6C2.897 6 2 5.103 2 4C2 2.897 2.897 2 4 2Z" transform="translate(12 3)" fill="#656C89"/>
<path d="M4 8C6.206 8 8 6.206 8 4C8 1.794 6.206 0 4 0C1.794 0 0 1.794 0 4C0 6.206 1.794 8 4 8ZM4 2C5.103 2 6 2.897 6 4C6 5.103 5.103 6 4 6C2.897 6 2 5.103 2 4C2 2.897 2.897 2 4 2Z" transform="translate(21 3)" fill="#656C89"/>
<path d="M0 0V12V14V17.647V19.47V23.117V24.94V28.587V30.41V34.056V35.879V39.526V41.349V45V47V60H60V14V0H0ZM2 2H58V12H47H45H41.692H40.038H36.73H35.076H31.768H30.115H26.807H25.153H21.845H20.192H16.884H15.23H11.922H10.27H6.962H5.308H2V2ZM58 58H2V47C2.553 47 3 46.553 3 46C3 45.447 2.553 45 2 45V41.353V39.53V35.883V34.06V30.414V28.591V24.944V23.121V19.474V17.651V14H5.308H6.962H10.27H11.923H15.231H16.885H20.193H21.846H25.154H26.808H30.116H31.769H35.077H36.731H40.039H41.693H45C45 14.553 45.447 15 46 15C46.553 15 47 14.553 47 14H58V58Z" fill="#656C89"/>
<path d="M2 0C1.447 0 1 0.447 1 1C0.447 1 0 1.447 0 2C0 2.553 0.447 3 1 3H3V1C3 0.447 2.553 0 2 0Z" transform="translate(44 44)" fill="#656C89"/>
<path d="M2.653 0H1C0.447 0 0 0.447 0 1C0 1.553 0.447 2 1 2H2.653C3.206 2 3.653 1.553 3.653 1C3.653 0.447 3.206 0 2.653 0Z" transform="translate(34.0771 45)" fill="#656C89"/>
<path d="M2.654 0H1C0.447 0 0 0.447 0 1C0 1.553 0.447 2 1 2H2.654C3.207 2 3.654 1.553 3.654 1C3.654 0.447 3.207 0 2.654 0Z" transform="translate(39.0381 45)" fill="#656C89"/>
<path d="M2.654 0H1C0.447 0 0 0.447 0 1C0 1.553 0.447 2 1 2H2.654C3.207 2 3.654 1.553 3.654 1C3.654 0.447 3.207 0 2.654 0Z" transform="translate(9.26953 45)" fill="#656C89"/>
<path d="M2.654 0H1C0.447 0 0 0.447 0 1C0 1.553 0.447 2 1 2H2.654C3.207 2 3.654 1.553 3.654 1C3.654 0.447 3.207 0 2.654 0Z" transform="translate(4.30762 45)" fill="#656C89"/>
<path d="M2.653 0H1C0.447 0 0 0.447 0 1C0 1.553 0.447 2 1 2H2.653C3.206 2 3.653 1.553 3.653 1C3.653 0.447 3.205 0 2.653 0Z" transform="translate(24.1553 45)" fill="#656C89"/>
<path d="M2.654 0H1C0.447 0 0 0.447 0 1C0 1.553 0.447 2 1 2H2.654C3.207 2 3.654 1.553 3.654 1C3.654 0.447 3.206 0 2.654 0Z" transform="translate(29.1162 45)" fill="#656C89"/>
<path d="M2.653 0H1C0.447 0 0 0.447 0 1C0 1.553 0.447 2 1 2H2.653C3.206 2 3.653 1.553 3.653 1C3.653 0.447 3.205 0 2.653 0Z" transform="translate(14.2324 45)" fill="#656C89"/>
<path d="M2.654 0H1C0.447 0 0 0.447 0 1C0 1.553 0.447 2 1 2H2.654C3.207 2 3.654 1.553 3.654 1C3.654 0.447 3.206 0 2.654 0Z" transform="translate(19.1934 45)" fill="#656C89"/>
<path d="M1 0C0.447 0 0 0.447 0 1V2.823C0 3.376 0.447 3.823 1 3.823C1.553 3.823 2 3.376 2 2.823V1C2 0.447 1.553 0 1 0Z" transform="translate(45 22.118)" fill="#656C89"/>
<path d="M1 0C0.447 0 0 0.447 0 1V2.823C0 3.376 0.447 3.823 1 3.823C1.553 3.823 2 3.376 2 2.823V1C2 0.448 1.553 0 1 0Z" transform="translate(45 16.647)" fill="#656C89"/>
<path d="M1 0C0.447 0 0 0.447 0 1V2.823C0 3.376 0.447 3.823 1 3.823C1.553 3.823 2 3.376 2 2.823V1C2 0.448 1.553 0 1 0Z" transform="translate(45 38.529)" fill="#656C89"/>
<path d="M1 0C0.447 0 0 0.447 0 1V2.823C0 3.376 0.447 3.823 1 3.823C1.553 3.823 2 3.376 2 2.823V1C2 0.447 1.553 0 1 0Z" transform="translate(45 27.588)" fill="#656C89"/>
<path d="M1 0C0.447 0 0 0.447 0 1V2.823C0 3.376 0.447 3.823 1 3.823C1.553 3.823 2 3.376 2 2.823V1C2 0.447 1.553 0 1 0Z" transform="translate(45 33.059)" fill="#656C89"/>
</svg>
