<svg width="60" height="60" viewBox="0 0 60 60" fill="none" xmlns="http://www.w3.org/2000/svg">
<path d="M2 0C1.447 0 1 0.447 1 1C0.447 1 0 1.447 0 2C0 2.553 0.447 3 1 3H3V1C3 0.447 2.553 0 2 0Z" transform="translate(57 57)" fill="#656C89"/>
<path d="M3.154 0H1C0.447 0 0 0.447 0 1C0 1.553 0.447 2 1 2H3.154C3.707 2 4.154 1.553 4.154 1C4.154 0.447 3.707 0 3.154 0Z" transform="translate(50.5381 58)" fill="#656C89"/>
<path d="M3.153 0H1C0.448 0 0 0.447 0 1C0 1.553 0.448 2 1 2H3.153C3.706 2 4.153 1.553 4.153 1C4.153 0.447 3.706 0 3.153 0Z" transform="translate(44.0771 58)" fill="#656C89"/>
<path d="M3.154 0H1C0.448 0 0 0.447 0 1C0 1.553 0.448 2 1 2H3.154C3.706 2 4.154 1.553 4.154 1C4.154 0.447 3.707 0 3.154 0Z" transform="translate(18.2305 58)" fill="#656C89"/>
<path d="M3.154 0H1C0.448 0 0 0.447 0 1C0 1.553 0.448 2 1 2H3.154C3.706 2 4.154 1.553 4.154 1C4.154 0.447 3.706 0 3.154 0Z" transform="translate(11.7686 58)" fill="#656C89"/>
<path d="M3.154 0H1C0.448 0 0 0.447 0 1C0 1.553 0.448 2 1 2H3.154C3.706 2 4.154 1.553 4.154 1C4.154 0.447 3.706 0 3.154 0Z" transform="translate(24.6924 58)" fill="#656C89"/>
<path d="M3.153 0H1C0.448 0 0 0.447 0 1C0 1.553 0.448 2 1 2H3.154C3.706 2 4.154 1.553 4.154 1C4.154 0.447 3.706 0 3.153 0Z" transform="translate(5.30762 58)" fill="#656C89"/>
<path d="M3.154 0H1C0.448 0 0 0.447 0 1C0 1.553 0.448 2 1 2H3.154C3.706 2 4.154 1.553 4.154 1C4.154 0.447 3.706 0 3.154 0Z" transform="translate(31.1543 58)" fill="#656C89"/>
<path d="M3.154 0H1C0.448 0 0 0.447 0 1C0 1.553 0.448 2 1 2H3.154C3.706 2 4.154 1.553 4.154 1C4.154 0.447 3.706 0 3.154 0Z" transform="translate(37.6152 58)" fill="#656C89"/>
<path d="M2 1C2 0.447 1.552 0 1 0C0.448 0 0 0.447 0 1V3H2C2.552 3 3 2.553 3 2C3 1.447 2.552 1 2 1Z" transform="translate(0 57)" fill="#656C89"/>
<path d="M1 4.154C1.552 4.154 2 3.707 2 3.154V1C2 0.447 1.552 0 1 0C0.448 0 0 0.447 0 1V3.154C0 3.707 0.448 4.154 1 4.154Z" transform="translate(0 50.538)" fill="#656C89"/>
<path d="M47.231 0H47H45.077H40.77H38.616H34.308H32.154H27.846H25.692H21.384H19.23H14.922H12.768H8.461H6.308H2H0V2V6.308V8.462V12.77V14V14.924V19.232V21.385V25.693V27.847V32.155V34.308V38.616V40.77V45.078V47V47.23C0 47.783 0.448 48.23 1 48.23C1.552 48.23 2 47.783 2 47.23V47H47V14V2H47.231C47.784 2 48.231 1.553 48.231 1C48.231 0.447 47.784 0 47.231 0ZM6.308 2H8.462H12.77H14.924H19.232H21.386H25.694H27.848H32.156H34.31H38.618H40.772H45V12H2V8.462V6.308V2H6.308ZM45 45H2V40.77V38.616V34.308V32.155V27.847V25.693V21.385V19.232V14.924V14H45V45Z" fill="#656C89"/>
<path d="M3.153 0H1C0.447 0 0 0.447 0 1C0 1.553 0.447 2 1 2H3.153C3.706 2 4.153 1.553 4.153 1C4.153 0.447 3.706 0 3.153 0Z" transform="translate(50.5391)" fill="#656C89"/>
<path d="M1 0C0.447 0 0 0.447 0 1C0 1.553 0.447 2 1 2C1 2.553 1.447 3 2 3C2.553 3 3 2.553 3 2V0H1Z" transform="translate(57)" fill="#656C89"/>
<path d="M1 0C0.447 0 0 0.447 0 1V3.153C0 3.706 0.447 4.153 1 4.153C1.553 4.153 2 3.706 2 3.153V1C2 0.447 1.553 0 1 0Z" transform="translate(58 11.77)" fill="#656C89"/>
<path d="M1 0C0.447 0 0 0.447 0 1V3.154C0 3.707 0.447 4.154 1 4.154C1.553 4.154 2 3.707 2 3.154V1C2 0.447 1.553 0 1 0Z" transform="translate(58 5.30801)" fill="#656C89"/>
<path d="M1 0C0.447 0 0 0.447 0 1V3.153C0 3.706 0.447 4.153 1 4.153C1.553 4.153 2 3.706 2 3.153V1C2 0.448 1.553 0 1 0Z" transform="translate(58 37.615)" fill="#656C89"/>
<path d="M1 0C0.447 0 0 0.447 0 1V3.154C0 3.707 0.447 4.154 1 4.154C1.553 4.154 2 3.707 2 3.154V1C2 0.448 1.553 0 1 0Z" transform="translate(58 31.153)" fill="#656C89"/>
<path d="M1 0C0.447 0 0 0.447 0 1V3.154C0 3.707 0.447 4.154 1 4.154C1.553 4.154 2 3.707 2 3.154V1C2 0.447 1.553 0 1 0Z" transform="translate(58 44.076)" fill="#656C89"/>
<path d="M1 0C0.447 0 0 0.447 0 1V3.154C0 3.707 0.447 4.154 1 4.154C1.553 4.154 2 3.707 2 3.154V1C2 0.447 1.553 0 1 0Z" transform="translate(58 50.538)" fill="#656C89"/>
<path d="M1 0C0.447 0 0 0.447 0 1V3.153C0 3.706 0.447 4.153 1 4.153C1.553 4.153 2 3.706 2 3.153V1C2 0.448 1.553 0 1 0Z" transform="translate(58 24.692)" fill="#656C89"/>
<path d="M1 0C0.447 0 0 0.447 0 1V3.154C0 3.707 0.447 4.154 1 4.154C1.553 4.154 2 3.707 2 3.154V1C2 0.448 1.553 0 1 0Z" transform="translate(58 18.23)" fill="#656C89"/>
<path d="M4 8C6.206 8 8 6.206 8 4C8 1.794 6.206 0 4 0C1.794 0 0 1.794 0 4C0 6.206 1.794 8 4 8ZM4 2C5.103 2 6 2.897 6 4C6 5.103 5.103 6 4 6C2.897 6 2 5.103 2 4C2 2.897 2.897 2 4 2Z" transform="translate(3 3)" fill="#656C89"/>
<path d="M4 8C6.206 8 8 6.206 8 4C8 1.794 6.206 0 4 0C1.794 0 0 1.794 0 4C0 6.206 1.794 8 4 8ZM4 2C5.103 2 6 2.897 6 4C6 5.103 5.103 6 4 6C2.897 6 2 5.103 2 4C2 2.897 2.897 2 4 2Z" transform="translate(12 3)" fill="#656C89"/>
<path d="M4 8C6.206 8 8 6.206 8 4C8 1.794 6.206 0 4 0C1.794 0 0 1.794 0 4C0 6.206 1.794 8 4 8ZM4 2C5.103 2 6 2.897 6 4C6 5.103 5.103 6 4 6C2.897 6 2 5.103 2 4C2 2.897 2.897 2 4 2Z" transform="translate(21 3)" fill="#656C89"/>
</svg>
