<svg width="60" height="60" viewBox="0 0 60 60" fill="none" xmlns="http://www.w3.org/2000/svg">
<path d="M50 0H0V10H50V0ZM48 8C48 7.448 47.552 7 47 7C46.448 7 46 7.448 46 8H42C42 7.448 41.552 7 41 7C40.448 7 40 7.448 40 8H36C36 7.448 35.552 7 35 7C34.448 7 34 7.448 34 8H30C30 7.448 29.552 7 29 7C28.448 7 28 7.448 28 8H24C24 7.448 23.552 7 23 7C22.448 7 22 7.448 22 8H18C18 7.448 17.552 7 17 7C16.448 7 16 7.448 16 8H12C12 7.448 11.552 7 11 7C10.448 7 10 7.448 10 8H6C6 7.448 5.552 7 5 7C4.448 7 4 7.448 4 8H2V6C2.552 6 3 5.552 3 5C3 4.448 2.552 4 2 4V2H4C4 2.552 4.448 3 5 3C5.552 3 6 2.552 6 2H10C10 2.552 10.448 3 11 3C11.552 3 12 2.552 12 2H16C16 2.552 16.448 3 17 3C17.552 3 18 2.552 18 2H22C22 2.552 22.448 3 23 3C23.552 3 24 2.552 24 2H28C28 2.552 28.448 3 29 3C29.552 3 30 2.552 30 2H34C34 2.552 34.448 3 35 3C35.552 3 36 2.552 36 2H40C40 2.552 40.448 3 41 3C41.552 3 42 2.552 42 2H46C46 2.552 46.448 3 47 3C47.552 3 48 2.552 48 2V8Z" transform="translate(5 17)" fill="#656C89"/>
<path d="M50 25V0H0V25H50ZM2 2H48V23H2V2Z" transform="translate(5 30)" fill="#656C89"/>
<path d="M4 0C1.794 0 0 1.794 0 4C0 6.206 1.794 8 4 8C6.206 8 8 6.206 8 4C8 1.794 6.206 0 4 0ZM4 6C2.897 6 2 5.103 2 4C2 2.897 2.897 2 4 2C5.103 2 6 2.897 6 4C6 5.103 5.103 6 4 6Z" transform="translate(3 3)" fill="#656C89"/>
<path d="M4 0C1.794 0 0 1.794 0 4C0 6.206 1.794 8 4 8C6.206 8 8 6.206 8 4C8 1.794 6.206 0 4 0ZM4 6C2.897 6 2 5.103 2 4C2 2.897 2.897 2 4 2C5.103 2 6 2.897 6 4C6 5.103 5.103 6 4 6Z" transform="translate(12 3)" fill="#656C89"/>
<path d="M4 0C1.794 0 0 1.794 0 4C0 6.206 1.794 8 4 8C6.206 8 8 6.206 8 4C8 1.794 6.206 0 4 0ZM4 6C2.897 6 2 5.103 2 4C2 2.897 2.897 2 4 2C5.103 2 6 2.897 6 4C6 5.103 5.103 6 4 6Z" transform="translate(21 3)" fill="#656C89"/>
<path d="M0 0V14V60H60V14V0H0ZM2 2H58V12H2V2ZM58 58H2V14H58V58Z" fill="#656C89"/>
<path d="M1 2C1.55228 2 2 1.55228 2 1C2 0.447715 1.55228 0 1 0C0.447715 0 0 0.447715 0 1C0 1.55228 0.447715 2 1 2Z" transform="translate(48 21)" fill="#656C89"/>
<path d="M1 2C1.55228 2 2 1.55228 2 1C2 0.447715 1.55228 0 1 0C0.447715 0 0 0.447715 0 1C0 1.55228 0.447715 2 1 2Z" transform="translate(42 21)" fill="#656C89"/>
<path d="M1 2C1.55228 2 2 1.55228 2 1C2 0.447715 1.55228 0 1 0C0.447715 0 0 0.447715 0 1C0 1.55228 0.447715 2 1 2Z" transform="translate(36 21)" fill="#656C89"/>
<path d="M1 2C1.55228 2 2 1.55228 2 1C2 0.447715 1.55228 0 1 0C0.447715 0 0 0.447715 0 1C0 1.55228 0.447715 2 1 2Z" transform="translate(30 21)" fill="#656C89"/>
<path d="M1 2C1.55228 2 2 1.55228 2 1C2 0.447715 1.55228 0 1 0C0.447715 0 0 0.447715 0 1C0 1.55228 0.447715 2 1 2Z" transform="translate(24 21)" fill="#656C89"/>
<path d="M1 2C1.55228 2 2 1.55228 2 1C2 0.447715 1.55228 0 1 0C0.447715 0 0 0.447715 0 1C0 1.55228 0.447715 2 1 2Z" transform="translate(18 21)" fill="#656C89"/>
<path d="M1 2C1.55228 2 2 1.55228 2 1C2 0.447715 1.55228 0 1 0C0.447715 0 0 0.447715 0 1C0 1.55228 0.447715 2 1 2Z" transform="translate(12 21)" fill="#656C89"/>
</svg>
