<svg width="60" height="59" viewBox="0 0 60 59" fill="none" xmlns="http://www.w3.org/2000/svg">
<path d="M10 37V0H0V37H10ZM2 2H5H8V5C7.448 5 7 5.448 7 6C7 6.552 7.448 7 8 7V11C7.448 11 7 11.448 7 12C7 12.552 7.448 13 8 13V17C7.448 17 7 17.448 7 18C7 18.552 7.448 19 8 19V23C7.448 23 7 23.448 7 24C7 24.552 7.448 25 8 25V29C7.448 29 7 29.448 7 30C7 30.552 7.448 31 8 31V35H2V31C2.552 31 3 30.552 3 30C3 29.448 2.552 29 2 29V25C2.552 25 3 24.552 3 24C3 23.448 2.552 23 2 23V19C2.552 19 3 18.552 3 18C3 17.448 2.552 17 2 17V13C2.552 13 3 12.552 3 12C3 11.448 2.552 11 2 11V7C2.552 7 3 6.552 3 6C3 5.448 2.552 5 2 5V2Z" transform="translate(45 17)" fill="#656C89"/>
<path d="M37 0H0V10H37V0ZM35 8H2V2H35V8Z" transform="translate(5 17)" fill="#656C89"/>
<path d="M4 0C1.794 0 0 1.794 0 4C0 6.206 1.794 8 4 8C6.206 8 8 6.206 8 4C8 1.794 6.206 0 4 0ZM4 6C2.897 6 2 5.103 2 4C2 2.897 2.897 2 4 2C5.103 2 6 2.897 6 4C6 5.103 5.103 6 4 6Z" transform="translate(3 3)" fill="#656C89"/>
<path d="M4 0C1.794 0 0 1.794 0 4C0 6.206 1.794 8 4 8C6.206 8 8 6.206 8 4C8 1.794 6.206 0 4 0ZM4 6C2.897 6 2 5.103 2 4C2 2.897 2.897 2 4 2C5.103 2 6 2.897 6 4C6 5.103 5.103 6 4 6Z" transform="translate(12 3)" fill="#656C89"/>
<path d="M4 0C1.794 0 0 1.794 0 4C0 6.206 1.794 8 4 8C6.206 8 8 6.206 8 4C8 1.794 6.206 0 4 0ZM4 6C2.897 6 2 5.103 2 4C2 2.897 2.897 2 4 2C5.103 2 6 2.897 6 4C6 5.103 5.103 6 4 6Z" transform="translate(21 3)" fill="#656C89"/>
<path d="M0 0V14V59H60V14V0H0ZM2 2H58V12H2V2ZM58 57H2V14H58V57Z" fill="#656C89"/>
<path d="M37 0H0V10H37V0ZM35 8H2V2H35V8Z" transform="translate(5 30)" fill="#656C89"/>
<path d="M37 10V0H0V10H37ZM2 2H35V8H2V2Z" transform="translate(5 44)" fill="#656C89"/>
<path d="M1 2C1.55228 2 2 1.55228 2 1C2 0.447715 1.55228 0 1 0C0.447715 0 0 0.447715 0 1C0 1.55228 0.447715 2 1 2Z" transform="translate(49 19)" fill="#656C89"/>
<path d="M1 2C1.55228 2 2 1.55228 2 1C2 0.447715 1.55228 0 1 0C0.447715 0 0 0.447715 0 1C0 1.55228 0.447715 2 1 2Z" transform="translate(49 25)" fill="#656C89"/>
<path d="M1 2C1.55228 2 2 1.55228 2 1C2 0.447715 1.55228 0 1 0C0.447715 0 0 0.447715 0 1C0 1.55228 0.447715 2 1 2Z" transform="translate(49 31)" fill="#656C89"/>
<path d="M1 2C1.55228 2 2 1.55228 2 1C2 0.447715 1.55228 0 1 0C0.447715 0 0 0.447715 0 1C0 1.55228 0.447715 2 1 2Z" transform="translate(49 37)" fill="#656C89"/>
<path d="M1 2C1.55228 2 2 1.55228 2 1C2 0.447715 1.55228 0 1 0C0.447715 0 0 0.447715 0 1C0 1.55228 0.447715 2 1 2Z" transform="translate(49 43)" fill="#656C89"/>
<path d="M1 2C1.55228 2 2 1.55228 2 1C2 0.447715 1.55228 0 1 0C0.447715 0 0 0.447715 0 1C0 1.55228 0.447715 2 1 2Z" transform="translate(49 49)" fill="#656C89"/>
</svg>
