<svg width="60" height="60" viewBox="0 0 60 60" fill="none" xmlns="http://www.w3.org/2000/svg">
<path d="M33 0H1C0.448 0 0 0.448 0 1C0 1.552 0.448 2 1 2H33C33.552 2 34 1.552 34 1C34 0.448 33.552 0 33 0Z" transform="translate(12 35)" fill="#656C89"/>
<path d="M33 0H1C0.448 0 0 0.448 0 1C0 1.552 0.448 2 1 2H33C33.552 2 34 1.552 34 1C34 0.448 33.552 0 33 0Z" transform="translate(12 41)" fill="#656C89"/>
<path d="M1 2H10C10.552 2 11 1.552 11 1C11 0.448 10.552 0 10 0H1C0.448 0 0 0.448 0 1C0 1.552 0.448 2 1 2Z" transform="translate(12 29)" fill="#656C89"/>
<path d="M1 2H4C4.552 2 5 1.552 5 1C5 0.448 4.552 0 4 0H1C0.448 0 0 0.448 0 1C0 1.552 0.448 2 1 2Z" transform="translate(29 29)" fill="#656C89"/>
<path d="M1 1.9875C1.26 1.9875 1.52 1.8775 1.71 1.6975C1.89 1.5075 2 1.2475 2 0.987499C2 0.727499 1.89 0.4675 1.71 0.2775C1.33 -0.0925 0.670001 -0.0925 0.290001 0.2775C0.110001 0.4675 0 0.727499 0 0.987499C0 1.2475 0.110001 1.5075 0.290001 1.6975C0.480001 1.8775 0.74 1.9875 1 1.9875Z" transform="translate(25 29.0125)" fill="#656C89"/>
<path d="M50 38V0H0V38H50ZM2 2H48V36H2V2Z" transform="translate(5 17)" fill="#656C89"/>
<path d="M4 0C1.794 0 0 1.794 0 4C0 6.206 1.794 8 4 8C6.206 8 8 6.206 8 4C8 1.794 6.206 0 4 0ZM4 6C2.897 6 2 5.103 2 4C2 2.897 2.897 2 4 2C5.103 2 6 2.897 6 4C6 5.103 5.103 6 4 6Z" transform="translate(3 3)" fill="#656C89"/>
<path d="M4 0C1.794 0 0 1.794 0 4C0 6.206 1.794 8 4 8C6.206 8 8 6.206 8 4C8 1.794 6.206 0 4 0ZM4 6C2.897 6 2 5.103 2 4C2 2.897 2.897 2 4 2C5.103 2 6 2.897 6 4C6 5.103 5.103 6 4 6Z" transform="translate(12 3)" fill="#656C89"/>
<path d="M4 0C1.794 0 0 1.794 0 4C0 6.206 1.794 8 4 8C6.206 8 8 6.206 8 4C8 1.794 6.206 0 4 0ZM4 6C2.897 6 2 5.103 2 4C2 2.897 2.897 2 4 2C5.103 2 6 2.897 6 4C6 5.103 5.103 6 4 6Z" transform="translate(21 3)" fill="#656C89"/>
<path d="M0 0V14V60H60V14V0H0ZM2 2H58V12H2V2ZM58 58H2V14H58V58Z" fill="#656C89"/>
</svg>
