<svg width="60" height="60" viewBox="0 0 60 60" fill="none" xmlns="http://www.w3.org/2000/svg">
<path d="M4 0C1.794 0 0 1.794 0 4C0 6.206 1.794 8 4 8C6.206 8 8 6.206 8 4C8 1.794 6.206 0 4 0ZM4 6C2.897 6 2 5.103 2 4C2 2.897 2.897 2 4 2C5.103 2 6 2.897 6 4C6 5.103 5.103 6 4 6Z" transform="translate(3 3)" fill="#656C89"/>
<path d="M4 0C1.794 0 0 1.794 0 4C0 6.206 1.794 8 4 8C6.206 8 8 6.206 8 4C8 1.794 6.206 0 4 0ZM4 6C2.897 6 2 5.103 2 4C2 2.897 2.897 2 4 2C5.103 2 6 2.897 6 4C6 5.103 5.103 6 4 6Z" transform="translate(12 3)" fill="#656C89"/>
<path d="M4 0C1.794 0 0 1.794 0 4C0 6.206 1.794 8 4 8C6.206 8 8 6.206 8 4C8 1.794 6.206 0 4 0ZM4 6C2.897 6 2 5.103 2 4C2 2.897 2.897 2 4 2C5.103 2 6 2.897 6 4C6 5.103 5.103 6 4 6Z" transform="translate(21 3)" fill="#656C89"/>
<path d="M0 0V14V60H60V14V0H0ZM2 2H58V12H2V2ZM58 58H2V14H58V58Z" fill="#656C89"/>
<path d="M5 10C7.757 10 10 7.757 10 5C10 2.243 7.757 0 5 0C2.243 0 0 2.243 0 5C0 7.757 2.243 10 5 10ZM5 2C6.654 2 8 3.346 8 5C8 6.654 6.654 8 5 8C3.346 8 2 6.654 2 5C2 3.346 3.346 2 5 2Z" transform="translate(39 18)" fill="#656C89"/>
<path d="M10 18C10 15.243 7.757 13 5 13C2.243 13 0 15.243 0 18C0 20.414 1.721 22.434 4 22.899V26.101C1.721 26.566 0 28.585 0 31C0 33.757 2.243 36 5 36C7.414 36 9.434 34.279 9.899 32H14.101C14.566 34.279 16.585 36 19 36C21.415 36 23.434 34.279 23.899 32H28.101C28.566 34.279 30.585 36 33 36C35.757 36 38 33.757 38 31C38 28.586 36.279 26.566 34 26.101V22.899C36.279 22.434 38 20.415 38 18C38 15.243 35.757 13 33 13C30.586 13 28.566 14.721 28.101 17H23.899C23.5 15.044 21.956 13.5 20 13.101V9.899C22.279 9.434 24 7.415 24 5C24 2.243 21.757 0 19 0C16.586 0 14.566 1.721 14.101 4H9.899C9.434 1.721 7.415 0 5 0C2.243 0 0 2.243 0 5C0 7.757 2.243 10 5 10C7.414 10 9.434 8.279 9.899 6H14.101C14.5 7.956 16.044 9.5 18 9.899V13.101C15.721 13.566 14 15.585 14 18C14 20.757 16.243 23 19 23C21.414 23 23.434 21.279 23.899 19H28.101C28.5 20.956 30.044 22.5 32 22.899V26.101C30.044 26.5 28.5 28.044 28.101 30H23.899C23.434 27.721 21.415 26 19 26C16.585 26 14.566 27.721 14.101 30H9.899C9.5 28.044 7.956 26.5 6 26.101V22.899C8.279 22.434 10 20.414 10 18ZM2 18C2 16.346 3.346 15 5 15C6.654 15 8 16.346 8 18C8 19.654 6.654 21 5 21C3.346 21 2 19.654 2 18ZM5 8C3.346 8 2 6.654 2 5C2 3.346 3.346 2 5 2C6.654 2 8 3.346 8 5C8 6.654 6.654 8 5 8ZM16 5C16 3.346 17.346 2 19 2C20.654 2 22 3.346 22 5C22 6.654 20.654 8 19 8C17.346 8 16 6.654 16 5ZM19 21C17.346 21 16 19.654 16 18C16 16.346 17.346 15 19 15C20.654 15 22 16.346 22 18C22 19.654 20.654 21 19 21ZM30 18C30 16.346 31.346 15 33 15C34.654 15 36 16.346 36 18C36 19.654 34.654 21 33 21C31.346 21 30 19.654 30 18ZM33 28C34.654 28 36 29.346 36 31C36 32.654 34.654 34 33 34C31.346 34 30 32.654 30 31C30 29.346 31.346 28 33 28ZM19 28C20.654 28 22 29.346 22 31C22 32.654 20.654 34 19 34C17.346 34 16 32.654 16 31C16 29.346 17.346 28 19 28ZM8 31C8 32.654 6.654 34 5 34C3.346 34 2 32.654 2 31C2 29.346 3.346 28 5 28C6.654 28 8 29.346 8 31Z" transform="translate(11 18)" fill="#656C89"/>
</svg>
