<svg width="60" height="60" viewBox="0 0 60 60" fill="none" xmlns="http://www.w3.org/2000/svg">
<path d="M4 0C1.794 0 0 1.794 0 4C0 6.206 1.794 8 4 8C6.206 8 8 6.206 8 4C8 1.794 6.206 0 4 0ZM4 6C2.897 6 2 5.103 2 4C2 2.897 2.897 2 4 2C5.103 2 6 2.897 6 4C6 5.103 5.103 6 4 6Z" transform="translate(3 3)" fill="#656C89"/>
<path d="M8 4C8 1.794 6.206 0 4 0C1.794 0 0 1.794 0 4C0 6.206 1.794 8 4 8C6.206 8 8 6.206 8 4ZM2 4C2 2.897 2.897 2 4 2C5.103 2 6 2.897 6 4C6 5.103 5.103 6 4 6C2.897 6 2 5.103 2 4Z" transform="translate(12 3)" fill="#656C89"/>
<path d="M4 8C6.206 8 8 6.206 8 4C8 1.794 6.206 0 4 0C1.794 0 0 1.794 0 4C0 6.206 1.794 8 4 8ZM4 2C5.103 2 6 2.897 6 4C6 5.103 5.103 6 4 6C2.897 6 2 5.103 2 4C2 2.897 2.897 2 4 2Z" transform="translate(21 3)" fill="#656C89"/>
<path d="M0 0V12V14V60H14H60V14V0H0ZM2 2H58V12H14H2V2ZM2 58V14H12V58H2ZM58 58H14V14H58V58Z" fill="#656C89"/>
<path d="M5 0H1C0.448 0 0 0.447 0 1C0 1.553 0.448 2 1 2H5C5.552 2 6 1.553 6 1C6 0.447 5.552 0 5 0Z" transform="translate(4 18)" fill="#656C89"/>
<path d="M5 0H1C0.448 0 0 0.447 0 1C0 1.553 0.448 2 1 2H5C5.552 2 6 1.553 6 1C6 0.447 5.552 0 5 0Z" transform="translate(4 23)" fill="#656C89"/>
<path d="M5 0H1C0.448 0 0 0.447 0 1C0 1.553 0.448 2 1 2H5C5.552 2 6 1.553 6 1C6 0.447 5.552 0 5 0Z" transform="translate(4 28)" fill="#656C89"/>
<path d="M5 0H1C0.448 0 0 0.447 0 1C0 1.553 0.448 2 1 2H5C5.552 2 6 1.553 6 1C6 0.447 5.552 0 5 0Z" transform="translate(4 33)" fill="#656C89"/>
<path d="M5 0H1C0.448 0 0 0.447 0 1C0 1.553 0.448 2 1 2H5C5.552 2 6 1.553 6 1C6 0.447 5.552 0 5 0Z" transform="translate(4 38)" fill="#656C89"/>
<path d="M5 0H1C0.448 0 0 0.447 0 1C0 1.553 0.448 2 1 2H5C5.552 2 6 1.553 6 1C6 0.447 5.552 0 5 0Z" transform="translate(4 43)" fill="#656C89"/>
<path d="M5 0H1C0.448 0 0 0.447 0 1C0 1.553 0.448 2 1 2H5C5.552 2 6 1.553 6 1C6 0.447 5.552 0 5 0Z" transform="translate(4 48)" fill="#656C89"/>
<path d="M5 0H1C0.448 0 0 0.447 0 1C0 1.553 0.448 2 1 2H5C5.552 2 6 1.553 6 1C6 0.447 5.552 0 5 0Z" transform="translate(4 53)" fill="#656C89"/>
<path d="M16 0H0V16H16V0ZM9 14C9 13.448 8.552 13 8 13C7.448 13 7 13.448 7 14H3C3 13.448 2.552 13 2 13V9C2.552 9 3 8.552 3 8C3 7.448 2.552 7 2 7V3C2.552 3 3 2.552 3 2H7C7 2.552 7.448 3 8 3C8.552 3 9 2.552 9 2H13C13 2.552 13.448 3 14 3V7C13.448 7 13 7.448 13 8C13 8.552 13.448 9 14 9V13C13.448 13 13 13.448 13 14H9Z" transform="translate(18 18)" fill="#656C89"/>
<path d="M16 0H0V16H16V0ZM14 14H2V2H14V14Z" transform="translate(38 18)" fill="#656C89"/>
<path d="M16 16V0H0V16H16ZM2 2H14V14H2V2Z" transform="translate(18 38)" fill="#656C89"/>
<path d="M16 0H0V16H16V0ZM14 14H2V2H14V14Z" transform="translate(38 38)" fill="#656C89"/>
<path d="M1 2C1.55228 2 2 1.55228 2 1C2 0.447715 1.55228 0 1 0C0.447715 0 0 0.447715 0 1C0 1.55228 0.447715 2 1 2Z" transform="translate(28 22)" fill="#656C89"/>
<path d="M1 2C1.55228 2 2 1.55228 2 1C2 0.447715 1.55228 0 1 0C0.447715 0 0 0.447715 0 1C0 1.55228 0.447715 2 1 2Z" transform="translate(25 25)" fill="#656C89"/>
<path d="M1 2C1.55228 2 2 1.55228 2 1C2 0.447715 1.55228 0 1 0C0.447715 0 0 0.447715 0 1C0 1.55228 0.447715 2 1 2Z" transform="translate(28 28)" fill="#656C89"/>
<path d="M1 2C1.55228 2 2 1.55228 2 1C2 0.447715 1.55228 0 1 0C0.447715 0 0 0.447715 0 1C0 1.55228 0.447715 2 1 2Z" transform="translate(22 22)" fill="#656C89"/>
<path d="M1 2C1.55228 2 2 1.55228 2 1C2 0.447715 1.55228 0 1 0C0.447715 0 0 0.447715 0 1C0 1.55228 0.447715 2 1 2Z" transform="translate(22 28)" fill="#656C89"/>
</svg>
