<svg width="60" height="60" viewBox="0 0 60 60" fill="none" xmlns="http://www.w3.org/2000/svg">
<path d="M4 0C1.794 0 0 1.794 0 4C0 6.206 1.794 8 4 8C6.206 8 8 6.206 8 4C8 1.794 6.206 0 4 0ZM4 6C2.897 6 2 5.103 2 4C2 2.897 2.897 2 4 2C5.103 2 6 2.897 6 4C6 5.103 5.103 6 4 6Z" transform="translate(3 3)" fill="#656C89"/>
<path d="M4 0C1.794 0 0 1.794 0 4C0 6.206 1.794 8 4 8C6.206 8 8 6.206 8 4C8 1.794 6.206 0 4 0ZM4 6C2.897 6 2 5.103 2 4C2 2.897 2.897 2 4 2C5.103 2 6 2.897 6 4C6 5.103 5.103 6 4 6Z" transform="translate(12 3)" fill="#656C89"/>
<path d="M4 0C1.794 0 0 1.794 0 4C0 6.206 1.794 8 4 8C6.206 8 8 6.206 8 4C8 1.794 6.206 0 4 0ZM4 6C2.897 6 2 5.103 2 4C2 2.897 2.897 2 4 2C5.103 2 6 2.897 6 4C6 5.103 5.103 6 4 6Z" transform="translate(21 3)" fill="#656C89"/>
<path d="M0 0V14V60H60V14V0H0ZM2 2H58V12H2V2ZM58 58H2V14H58V58Z" fill="#656C89"/>
<path d="M50 38V0H0V38H50ZM2 36V33.952L17.974 19.888L28.275 30.19C28.666 30.581 29.298 30.581 29.689 30.19C30.08 29.799 30.08 29.167 29.689 28.776L24.882 23.969L34.044 13.934L48 27.424V36H2ZM48 2V24.642L34.695 11.781C34.5 11.593 34.239 11.488 33.968 11.5C33.698 11.508 33.443 11.626 33.261 11.825L23.466 22.552L18.723 17.809C18.351 17.436 17.751 17.417 17.355 17.766L2 31.287V2H48Z" transform="translate(5 17)" fill="#656C89"/>
<path d="M5.568 11.138C8.639 11.138 11.137 8.64 11.137 5.569C11.137 2.498 8.639 0 5.568 0C2.498 0 0 2.498 0 5.569C0 8.64 2.497 11.138 5.568 11.138ZM5.568 2C7.536 2 9.137 3.601 9.137 5.569C9.137 7.537 7.535 9.138 5.568 9.138C3.601 9.138 2 7.537 2 5.569C2 3.601 3.6 2 5.568 2Z" transform="translate(10.8633 22.5)" fill="#656C89"/>
</svg>
