<svg width="59" height="59" viewBox="0 0 59 59" fill="none" xmlns="http://www.w3.org/2000/svg">
<path d="M0 0V59H59V0H0ZM57 57H2V2H57V57Z" fill="#656C89"/>
<path d="M15.414 30.0002C15.67 30.0002 15.926 29.9023 16.121 29.7073C16.512 29.3163 16.512 28.6842 16.121 28.2932L2.828 15.0002L16.121 1.70725C16.512 1.31625 16.512 0.68425 16.121 0.29325C15.73 -0.09775 15.098 -0.09775 14.707 0.29325L0 15.0002L14.707 29.7073C14.902 29.9023 15.158 30.0002 15.414 30.0002Z" transform="translate(5.58594 14.9998)" fill="#656C89"/>
<path d="M0.29325 29.7073C0.48825 29.9023 0.744251 30.0002 1.00025 30.0002C1.25625 30.0002 1.51225 29.9023 1.70725 29.7073L16.4143 15.0002L1.70725 0.29325C1.31625 -0.09775 0.68425 -0.09775 0.29325 0.29325C-0.09775 0.68425 -0.09775 1.31625 0.29325 1.70725L13.5862 15.0002L0.29325 28.2932C-0.09775 28.6842 -0.09775 29.3163 0.29325 29.7073Z" transform="translate(37 14.9998)" fill="#656C89"/>
<path d="M0.784689 42.9763C0.856689 42.9913 0.929689 42.9993 1.00069 42.9993C1.45969 42.9993 1.87369 42.6813 1.97669 42.2143L10.9767 1.21434C11.0947 0.674339 10.7537 0.141339 10.2147 0.0233388C9.67769 -0.0946612 9.14169 0.246339 9.02369 0.785339L0.0236895 41.7853C-0.0953106 42.3243 0.245689 42.8573 0.784689 42.9763Z" transform="translate(24 8.00067)" fill="#656C89"/>
</svg>
