<svg width="60" height="59" viewBox="0 0 60 59" fill="none" xmlns="http://www.w3.org/2000/svg">
<path d="M0 0V59H60V0H0ZM58 57H2V2H58V57Z" fill="#656C89"/>
<path d="M1 2H21C21.553 2 22 1.553 22 1C22 0.447 21.553 0 21 0H1C0.447 0 0 0.447 0 1C0 1.553 0.447 2 1 2Z" transform="translate(28 46)" fill="#656C89"/>
<path d="M1 2H14C14.553 2 15 1.553 15 1C15 0.447 14.553 0 14 0H1C0.447 0 0 0.447 0 1C0 1.553 0.447 2 1 2Z" transform="translate(28 39)" fill="#656C89"/>
<path d="M1 2H21C21.553 2 22 1.553 22 1C22 0.447 21.553 0 21 0H1C0.447 0 0 0.447 0 1C0 1.553 0.447 2 1 2Z" transform="translate(28 32)" fill="#656C89"/>
<path d="M1 2H19C19.553 2 20 1.553 20 1C20 0.447 19.553 0 19 0H1C0.447 0 0 0.447 0 1C0 1.553 0.447 2 1 2Z" transform="translate(28 25)" fill="#656C89"/>
<path d="M1 2H15C15.553 2 16 1.553 16 1C16 0.447 15.553 0 15 0H1C0.447 0 0 0.447 0 1C0 1.553 0.447 2 1 2Z" transform="translate(28 18)" fill="#656C89"/>
<path d="M1 2H21C21.553 2 22 1.553 22 1C22 0.447 21.553 0 21 0H1C0.447 0 0 0.447 0 1C0 1.553 0.447 2 1 2Z" transform="translate(28 11)" fill="#656C89"/>
<path d="M7.29225 18.706C7.38425 18.799 7.49525 18.872 7.61825 18.923C7.74025 18.974 7.87025 19 8.00025 19C8.13025 19 8.26025 18.974 8.38225 18.923C8.50525 18.872 8.61625 18.799 8.70825 18.706L15.7073 11.707C16.0983 11.316 16.0983 10.684 15.7073 10.293C15.3163 9.902 14.6842 9.902 14.2932 10.293L9.00025 15.586V1C9.00025 0.447 8.55325 0 8.00025 0C7.44725 0 7.00025 0.447 7.00025 1V15.586L1.70725 10.293C1.31625 9.902 0.68425 9.902 0.29325 10.293C-0.09775 10.684 -0.09775 11.316 0.29325 11.707L7.29225 18.706Z" transform="translate(8 9)" fill="#656C89"/>
<path d="M1.00025 8.99875C1.25625 8.99875 1.51225 8.90075 1.70725 8.70575L7.00025 3.41275V17.9988C7.00025 18.5518 7.44725 18.9988 8.00025 18.9988C8.55325 18.9988 9.00025 18.5518 9.00025 17.9988V3.41275L14.2932 8.70575C14.4882 8.90075 14.7442 8.99875 15.0002 8.99875C15.2562 8.99875 15.5123 8.90075 15.7073 8.70575C16.0983 8.31475 16.0983 7.68275 15.7073 7.29175L8.70825 0.292751C8.61625 0.199751 8.50525 0.12675 8.38225 0.07575C8.13825 -0.02525 7.86325 -0.02525 7.61825 0.07575C7.49525 0.12675 7.38425 0.200751 7.29225 0.292751L0.29325 7.29175C-0.09775 7.68275 -0.09775 8.31475 0.29325 8.70575C0.48825 8.90075 0.74425 8.99875 1.00025 8.99875Z" transform="translate(8 31.0013)" fill="#656C89"/>
</svg>
