<svg width="59" height="59" viewBox="0 0 59 59" fill="none" xmlns="http://www.w3.org/2000/svg">
<path d="M0 0V59H59V0H0ZM57 57H2V2H57V57Z" fill="#656C89"/>
<path d="M11.0922 39.3778H19.9202L29.6463 29.6517C29.6473 29.6507 29.6483 29.6507 29.6493 29.6497C29.6503 29.6487 29.6503 29.6478 29.6513 29.6468L41.2952 18.0028C42.6722 16.6268 42.6722 14.3867 41.2952 13.0107L29.3153 1.03275C27.9393 -0.34325 25.7002 -0.34525 24.3242 1.03275L1.03125 24.3247C-0.34375 25.7017 -0.34375 27.9397 1.03125 29.3167L11.0922 39.3778ZM25.7383 2.44675C26.3363 1.85075 27.3073 1.85175 27.9013 2.44675L39.8802 14.4258C40.4772 15.0228 40.4772 15.9928 39.8802 16.5898L28.9412 27.5288L14.7982 13.3868L25.7383 2.44675ZM2.44525 25.7388L13.3842 14.7998L27.5263 28.9417L19.0923 37.3778H11.9202L2.44525 27.9028C1.84925 27.3068 1.84925 26.3358 2.44525 25.7388Z" transform="translate(6.67188 8.62225)" fill="#656C89"/>
<path d="M0 1C0 1.553 0.447 2 1 2H18C18.553 2 19 1.553 19 1C19 0.447 18.553 0 18 0H1C0.447 0 0 0.447 0 1Z" transform="translate(32 46)" fill="#656C89"/>
</svg>
