<svg width="60" height="59" viewBox="0 0 60 59" fill="none" xmlns="http://www.w3.org/2000/svg">
<path d="M0 0V59H60V0H0ZM58 57H2V2H58V57Z" fill="#656C89"/>
<path d="M1 2H22C22.552 2 23 1.553 23 1C23 0.447 22.552 0 22 0H1C0.448 0 0 0.447 0 1C0 1.553 0.448 2 1 2Z" transform="translate(12 11)" fill="#656C89"/>
<path d="M14 0H1C0.448 0 0 0.447 0 1C0 1.553 0.448 2 1 2H14C14.552 2 15 1.553 15 1C15 0.447 14.552 0 14 0Z" transform="translate(20 18)" fill="#656C89"/>
<path d="M1 2H22C22.552 2 23 1.553 23 1C23 0.447 22.552 0 22 0H1C0.448 0 0 0.447 0 1C0 1.553 0.448 2 1 2Z" transform="translate(12 25)" fill="#656C89"/>
<path d="M18 0H1C0.448 0 0 0.447 0 1C0 1.553 0.448 2 1 2H18C18.552 2 19 1.553 19 1C19 0.447 18.552 0 18 0Z" transform="translate(16 32)" fill="#656C89"/>
<path d="M14 0H1C0.448 0 0 0.447 0 1C0 1.553 0.448 2 1 2H14C14.552 2 15 1.553 15 1C15 0.447 14.552 0 14 0Z" transform="translate(20 39)" fill="#656C89"/>
<path d="M1 2H22C22.552 2 23 1.553 23 1C23 0.447 22.552 0 22 0H1C0.448 0 0 0.447 0 1C0 1.553 0.448 2 1 2Z" transform="translate(12 46)" fill="#656C89"/>
<path d="M1 37C1.552 37 2 36.553 2 36V1C2 0.447 1.552 0 1 0C0.448 0 0 0.447 0 1V36C0 36.553 0.448 37 1 37Z" transform="translate(40 11)" fill="#656C89"/>
<path d="M0.00696243 11.1899C0.0169624 11.2429 0.0469643 11.2909 0.0659643 11.3429C0.0919643 11.4139 0.113965 11.4859 0.155965 11.5499C0.160965 11.5569 0.160963 11.5659 0.165963 11.5719L7.16596 21.5719C7.36096 21.8499 7.67096 21.9989 7.98596 21.9989C8.18396 21.9989 8.38397 21.9399 8.55797 21.8179C9.01097 21.5019 9.12096 20.8779 8.80396 20.4249L2.20596 10.9999L8.80496 1.57291C9.12096 1.12091 9.01196 0.496906 8.55896 0.179906C8.10696 -0.135094 7.48396 -0.0260941 7.16596 0.425906L0.165963 10.4259C0.160963 10.4329 0.160965 10.4409 0.155965 10.4479C0.112965 10.5119 0.0919643 10.5839 0.0659643 10.6549C0.0469643 10.7069 0.0169624 10.7549 0.00696243 10.8079C-0.00503757 10.8709 0.00396407 10.9339 0.00396407 10.9979C0.00296407 11.0639 -0.00603757 11.1279 0.00696243 11.1899Z" transform="translate(44.0146 19.0001)" fill="#656C89"/>
</svg>
