<svg width="60" height="58" viewBox="0 0 60 58" fill="none" xmlns="http://www.w3.org/2000/svg">
<path d="M0 0V58H60V0H0ZM58 56H2V2H58V56Z" fill="#656C89"/>
<path d="M12 42V0H0V42H12ZM2 14.414L10 6.414V10.586L2 18.586V14.414ZM2 21.414L10 13.414V17.586L2 25.586V21.414ZM2 28.414L10 20.414V24.586L2 32.586V28.414ZM2 35.414L10 27.414V31.586L2 39.586V35.414ZM4.414 40L10 34.414V40H4.414ZM10 3.586L2 11.586V7.414L7.414 2H10V3.586ZM4.586 2L2 4.586V2H4.586Z" transform="translate(8 8)" fill="#656C89"/>
<path d="M0.07575 9.38225C0.12675 9.50525 0.199751 9.61625 0.292751 9.70825L8.29175 17.7073C8.48675 17.9023 8.74275 18.0002 8.99875 18.0002C9.25475 18.0002 9.51075 17.9023 9.70575 17.7073C10.0968 17.3163 10.0968 16.6842 9.70575 16.2932L3.41275 10.0003H20.9988C21.5518 10.0003 21.9988 9.55325 21.9988 9.00025C21.9988 8.44725 21.5518 8.00025 20.9988 8.00025H3.41275L9.70575 1.70725C10.0968 1.31625 10.0968 0.68425 9.70575 0.29325C9.31475 -0.09775 8.68275 -0.09775 8.29175 0.29325L0.292751 8.29225C0.199751 8.38425 0.12675 8.49525 0.07575 8.61825C-0.02525 8.86225 -0.02525 9.13825 0.07575 9.38225Z" transform="translate(27.001 19.9998)" fill="#656C89"/>
</svg>
