<svg width="60" height="59" viewBox="0 0 60 59" fill="none" xmlns="http://www.w3.org/2000/svg">
<path d="M0 0V59H60V0H0ZM58 57H2V2H58V57Z" fill="#656C89"/>
<path d="M1 2H23C23.552 2 24 1.553 24 1C24 0.447 23.552 0 23 0H1C0.448 0 0 0.447 0 1C0 1.553 0.448 2 1 2Z" transform="translate(25 12)" fill="#656C89"/>
<path d="M1 2H23C23.552 2 24 1.553 24 1C24 0.447 23.552 0 23 0H1C0.448 0 0 0.447 0 1C0 1.553 0.448 2 1 2Z" transform="translate(25 28)" fill="#656C89"/>
<path d="M1 2H23C23.552 2 24 1.553 24 1C24 0.447 23.552 0 23 0H1C0.448 0 0 0.447 0 1C0 1.553 0.448 2 1 2Z" transform="translate(25 44)" fill="#656C89"/>
<path d="M1.00025 5.99875C1.25625 5.99875 1.51225 5.90075 1.70725 5.70575L4.00025 3.41275V5.99875V10.9987C4.00025 11.5517 4.44825 11.9987 5.00025 11.9987C5.55225 11.9987 6.00025 11.5517 6.00025 10.9987V5.99875V0.99875C6.00025 0.86875 5.97325 0.73875 5.92325 0.61675C5.82225 0.37175 5.62725 0.17675 5.38225 0.07575C5.13825 -0.02525 4.86225 -0.02525 4.61825 0.07575C4.49525 0.12675 4.38525 0.19975 4.29225 0.29275L0.29325 4.29175C-0.09775 4.68275 -0.09775 5.31475 0.29325 5.70575C0.48825 5.90075 0.74425 5.99875 1.00025 5.99875Z" transform="translate(11 7.00125)" fill="#656C89"/>
<path d="M0 3.998C0 4.551 0.448 4.998 1 4.998C1.552 4.998 2 4.551 2 3.998C2 2.895 2.897 1.998 4.034 1.998C4.862 2.012 5.228 2.626 5.347 2.89C5.561 3.366 5.61 4.084 5.105 4.673L0.563 9.972C0.251 10.334 0.179 10.849 0.378 11.284C0.577 11.719 1.015 11.999 1.493 11.999H6.5C7.052 11.999 7.5 11.552 7.5 10.999C7.5 10.446 7.052 9.999 6.5 9.999H3.174L6.623 5.975C7.555 4.888 7.765 3.391 7.17 2.07C6.605 0.815001 5.416 0.0220017 4 1.67062e-06C1.794 -0.00199833 0 1.792 0 3.998Z" transform="translate(11.5 23.002)" fill="#656C89"/>
<path d="M3 0H1C0.448 0 0 0.447 0 1C0 1.553 0.448 2 1 2H3C3.827 2 4.5 2.673 4.5 3.5C4.5 4.327 3.827 5 3 5H1C0.448 5 0 5.447 0 6C0 6.553 0.448 7 1 7H3C3.827 7 4.5 7.673 4.5 8.5C4.5 9.327 3.827 10 3 10H1C0.448 10 0 10.447 0 11C0 11.553 0.448 12 1 12H3C4.93 12 6.5 10.43 6.5 8.5C6.5 7.521 6.097 6.636 5.447 6C6.096 5.364 6.5 4.479 6.5 3.5C6.5 1.57 4.93 0 3 0Z" transform="translate(12 39)" fill="#656C89"/>
</svg>
