<svg width="60" height="59" viewBox="0 0 60 59" fill="none" xmlns="http://www.w3.org/2000/svg">
<path d="M0 0V59H60V0H0ZM58 57H2V2H58V57Z" fill="#656C89"/>
<path d="M1 2H23C23.552 2 24 1.553 24 1C24 0.447 23.552 0 23 0H1C0.448 0 0 0.447 0 1C0 1.553 0.448 2 1 2Z" transform="translate(25 13)" fill="#656C89"/>
<path d="M1 2H23C23.552 2 24 1.553 24 1C24 0.447 23.552 0 23 0H1C0.448 0 0 0.447 0 1C0 1.553 0.448 2 1 2Z" transform="translate(25 29)" fill="#656C89"/>
<path d="M1 2H23C23.552 2 24 1.553 24 1C24 0.447 23.552 0 23 0H1C0.448 0 0 0.447 0 1C0 1.553 0.448 2 1 2Z" transform="translate(25 45)" fill="#656C89"/>
<path d="M0.29325 9.70725C0.48825 9.90225 0.74425 10.0002 1.00025 10.0002C1.25625 10.0002 1.51225 9.90225 1.70725 9.70725L5.00025 6.41425L8.29325 9.70725C8.48825 9.90225 8.74425 10.0002 9.00025 10.0002C9.25625 10.0002 9.51225 9.90225 9.70725 9.70725C10.0983 9.31625 10.0983 8.68425 9.70725 8.29325L6.41425 5.00025L9.70725 1.70725C10.0983 1.31625 10.0983 0.68425 9.70725 0.29325C9.31625 -0.09775 8.68425 -0.09775 8.29325 0.29325L5.00025 3.58625L1.70725 0.29325C1.31625 -0.09775 0.68425 -0.09775 0.29325 0.29325C-0.09775 0.68425 -0.09775 1.31625 0.29325 1.70725L3.58625 5.00025L0.29325 8.29325C-0.09775 8.68425 -0.09775 9.31625 0.29325 9.70725Z" transform="translate(10 8.99976)" fill="#656C89"/>
<path d="M0.29325 9.70725C0.48825 9.90225 0.74425 10.0003 1.00025 10.0003C1.25625 10.0003 1.51225 9.90225 1.70725 9.70725L5.00025 6.41425L8.29325 9.70725C8.48825 9.90225 8.74425 10.0003 9.00025 10.0003C9.25625 10.0003 9.51225 9.90225 9.70725 9.70725C10.0983 9.31625 10.0983 8.68425 9.70725 8.29325L6.41425 5.00025L9.70725 1.70725C10.0983 1.31625 10.0983 0.68425 9.70725 0.29325C9.31625 -0.09775 8.68425 -0.09775 8.29325 0.29325L5.00025 3.58625L1.70725 0.29325C1.31625 -0.09775 0.68425 -0.09775 0.29325 0.29325C-0.09775 0.68425 -0.09775 1.31625 0.29325 1.70725L3.58625 5.00025L0.29325 8.29325C-0.09775 8.68425 -0.09775 9.31625 0.29325 9.70725Z" transform="translate(10 24.9998)" fill="#656C89"/>
<path d="M0.29325 9.70725C0.48825 9.90225 0.74425 10.0003 1.00025 10.0003C1.25625 10.0003 1.51225 9.90225 1.70725 9.70725L5.00025 6.41425L8.29325 9.70725C8.48825 9.90225 8.74425 10.0003 9.00025 10.0003C9.25625 10.0003 9.51225 9.90225 9.70725 9.70725C10.0983 9.31625 10.0983 8.68425 9.70725 8.29325L6.41425 5.00025L9.70725 1.70725C10.0983 1.31625 10.0983 0.68425 9.70725 0.29325C9.31625 -0.09775 8.68425 -0.09775 8.29325 0.29325L5.00025 3.58625L1.70725 0.29325C1.31625 -0.09775 0.68425 -0.09775 0.29325 0.29325C-0.09775 0.68425 -0.09775 1.31625 0.29325 1.70725L3.58625 5.00025L0.29325 8.29325C-0.09775 8.68425 -0.09775 9.31625 0.29325 9.70725Z" transform="translate(10 40.9998)" fill="#656C89"/>
</svg>
