<svg width="278"
     height="590"
     viewBox="0 0 278 590"
     fill="none"
     xmlns="http://www.w3.org/2000/svg"
     class="avatar-svg">
<path d="M0 10.8971C0 4.87879 4.87879 0 10.8971 0H24.9993C31.0177 0 35.8964 4.87879 35.8964 10.8971V26.8579C35.8964 32.8762 31.0177 37.755 24.9993 37.755H10.8971C4.87879 37.755 0 32.8762 0 26.8579V10.8971Z" transform="translate(217.786 145.446)" fill="#321B1A"/>
<path d="M0 10.8971C0 4.87879 4.87879 0 10.8971 0H24.9993C31.0177 0 35.8964 4.87879 35.8964 10.8971V26.8579C35.8964 32.8762 31.0177 37.755 24.9993 37.755H10.8971C4.87879 37.755 0 32.8762 0 26.8579V10.8971Z" transform="translate(23.9438 145.447)" fill="#321B1A"/>
<path d="M0 0H186.663V139.944C186.663 174.764 158.436 202.991 123.616 202.991H62.2691C27.8788 202.991 0 175.112 0 140.722V0Z" transform="translate(45.4844 87.6091)" fill="#4C2D2B"/>

    <g class="avatar-pupil-open">
      <circle cx="14.7889" cy="14.7889" r="14.7889" transform="translate(79.3931 133.1)" fill="black"/>
      <circle cx="3.89182" cy="3.89182" r="3.89182" transform="translate(96.5171 137.77)" fill="white"/>
    </g>
    <g class="avatar-pupil-open">
      <circle cx="14.7889" cy="14.7889" r="14.7889" transform="translate(168.905 133.1)" fill="black"/>
      <circle cx="3.89182" cy="3.89182" r="3.89182" transform="translate(186.029 137.77)" fill="white"/>
    </g>

<path d="M10.6575 4.48101C14.2972 -1.49367 22.9714 -1.49367 26.6111 4.48101L35.8904 19.7134C39.6822 25.9377 35.2019 33.9131 27.9136 33.9131H9.35495C2.06666 33.9131 -2.41357 25.9377 1.3782 19.7134L10.6575 4.48101Z" transform="translate(120.181 177.305)" fill="#321B1A"/>
<path d="M0 19.7432V0H40.258L0 19.7432Z" transform="translate(232.237 87.1768) rotate(90)" fill="black"/>
<path d="M0 36.5831C0 16.3788 16.3788 0 36.5831 0H156.8C162.389 0 166.919 4.53031 166.919 10.1187V37.9902H0V36.5831Z" transform="translate(65.3828 49.8153)" fill="black"/>
<path d="M5.98401 9.35572C12.7615 -3.11857 30.6676 -3.11857 37.445 9.35572L41.232 16.3257C47.7132 28.2547 39.0774 42.7748 25.5015 42.7748H17.9275C4.35163 42.7748 -4.28417 28.2547 2.19704 16.3257L5.98401 9.35572Z" transform="translate(142.092 14.0411)" fill="black"/>
<path d="M6.6277 13.3251C10.9462 -2.9945 33.382 -4.81556 40.2759 10.5939L50.4575 33.3521C55.7558 45.1953 47.0901 58.5652 34.1159 58.5652H17.912C6.1638 58.5652 -2.40005 47.4408 0.605358 36.0833L6.6277 13.3251Z" transform="matrix(0.903559 0.428464 -0.466861 0.884331 176.943 0)" fill="black"/>
<path d="M5.98401 9.35572C12.7615 -3.11857 30.6676 -3.11857 37.445 9.35572L41.232 16.3257C47.7132 28.2547 39.0774 42.7748 25.5015 42.7748H17.9275C4.35163 42.7748 -4.28417 28.2547 2.19704 16.3257L5.98401 9.35572Z" transform="translate(108.586 26.5149)" fill="black"/>
<path d="M0 0V19.7432H40.258L0 0Z" transform="translate(64.8882 81.7283) rotate(90)" fill="black"/>
<path d="M12.1213 4.67715C15.0779 -1.55905 24.6187 -1.55905 27.5753 4.67715L38.9734 28.719C41.4259 33.892 37.34 39.6966 31.2465 39.6966H8.45017C2.35654 39.6966 -1.72928 33.892 0.723164 28.719L12.1213 4.67715Z" transform="translate(45.145 48.2585)" fill="black"/>
<path d="M9.72168 3.66096C12.3737 -1.22032 19.3806 -1.22032 22.0326 3.66096L30.8946 19.9721C33.4307 24.6399 30.0515 30.3216 24.7391 30.3216H7.01515C1.70282 30.3216 -1.67641 24.6399 0.8597 19.9721L9.72168 3.66096Z" transform="translate(66.4771 38.9683)" fill="black"/>
<path d="M5.98401 9.35572C12.7615 -3.11857 30.6676 -3.11857 37.445 9.35572L41.232 16.3257C47.7132 28.2547 39.0774 42.7748 25.5015 42.7748H17.9275C4.35163 42.7748 -4.28417 28.2547 2.19704 16.3257L5.98401 9.35572Z" transform="translate(81.064 32.1857)" fill="black"/>
<path d="M6.39638 13.4644C10.6285 -3.06531 33.3906 -4.86559 40.1686 10.7932L50.0213 33.5551C55.1378 45.3752 46.4722 58.5692 33.592 58.5692H17.9116C6.22288 58.5692 -2.33059 47.5499 0.56858 36.2263L6.39638 13.4644Z" transform="matrix(0.720396 0.693563 -0.731186 0.682178 221.919 11.5127)" fill="black"/>
<path d="M71.5624 0H0V25.065H71.5624V0Z" transform="translate(102.687 290.901)" fill="#321B1A"/>
<path d="M0 0H77.8364C77.8364 10.3171 69.4728 18.6807 59.1557 18.6807H18.6807C8.36365 18.6807 0 10.3171 0 0Z" transform="translate(100.409 238.958)" fill="white"/>
<path d="M0 89.9999C0 40.2943 40.2944 0 90 0H187.876C237.582 0 277.876 40.2944 277.876 90V274.763H0V89.9999Z" transform="translate(0 315.237)" fill="#395380"/>
<path d="M0 0H3.11346V223.391H0V0Z" transform="translate(233.509 366.609)" fill="#25344F"/>
<path d="M0 0H3.11346V223.391H0V0Z" transform="translate(42.0317 366.609)" fill="#25344F"/>
<rect width="71.6095" height="18.6807" transform="translate(102.744 297.335)" fill="#25344F"/>
<path d="M7.75196 0L15.5039 17.5132H0L7.75196 0Z" transform="translate(94.9604 297.335)" fill="#25344F"/>
<path d="M7.75196 0L15.5039 17.5132H0L7.75196 0Z" transform="translate(166.57 297.335)" fill="#25344F"/>
<rect width="87.1768" height="1.55673" transform="translate(94.9604 314.459)" fill="#25344F"/>
<circle cx="2.33509" cy="2.33509" r="2.33509" transform="translate(143.219 479.472)" fill="#FFFFF9"/>
<circle cx="2.33509" cy="2.33509" r="2.33509" transform="translate(143.219 530.844)" fill="#FFFFF9"/>
<circle cx="2.33509" cy="2.33509" r="2.33509" transform="translate(143.219 428.1)" fill="#FFFFF9"/>
<circle cx="2.33509" cy="2.33509" r="2.33509" transform="translate(143.219 376.728)" fill="#FFFFF9"/>
<circle cx="2.33509" cy="2.33509" r="2.33509" transform="translate(143.219 330.026)" fill="#FFFFF9"/>
<path d="M7.78364 0L15.5673 18.6807H0L7.78364 0Z" transform="translate(131.543 297.335)" fill="#395380"/>
<path d="M0 0H3.11346V292.665H0V0Z" transform="translate(137.771 297.335)" fill="#25344F"/>
<path d="M0 16.3456C0 7.31818 7.3182 0 16.3456 0V223.391H0V16.3456Z" transform="translate(25.686 366.609)" fill="black" fill-opacity="0.14"/>
<path d="M0 6.22692C0 2.78789 2.78788 0 6.22691 0V255.303H0V6.22692Z" transform="translate(131.543 334.697)" fill="black" fill-opacity="0.14"/>
<path d="M0 16.3456C0 7.31818 7.3182 0 16.3456 0V223.391H0V16.3456Z" transform="translate(252.968 366.609) scale(-1 1)" fill="black" fill-opacity="0.14"/>
</svg>
