<svg width="60" height="59" viewBox="0 0 60 59" fill="none" xmlns="http://www.w3.org/2000/svg">
<path d="M0 0V59H60V0H0ZM58 57H2V2H58V57Z" fill="#656C89"/>
<path d="M1 2H22C22.552 2 23 1.553 23 1C23 0.447 22.552 0 22 0H1C0.448 0 0 0.447 0 1C0 1.553 0.448 2 1 2Z" transform="translate(25 11)" fill="#656C89"/>
<path d="M14 0H1C0.448 0 0 0.447 0 1C0 1.553 0.448 2 1 2H14C14.552 2 15 1.553 15 1C15 0.447 14.552 0 14 0Z" transform="translate(33 18)" fill="#656C89"/>
<path d="M1 2H22C22.552 2 23 1.553 23 1C23 0.447 22.552 0 22 0H1C0.448 0 0 0.447 0 1C0 1.553 0.448 2 1 2Z" transform="translate(25 25)" fill="#656C89"/>
<path d="M18 0H1C0.448 0 0 0.447 0 1C0 1.553 0.448 2 1 2H18C18.552 2 19 1.553 19 1C19 0.447 18.552 0 18 0Z" transform="translate(29 32)" fill="#656C89"/>
<path d="M14 0H1C0.448 0 0 0.447 0 1C0 1.553 0.448 2 1 2H14C14.552 2 15 1.553 15 1C15 0.447 14.552 0 14 0Z" transform="translate(33 39)" fill="#656C89"/>
<path d="M1 2H22C22.552 2 23 1.553 23 1C23 0.447 22.552 0 22 0H1C0.448 0 0 0.447 0 1C0 1.553 0.448 2 1 2Z" transform="translate(25 46)" fill="#656C89"/>
<path d="M1 37C1.552 37 2 36.553 2 36V1C2 0.447 1.552 0 1 0C0.448 0 0 0.447 0 1V36C0 36.553 0.448 37 1 37Z" transform="translate(18 11)" fill="#656C89"/>
<path d="M0.428053 21.8163C0.602053 21.9383 0.802053 21.9973 1.00005 21.9973C1.31505 21.9973 1.62505 21.8493 1.82005 21.5703L8.82005 11.5703C8.82505 11.5633 8.82505 11.5553 8.83005 11.5483C8.87305 11.4843 8.89405 11.4123 8.92005 11.3413C8.93905 11.2893 8.96905 11.2413 8.97905 11.1883C8.99105 11.1253 8.98205 11.0623 8.98205 10.9983C8.98205 10.9343 8.99105 10.8703 8.97905 10.8083C8.96905 10.7553 8.93905 10.7073 8.92005 10.6553C8.89405 10.5843 8.87205 10.5123 8.83005 10.4483C8.82505 10.4413 8.82505 10.4323 8.82005 10.4263L1.82005 0.426343C1.50305 -0.0256574 0.880053 -0.135658 0.427053 0.180342C-0.0259466 0.496342 -0.135947 1.12034 0.181053 1.57334L6.78005 11.0003L0.181053 20.4273C-0.134947 20.8763 -0.0249467 21.5003 0.428053 21.8163Z" transform="translate(6.99902 19.0027)" fill="#656C89"/>
</svg>
