<svg width="60" height="59" viewBox="0 0 60 59" fill="none" xmlns="http://www.w3.org/2000/svg">
<path d="M0 0V59H60V0H0ZM58 57H2V2H58V57Z" fill="#656C89"/>
<path d="M1 2H35C35.552 2 36 1.553 36 1C36 0.447 35.552 0 35 0H1C0.448 0 0 0.447 0 1C0 1.553 0.448 2 1 2Z" transform="translate(12 11)" fill="#656C89"/>
<path d="M1 2H35C35.552 2 36 1.553 36 1C36 0.447 35.552 0 35 0H1C0.448 0 0 0.447 0 1C0 1.553 0.448 2 1 2Z" transform="translate(12 18)" fill="#656C89"/>
<path d="M1 2H35C35.552 2 36 1.553 36 1C36 0.447 35.552 0 35 0H1C0.448 0 0 0.447 0 1C0 1.553 0.448 2 1 2Z" transform="translate(12 25)" fill="#656C89"/>
<path d="M1 2H35C35.552 2 36 1.553 36 1C36 0.447 35.552 0 35 0H1C0.448 0 0 0.447 0 1C0 1.553 0.448 2 1 2Z" transform="translate(12 32)" fill="#656C89"/>
<path d="M1 2H35C35.552 2 36 1.553 36 1C36 0.447 35.552 0 35 0H1C0.448 0 0 0.447 0 1C0 1.553 0.448 2 1 2Z" transform="translate(12 39)" fill="#656C89"/>
<path d="M1 2H35C35.552 2 36 1.553 36 1C36 0.447 35.552 0 35 0H1C0.448 0 0 0.447 0 1C0 1.553 0.448 2 1 2Z" transform="translate(12 46)" fill="#656C89"/>
</svg>
