<svg width="60" height="58" viewBox="0 0 60 58" fill="none" xmlns="http://www.w3.org/2000/svg">
<path d="M0 0V58H60V0H0ZM58 56H2V2H58V56Z" fill="#656C89"/>
<path d="M42 12V0H0V12H42ZM6.586 2L14.586 10H10.414L2.414 2H6.586ZM13.586 2L21.586 10H17.414L9.414 2H13.586ZM20.586 2L28.586 10H24.414L16.414 2H20.586ZM27.586 2L35.586 10H31.414L23.414 2H27.586ZM38.414 10L30.414 2H34.586L40 7.414V10H38.414ZM40 4.586L37.414 2H40V4.586ZM2 4.414L7.586 10H2V4.414Z" transform="translate(9 37)" fill="#656C89"/>
<path d="M8.29225 21.706C8.38425 21.799 8.49525 21.872 8.61825 21.923C8.74025 21.974 8.87025 22 9.00025 22C9.13025 22 9.26025 21.974 9.38225 21.923C9.50525 21.872 9.61625 21.799 9.70825 21.706L17.7073 13.707C18.0983 13.316 18.0983 12.684 17.7073 12.293C17.3163 11.902 16.6842 11.902 16.2932 12.293L10.0003 18.586V1C10.0003 0.447 9.55325 0 9.00025 0C8.44725 0 8.00025 0.447 8.00025 1V18.586L1.70725 12.293C1.31625 11.902 0.68425 11.902 0.29325 12.293C-0.09775 12.684 -0.09775 13.316 0.29325 13.707L8.29225 21.706Z" transform="translate(21 8.5)" fill="#656C89"/>
</svg>
