<svg width="60" height="60" viewBox="0 0 60 60" fill="none" xmlns="http://www.w3.org/2000/svg">
<path d="M4 0C1.794 0 0 1.794 0 4C0 6.206 1.794 8 4 8C6.206 8 8 6.206 8 4C8 1.794 6.206 0 4 0ZM4 6C2.897 6 2 5.103 2 4C2 2.897 2.897 2 4 2C5.103 2 6 2.897 6 4C6 5.103 5.103 6 4 6Z" transform="translate(3 3)" fill="#656C89"/>
<path d="M4 0C1.794 0 0 1.794 0 4C0 6.206 1.794 8 4 8C6.206 8 8 6.206 8 4C8 1.794 6.206 0 4 0ZM4 6C2.897 6 2 5.103 2 4C2 2.897 2.897 2 4 2C5.103 2 6 2.897 6 4C6 5.103 5.103 6 4 6Z" transform="translate(12 3)" fill="#656C89"/>
<path d="M4 0C1.794 0 0 1.794 0 4C0 6.206 1.794 8 4 8C6.206 8 8 6.206 8 4C8 1.794 6.206 0 4 0ZM4 6C2.897 6 2 5.103 2 4C2 2.897 2.897 2 4 2C5.103 2 6 2.897 6 4C6 5.103 5.103 6 4 6Z" transform="translate(21 3)" fill="#656C89"/>
<path d="M0 0V14V60H60V14V0H0ZM2 2H58V12H2V2ZM58 58H2V14H58V58Z" fill="#656C89"/>
<path d="M20 0H0V20H20V0ZM18 18H2V2H18V18Z" transform="translate(5 18)" fill="#656C89"/>
<path d="M31 2H6V1C6 0.448 5.553 0 5 0C4.447 0 4 0.448 4 1V2H1C0.447 2 0 2.448 0 3C0 3.552 0.447 4 1 4H4V5C4 5.552 4.447 6 5 6C5.553 6 6 5.552 6 5V4H31C31.553 4 32 3.552 32 3C32 2.448 31.553 2 31 2Z" transform="translate(18 45)" fill="#656C89"/>
<path d="M1 0C0.447 0 0 0.448 0 1V5C0 5.552 0.447 6 1 6C1.553 6 2 5.552 2 5V1C2 0.448 1.553 0 1 0Z" transform="translate(9 45)" fill="#656C89"/>
<path d="M1 0C0.447 0 0 0.448 0 1V5C0 5.552 0.447 6 1 6C1.553 6 2 5.552 2 5V1C2 0.448 1.553 0 1 0Z" transform="translate(12 45)" fill="#656C89"/>
<path d="M1 2H10C10.553 2 11 1.552 11 1C11 0.448 10.553 0 10 0H1C0.447 0 0 0.448 0 1C0 1.552 0.447 2 1 2Z" transform="translate(29 18)" fill="#656C89"/>
<path d="M1 2H19C19.553 2 20 1.552 20 1C20 0.448 19.553 0 19 0H1C0.447 0 0 0.448 0 1C0 1.552 0.447 2 1 2Z" transform="translate(29 23)" fill="#656C89"/>
<path d="M1 2H25C25.553 2 26 1.552 26 1C26 0.448 25.553 0 25 0H1C0.447 0 0 0.448 0 1C0 1.552 0.447 2 1 2Z" transform="translate(29 28)" fill="#656C89"/>
<path d="M1 2H22C22.553 2 23 1.552 23 1C23 0.448 22.553 0 22 0H1C0.447 0 0 0.448 0 1C0 1.552 0.447 2 1 2Z" transform="translate(29 33)" fill="#656C89"/>
<path d="M50 12V0H0V12H50ZM2 2H48V10H2V2Z" transform="translate(5 42)" fill="#656C89"/>
<path d="M3.409 13C5.523 13 7 11.275 7 8.807V3H9C9.553 3 10 2.552 10 2C10 1.448 9.553 1 9 1H7C7 0.448 6.553 0 6 0C5.447 0 5 0.448 5 1V6H3.71C1.63 6 0 7.577 0 9.591C0 11.63 1.37 13 3.409 13ZM3.71 8H5V8.807C5 9.867 4.582 11 3.409 11C2.461 11 2 10.539 2 9.591C2 8.684 2.735 8 3.71 8Z" transform="translate(10 21)" fill="#656C89"/>
</svg>
