<svg width="60" height="60" viewBox="0 0 60 60" fill="none" xmlns="http://www.w3.org/2000/svg">
<path d="M2 4C3.10457 4 4 3.10457 4 2C4 0.89543 3.10457 0 2 0C0.89543 0 0 0.89543 0 2C0 3.10457 0.89543 4 2 4Z" transform="translate(5 5)" fill="#656C89"/>
<path d="M2 4C3.10457 4 4 3.10457 4 2C4 0.89543 3.10457 0 2 0C0.89543 0 0 0.89543 0 2C0 3.10457 0.89543 4 2 4Z" transform="translate(11 5)" fill="#656C89"/>
<path d="M2 4C3.10457 4 4 3.10457 4 2C4 0.89543 3.10457 0 2 0C0.89543 0 0 0.89543 0 2C0 3.10457 0.89543 4 2 4Z" transform="translate(17 5)" fill="#656C89"/>
<path d="M0 0V12V14V21V60H60V21V14V12V0H0ZM42.3 14H51V19H2V14H24.7H42.3ZM27.299 12L28.246 8.423C28.53 7.571 29.323 7 30.22 7H36.78C37.677 7 38.47 7.571 38.736 8.363L39.7 12H27.299ZM58 58H2V21H58V58ZM58 19H53V14H58V19ZM41.769 12L40.651 7.79C40.094 6.121 38.539 5 36.78 5H30.22C28.461 5 26.906 6.121 26.331 7.85L25.231 12H2V2H58V12H41.769Z" fill="#656C89"/>
<path d="M10 0H1C0.448 0 0 0.447 0 1C0 1.553 0.448 2 1 2H10C10.552 2 11 1.553 11 1C11 0.447 10.552 0 10 0Z" transform="translate(18 40)" fill="#656C89"/>
<path d="M4 0H1C0.448 0 0 0.447 0 1C0 1.553 0.448 2 1 2H4C4.552 2 5 1.553 5 1C5 0.447 4.552 0 4 0Z" transform="translate(35 40)" fill="#656C89"/>
<path d="M0.290001 0.2775C0.110001 0.4665 0 0.727499 0 0.987499C0 1.2475 0.110001 1.5075 0.290001 1.6975C0.480001 1.8775 0.74 1.9875 1 1.9875C1.26 1.9875 1.52 1.8775 1.71 1.6975C1.89 1.5075 2 1.2475 2 0.987499C2 0.727499 1.89 0.4665 1.71 0.2775C1.34 -0.0925 0.670001 -0.0925 0.290001 0.2775Z" transform="translate(31 40.0125)" fill="#656C89"/>
<path d="M5 2H4V1C4 0.447 3.552 0 3 0C2.448 0 2 0.447 2 1V2H1C0.448 2 0 2.447 0 3C0 3.553 0.448 4 1 4H2V5C2 5.553 2.448 6 3 6C3.552 6 4 5.553 4 5V4H5C5.552 4 6 3.553 6 3C6 2.447 5.552 2 5 2Z" transform="translate(43 5)" fill="#656C89"/>
<path d="M28 8V0H0V8H28ZM2 2H26V6H2V2Z" transform="translate(16 27)" fill="#656C89"/>
</svg>
