<svg width="60" height="60" viewBox="0 0 60 60" fill="none" xmlns="http://www.w3.org/2000/svg">
<path d="M4 0C1.794 0 0 1.794 0 4C0 6.206 1.794 8 4 8C6.206 8 8 6.206 8 4C8 1.794 6.206 0 4 0ZM4 6C2.897 6 2 5.103 2 4C2 2.897 2.897 2 4 2C5.103 2 6 2.897 6 4C6 5.103 5.103 6 4 6Z" transform="translate(3 3)" fill="#656C89"/>
<path d="M4 0C1.794 0 0 1.794 0 4C0 6.206 1.794 8 4 8C6.206 8 8 6.206 8 4C8 1.794 6.206 0 4 0ZM4 6C2.897 6 2 5.103 2 4C2 2.897 2.897 2 4 2C5.103 2 6 2.897 6 4C6 5.103 5.103 6 4 6Z" transform="translate(12 3)" fill="#656C89"/>
<path d="M4 0C1.794 0 0 1.794 0 4C0 6.206 1.794 8 4 8C6.206 8 8 6.206 8 4C8 1.794 6.206 0 4 0ZM4 6C2.897 6 2 5.103 2 4C2 2.897 2.897 2 4 2C5.103 2 6 2.897 6 4C6 5.103 5.103 6 4 6Z" transform="translate(21 3)" fill="#656C89"/>
<path d="M0 0V14V60H60V14V0H0ZM2 2H58V12H2V2ZM58 58H2V14H58V58Z" fill="#656C89"/>
<path d="M1 2H6C6.552 2 7 1.553 7 1C7 0.447 6.552 0 6 0H1C0.448 0 0 0.447 0 1C0 1.553 0.448 2 1 2Z" transform="translate(46 19)" fill="#656C89"/>
<path d="M1 2H6C6.552 2 7 1.553 7 1C7 0.447 6.552 0 6 0H1C0.448 0 0 0.447 0 1C0 1.553 0.448 2 1 2Z" transform="translate(46 22)" fill="#656C89"/>
<path d="M1 2H6C6.552 2 7 1.553 7 1C7 0.447 6.552 0 6 0H1C0.448 0 0 0.447 0 1C0 1.553 0.448 2 1 2Z" transform="translate(46 25)" fill="#656C89"/>
<path d="M5 10C7.757 10 10 7.757 10 5C10 2.243 7.757 0 5 0C2.243 0 0 2.243 0 5C0 7.757 2.243 10 5 10ZM5 2C6.654 2 8 3.346 8 5C8 6.654 6.654 8 5 8C3.346 8 2 6.654 2 5C2 3.346 3.346 2 5 2Z" transform="translate(7 18)" fill="#656C89"/>
<path d="M1 2H22C22.552 2 23 1.553 23 1C23 0.447 22.552 0 22 0H1C0.448 0 0 0.447 0 1C0 1.553 0.448 2 1 2Z" transform="translate(7 35)" fill="#656C89"/>
<path d="M1 2H10C10.552 2 11 1.553 11 1C11 0.447 10.552 0 10 0H1C0.448 0 0 0.447 0 1C0 1.553 0.448 2 1 2Z" transform="translate(32 35)" fill="#656C89"/>
<path d="M1 2H7C7.552 2 8 1.553 8 1C8 0.447 7.552 0 7 0H1C0.448 0 0 0.447 0 1C0 1.553 0.448 2 1 2Z" transform="translate(45 35)" fill="#656C89"/>
<path d="M1 2H22C22.552 2 23 1.553 23 1C23 0.447 22.552 0 22 0H1C0.448 0 0 0.447 0 1C0 1.553 0.448 2 1 2Z" transform="translate(30 40)" fill="#656C89"/>
<path d="M1 0C0.448 0 0 0.447 0 1C0 1.553 0.448 2 1 2H10C10.552 2 11 1.553 11 1C11 0.447 10.552 0 10 0H1Z" transform="translate(17 40)" fill="#656C89"/>
<path d="M1 2H7C7.552 2 8 1.553 8 1C8 0.447 7.552 0 7 0H1C0.448 0 0 0.447 0 1C0 1.553 0.448 2 1 2Z" transform="translate(7 40)" fill="#656C89"/>
<path d="M1 2H22C22.552 2 23 1.553 23 1C23 0.447 22.552 0 22 0H1C0.448 0 0 0.447 0 1C0 1.553 0.448 2 1 2Z" transform="translate(7 45)" fill="#656C89"/>
<path d="M10 2C10.552 2 11 1.553 11 1C11 0.447 10.552 0 10 0H1C0.448 0 0 0.447 0 1C0 1.553 0.448 2 1 2H10Z" transform="translate(32 45)" fill="#656C89"/>
<path d="M7 0H1C0.448 0 0 0.447 0 1C0 1.553 0.448 2 1 2H7C7.552 2 8 1.553 8 1C8 0.447 7.552 0 7 0Z" transform="translate(45 45)" fill="#656C89"/>
<path d="M22 0H1C0.448 0 0 0.447 0 1C0 1.553 0.448 2 1 2H22C22.552 2 23 1.553 23 1C23 0.447 22.552 0 22 0Z" transform="translate(30 50)" fill="#656C89"/>
<path d="M10 0H1C0.448 0 0 0.447 0 1C0 1.553 0.448 2 1 2H10C10.552 2 11 1.553 11 1C11 0.447 10.552 0 10 0Z" transform="translate(17 50)" fill="#656C89"/>
<path d="M7 0H1C0.448 0 0 0.447 0 1C0 1.553 0.448 2 1 2H7C7.552 2 8 1.553 8 1C8 0.447 7.552 0 7 0Z" transform="translate(7 50)" fill="#656C89"/>
</svg>
