<svg width="60" height="60" viewBox="0 0 60 60" fill="none" xmlns="http://www.w3.org/2000/svg">
<path d="M4 0C1.794 0 0 1.794 0 4C0 6.206 1.794 8 4 8C6.206 8 8 6.206 8 4C8 1.794 6.206 0 4 0ZM4 6C2.897 6 2 5.103 2 4C2 2.897 2.897 2 4 2C5.103 2 6 2.897 6 4C6 5.103 5.103 6 4 6Z" transform="translate(3 3)" fill="#656C89"/>
<path d="M4 0C1.794 0 0 1.794 0 4C0 6.206 1.794 8 4 8C6.206 8 8 6.206 8 4C8 1.794 6.206 0 4 0ZM4 6C2.897 6 2 5.103 2 4C2 2.897 2.897 2 4 2C5.103 2 6 2.897 6 4C6 5.103 5.103 6 4 6Z" transform="translate(12 3)" fill="#656C89"/>
<path d="M4 0C1.794 0 0 1.794 0 4C0 6.206 1.794 8 4 8C6.206 8 8 6.206 8 4C8 1.794 6.206 0 4 0ZM4 6C2.897 6 2 5.103 2 4C2 2.897 2.897 2 4 2C5.103 2 6 2.897 6 4C6 5.103 5.103 6 4 6Z" transform="translate(21 3)" fill="#656C89"/>
<path d="M0 0V14V60H60V14V0H0ZM2 2H58V12H2V2ZM58 58H2V14H58V58Z" fill="#656C89"/>
<path d="M5 10H14.6C17.357 10 19.6 7.757 19.6 5C19.6 2.243 17.357 0 14.6 0H5C2.243 0 0 2.243 0 5C0 7.757 2.244 10 5 10ZM17.6 5C17.6 6.654 16.254 8 14.6 8H8.975C9.61 7.162 10.001 6.13 10.001 5C10.001 3.87 9.61 2.838 8.975 2H14.6C16.254 2 17.6 3.346 17.6 5ZM5 2C6.654 2 8 3.346 8 5C8 6.654 6.654 8 5 8C3.346 8 2 6.654 2 5C2 3.346 3.346 2 5 2Z" transform="translate(33.4004 21)" fill="#656C89"/>
<path d="M5 10H14.6C17.357 10 19.6 7.757 19.6 5C19.6 2.243 17.357 0 14.6 0H5C2.243 0 0 2.243 0 5C0 7.757 2.244 10 5 10ZM17.6 5C17.6 6.654 16.254 8 14.6 8C12.946 8 11.6 6.654 11.6 5C11.6 3.346 12.946 2 14.6 2C16.254 2 17.6 3.346 17.6 5ZM5 2H10.625C9.991 2.838 9.6 3.87 9.6 5C9.6 6.13 9.991 7.162 10.626 8H5C3.346 8 2 6.654 2 5C2 3.346 3.346 2 5 2Z" transform="translate(33.4004 40)" fill="#656C89"/>
<path d="M1 2H9C9.553 2 10 1.553 10 1C10 0.447 9.553 0 9 0H1C0.447 0 0 0.447 0 1C0 1.553 0.447 2 1 2Z" transform="translate(8 23)" fill="#656C89"/>
<path d="M1 2H18C18.553 2 19 1.553 19 1C19 0.447 18.553 0 18 0H1C0.447 0 0 0.447 0 1C0 1.553 0.447 2 1 2Z" transform="translate(8 28)" fill="#656C89"/>
<path d="M1 2H9C9.553 2 10 1.553 10 1C10 0.447 9.553 0 9 0H1C0.447 0 0 0.447 0 1C0 1.553 0.447 2 1 2Z" transform="translate(8 41)" fill="#656C89"/>
<path d="M18 0H1C0.447 0 0 0.447 0 1C0 1.553 0.447 2 1 2H18C18.553 2 19 1.553 19 1C19 0.447 18.553 0 18 0Z" transform="translate(8 46)" fill="#656C89"/>
</svg>
