<svg width="60" height="60" viewBox="0 0 60 60" fill="none" xmlns="http://www.w3.org/2000/svg">
<path d="M4 0C1.794 0 0 1.794 0 4C0 6.206 1.794 8 4 8C6.206 8 8 6.206 8 4C8 1.794 6.206 0 4 0ZM4 6C2.897 6 2 5.103 2 4C2 2.897 2.897 2 4 2C5.103 2 6 2.897 6 4C6 5.103 5.103 6 4 6Z" transform="translate(3 3)" fill="#656C89"/>
<path d="M4 0C1.794 0 0 1.794 0 4C0 6.206 1.794 8 4 8C6.206 8 8 6.206 8 4C8 1.794 6.206 0 4 0ZM4 6C2.897 6 2 5.103 2 4C2 2.897 2.897 2 4 2C5.103 2 6 2.897 6 4C6 5.103 5.103 6 4 6Z" transform="translate(12 3)" fill="#656C89"/>
<path d="M4 0C1.794 0 0 1.794 0 4C0 6.206 1.794 8 4 8C6.206 8 8 6.206 8 4C8 1.794 6.206 0 4 0ZM4 6C2.897 6 2 5.103 2 4C2 2.897 2.897 2 4 2C5.103 2 6 2.897 6 4C6 5.103 5.103 6 4 6Z" transform="translate(21 3)" fill="#656C89"/>
<path d="M0 0V14V60H60V14V0H0ZM2 2H58V12H2V2ZM58 58H2V14H58V58Z" fill="#656C89"/>
<path d="M1 20C0.447 20 0 20.447 0 21C0 21.553 0.447 22 1 22H6V30H1C0.447 30 0 30.447 0 31C0 31.553 0.447 32 1 32H6V35C6 35.553 6.447 36 7 36C7.553 36 8 35.553 8 35V32H34V36C34 36.553 34.447 37 35 37C35.553 37 36 36.553 36 36V32H43C43.553 32 44 31.553 44 31C44 30.447 43.553 30 43 30H36V22H43C43.553 22 44 21.553 44 21C44 20.447 43.553 20 43 20H36V17C36 16.447 35.553 16 35 16C34.447 16 34 16.447 34 17V20H30.296C31.214 17.942 32.051 15.533 32.631 12.782C32.687 12.519 32.722 12.26 32.765 12H43C43.553 12 44 11.553 44 11C44 10.447 43.553 10 43 10H32.982C33.015 9.181 32.987 8.382 32.886 7.612C32.233 2.632 29.143 0 23.947 0C18.754 0 15.663 2.632 15.009 7.612C14.908 8.382 14.879 9.181 14.913 10H8V7C8 6.447 7.553 6 7 6C6.447 6 6 6.447 6 7V10H1C0.447 10 0 10.447 0 11C0 11.553 0.447 12 1 12H6V20H1ZM34 22V30H8V22H18.573C20.356 25.392 22.21 27.547 22.99 28.375C23.239 28.637 23.588 28.787 23.947 28.787C23.948 28.787 23.949 28.787 23.95 28.787C24.31 28.786 24.659 28.635 24.906 28.373C25.685 27.547 27.539 25.392 29.321 22H34ZM16.991 7.872C17.511 3.921 19.786 2 23.947 2C28.11 2 30.385 3.921 30.903 7.872C31.086 9.268 31.008 10.781 30.674 12.37C29.097 19.845 25.439 24.71 23.947 26.447C22.457 24.711 18.798 19.845 17.22 12.37C17.123 11.906 17.054 11.45 17 11C16.87 9.909 16.862 8.86 16.991 7.872ZM8 12H15.129C15.172 12.26 15.208 12.519 15.263 12.782C15.844 15.533 16.68 17.942 17.598 20H8V12Z" transform="translate(8 16)" fill="#656C89"/>
<path d="M4.66 9.32C7.229 9.32 9.32 7.229 9.32 4.66C9.32 2.091 7.229 0 4.66 0C2.091 0 0 2.091 0 4.66C0 7.229 2.091 9.32 4.66 9.32ZM4.66 1.999C6.127 1.999 7.32 3.192 7.32 4.659C7.32 6.126 6.127 7.319 4.66 7.319C3.193 7.319 2 6.126 2 4.659C2 3.192 3.193 1.999 4.66 1.999Z" transform="translate(27.2871 20.107)" fill="#656C89"/>
</svg>
