<svg width="60" height="60" viewBox="0 0 60 60" fill="none" xmlns="http://www.w3.org/2000/svg">
<path d="M1 0C0.448 0 0 0.447 0 1C0 1.553 0.448 2 1 2H15C15.552 2 16 1.553 16 1C16 0.447 15.552 0 15 0H1Z" transform="translate(22 47)" fill="#656C89"/>
<path d="M1 2H26C26.552 2 27 1.553 27 1C27 0.447 26.552 0 26 0H1C0.448 0 0 0.447 0 1C0 1.553 0.448 2 1 2Z" transform="translate(16 51)" fill="#656C89"/>
<path d="M4 0C1.794 0 0 1.794 0 4C0 6.206 1.794 8 4 8C6.206 8 8 6.206 8 4C8 1.794 6.206 0 4 0ZM4 6C2.897 6 2 5.103 2 4C2 2.897 2.897 2 4 2C5.103 2 6 2.897 6 4C6 5.103 5.103 6 4 6Z" transform="translate(3 3)" fill="#656C89"/>
<path d="M4 0C1.794 0 0 1.794 0 4C0 6.206 1.794 8 4 8C6.206 8 8 6.206 8 4C8 1.794 6.206 0 4 0ZM4 6C2.897 6 2 5.103 2 4C2 2.897 2.897 2 4 2C5.103 2 6 2.897 6 4C6 5.103 5.103 6 4 6Z" transform="translate(12 3)" fill="#656C89"/>
<path d="M4 0C1.794 0 0 1.794 0 4C0 6.206 1.794 8 4 8C6.206 8 8 6.206 8 4C8 1.794 6.206 0 4 0ZM4 6C2.897 6 2 5.103 2 4C2 2.897 2.897 2 4 2C5.103 2 6 2.897 6 4C6 5.103 5.103 6 4 6Z" transform="translate(21 3)" fill="#656C89"/>
<path d="M0 0V14V60H60V14V0H0ZM2 2H58V12H2V2ZM58 58H2V14H58V58Z" fill="#656C89"/>
<path d="M13 26C20.168 26 26 20.168 26 13C26 5.832 20.168 0 13 0C5.832 0 0 5.832 0 13C0 20.168 5.832 26 13 26ZM13 2C19.065 2 24 6.935 24 13C24 19.065 19.065 24 13 24C6.935 24 2 19.065 2 13C2 6.935 6.935 2 13 2Z" transform="translate(17 18)" fill="#656C89"/>
<path d="M5.29225 11.706C5.38425 11.799 5.49525 11.872 5.61825 11.923C5.74025 11.973 5.87025 12 6.00025 12C6.13025 12 6.26025 11.973 6.38225 11.923C6.50525 11.872 6.61525 11.799 6.70825 11.706L11.7073 6.707C12.0983 6.316 12.0983 5.684 11.7073 5.293C11.3163 4.902 10.6843 4.902 10.2933 5.293L7.00025 8.586V1C7.00025 0.447 6.55225 0 6.00025 0C5.44825 0 5.00025 0.447 5.00025 1V8.586L1.70725 5.293C1.31625 4.902 0.68425 4.902 0.29325 5.293C-0.09775 5.684 -0.09775 6.316 0.29325 6.707L5.29225 11.706Z" transform="translate(24 26)" fill="#656C89"/>
</svg>
