<svg width="60" height="60" viewBox="0 0 60 60" fill="none" xmlns="http://www.w3.org/2000/svg">
<path d="M4 0C1.794 0 0 1.794 0 4C0 6.206 1.794 8 4 8C6.206 8 8 6.206 8 4C8 1.794 6.206 0 4 0ZM4 6C2.897 6 2 5.103 2 4C2 2.897 2.897 2 4 2C5.103 2 6 2.897 6 4C6 5.103 5.103 6 4 6Z" transform="translate(3 3)" fill="#656C89"/>
<path d="M4 0C1.794 0 0 1.794 0 4C0 6.206 1.794 8 4 8C6.206 8 8 6.206 8 4C8 1.794 6.206 0 4 0ZM4 6C2.897 6 2 5.103 2 4C2 2.897 2.897 2 4 2C5.103 2 6 2.897 6 4C6 5.103 5.103 6 4 6Z" transform="translate(12 3)" fill="#656C89"/>
<path d="M4 0C1.794 0 0 1.794 0 4C0 6.206 1.794 8 4 8C6.206 8 8 6.206 8 4C8 1.794 6.206 0 4 0ZM4 6C2.897 6 2 5.103 2 4C2 2.897 2.897 2 4 2C5.103 2 6 2.897 6 4C6 5.103 5.103 6 4 6Z" transform="translate(21 3)" fill="#656C89"/>
<path d="M0 0V14V45.586V60H60V37.586V14V0H0ZM2 2H58V12H2V2ZM58 58H56C56 57.448 55.552 57 55 57C54.448 57 54 57.448 54 58H50C50 57.448 49.552 57 49 57C48.448 57 48 57.448 48 58H44C44 57.448 43.552 57 43 57C42.448 57 42 57.448 42 58H38C38 57.448 37.552 57 37 57C36.448 57 36 57.448 36 58H32C32 57.448 31.552 57 31 57C30.448 57 30 57.448 30 58H26C26 57.448 25.552 57 25 57C24.448 57 24 57.448 24 58H20C20 57.448 19.552 57 19 57C18.448 57 18 57.448 18 58H14C14 57.448 13.552 57 13 57C12.448 57 12 57.448 12 58H8C8 57.448 7.552 57 7 57C6.448 57 6 57.448 6 58H2V46.414L5.967 42.447C6.119 42.537 6.278 42.616 6.442 42.684C6.45 42.687 6.459 42.689 6.468 42.693C6.655 42.769 6.849 42.826 7.046 42.873C7.157 42.9 7.269 42.921 7.384 42.938C7.481 42.952 7.578 42.96 7.676 42.968C7.784 42.976 7.889 43 8 43C8.111 43 8.216 42.976 8.325 42.967C8.423 42.959 8.52 42.952 8.617 42.937C8.731 42.919 8.844 42.899 8.955 42.872C8.98 42.866 9.005 42.864 9.029 42.858C9.021 42.906 9 42.95 9 43C9 43.552 9.448 44 10 44C10.43 44 10.789 43.726 10.93 43.345L12.655 45.07C12.274 45.211 12 45.57 12 46C12 46.552 12.448 47 13 47C13.43 47 13.789 46.726 13.93 46.345L15.655 48.07C15.275 48.211 15 48.57 15 49C15 49.552 15.448 50 16 50C16.552 50 17 49.552 17 49C17 48.57 16.726 48.211 16.345 48.07L18.07 46.345C18.211 46.725 18.57 47 19 47C19.552 47 20 46.552 20 46C20 45.57 19.726 45.211 19.345 45.07L21.07 43.345C21.211 43.726 21.57 44 22 44C22.552 44 23 43.552 23 43C23 42.57 22.726 42.211 22.345 42.07L24.07 40.345C24.211 40.726 24.57 41 25 41C25.552 41 26 40.552 26 40C26 39.95 25.979 39.906 25.971 39.858C25.995 39.864 26.021 39.867 26.045 39.872C26.156 39.899 26.268 39.92 26.383 39.937C26.48 39.951 26.577 39.959 26.675 39.967C26.784 39.976 26.889 40 27 40C27.111 40 27.216 39.976 27.325 39.967C27.423 39.959 27.52 39.952 27.617 39.937C27.731 39.919 27.844 39.899 27.955 39.872C28.152 39.826 28.346 39.768 28.533 39.692C28.541 39.689 28.55 39.687 28.559 39.683C28.723 39.615 28.881 39.537 29.034 39.446L34 44.414L41.967 36.447C42.119 36.537 42.278 36.616 42.442 36.684C42.45 36.687 42.459 36.689 42.468 36.693C42.655 36.769 42.849 36.826 43.046 36.873C43.157 36.9 43.269 36.921 43.384 36.938C43.481 36.952 43.578 36.96 43.676 36.968C43.784 36.976 43.889 37 44 37C44.111 37 44.216 36.976 44.325 36.967C44.423 36.959 44.52 36.952 44.617 36.937C44.731 36.919 44.844 36.899 44.955 36.872C44.98 36.866 45.005 36.864 45.029 36.858C45.021 36.906 45 36.95 45 37C45 37.552 45.448 38 46 38C46.43 38 46.789 37.726 46.93 37.345L48.655 39.07C48.274 39.211 48 39.57 48 40C48 40.552 48.448 41 49 41C49.43 41 49.789 40.726 49.93 40.345L51.655 42.07C51.274 42.211 51 42.57 51 43C51 43.552 51.448 44 52 44C52.43 44 52.789 43.725 52.93 43.345L54.655 45.07C54.274 45.211 54 45.57 54 46C54 46.552 54.448 47 55 47C55.552 47 56 46.552 56 46C56 45.57 55.726 45.211 55.345 45.07L57.07 43.345C57.211 43.725 57.57 44 58 44V48C57.448 48 57 48.448 57 49C57 49.552 57.448 50 58 50V54C57.448 54 57 54.448 57 55C57 55.552 57.448 56 58 56V58ZM9.383 40.438C8.633 41.157 7.366 41.157 6.616 40.438C6.238 40.074 6 39.565 6 39C6 37.897 6.897 37 8 37C9.103 37 10 37.897 10 39C10 39.565 9.762 40.074 9.383 40.438ZM28.383 37.438C27.633 38.157 26.366 38.157 25.616 37.438C25.238 37.074 25 36.565 25 36C25 34.897 25.897 34 27 34C28.103 34 29 34.897 29 36C29 36.565 28.762 37.074 28.383 37.438ZM45.383 34.438C44.633 35.157 43.366 35.157 42.616 34.438C42.238 34.074 42 33.565 42 33C42 31.897 42.897 31 44 31C45.103 31 46 31.897 46 33C46 33.565 45.762 34.074 45.383 34.438ZM58 39.586L55 42.586L47.433 35.02C47.784 34.424 48 33.74 48 33C48 30.794 46.206 29 44 29C41.794 29 40 30.794 40 33C40 33.74 40.216 34.424 40.567 35.019L34 41.586L30.433 38.019C30.784 37.424 31 36.74 31 36C31 33.794 29.206 32 27 32C24.794 32 23 33.794 23 36C23 36.74 23.216 37.424 23.567 38.019L16 45.586L11.433 41.02C11.784 40.424 12 39.74 12 39C12 36.794 10.206 35 8 35C5.794 35 4 36.794 4 39C4 39.74 4.216 40.424 4.567 41.019L2 43.586V14H58V39.586Z" fill="#656C89"/>
<path d="M1 2H16C16.552 2 17 1.553 17 1C17 0.447 16.552 0 16 0H1C0.448 0 0 0.447 0 1C0 1.553 0.448 2 1 2Z" transform="translate(6 23)" fill="#656C89"/>
<path d="M1 2H10C10.552 2 11 1.553 11 1C11 0.447 10.552 0 10 0H1C0.448 0 0 0.447 0 1C0 1.553 0.448 2 1 2Z" transform="translate(9 19)" fill="#656C89"/>
<path d="M1 2H16C16.552 2 17 1.553 17 1C17 0.447 16.552 0 16 0H1C0.448 0 0 0.447 0 1C0 1.553 0.448 2 1 2Z" transform="translate(6 27)" fill="#656C89"/>
<path d="M1 2C1.55228 2 2 1.55228 2 1C2 0.447715 1.55228 0 1 0C0.447715 0 0 0.447715 0 1C0 1.55228 0.447715 2 1 2Z" transform="translate(54 51)" fill="#656C89"/>
<path d="M1 2C1.55228 2 2 1.55228 2 1C2 0.447715 1.55228 0 1 0C0.447715 0 0 0.447715 0 1C0 1.55228 0.447715 2 1 2Z" transform="translate(51 48)" fill="#656C89"/>
<path d="M1 2C1.55228 2 2 1.55228 2 1C2 0.447715 1.55228 0 1 0C0.447715 0 0 0.447715 0 1C0 1.55228 0.447715 2 1 2Z" transform="translate(51 54)" fill="#656C89"/>
<path d="M1 2C1.55228 2 2 1.55228 2 1C2 0.447715 1.55228 0 1 0C0.447715 0 0 0.447715 0 1C0 1.55228 0.447715 2 1 2Z" transform="translate(48 51)" fill="#656C89"/>
<path d="M1 2C1.55228 2 2 1.55228 2 1C2 0.447715 1.55228 0 1 0C0.447715 0 0 0.447715 0 1C0 1.55228 0.447715 2 1 2Z" transform="translate(45 48)" fill="#656C89"/>
<path d="M1 2C1.55228 2 2 1.55228 2 1C2 0.447715 1.55228 0 1 0C0.447715 0 0 0.447715 0 1C0 1.55228 0.447715 2 1 2Z" transform="translate(45 54)" fill="#656C89"/>
<path d="M1 2C1.55228 2 2 1.55228 2 1C2 0.447715 1.55228 0 1 0C0.447715 0 0 0.447715 0 1C0 1.55228 0.447715 2 1 2Z" transform="translate(42 51)" fill="#656C89"/>
<path d="M1 2C1.55228 2 2 1.55228 2 1C2 0.447715 1.55228 0 1 0C0.447715 0 0 0.447715 0 1C0 1.55228 0.447715 2 1 2Z" transform="translate(39 48)" fill="#656C89"/>
<path d="M1 2C1.55228 2 2 1.55228 2 1C2 0.447715 1.55228 0 1 0C0.447715 0 0 0.447715 0 1C0 1.55228 0.447715 2 1 2Z" transform="translate(39 54)" fill="#656C89"/>
<path d="M1 2C1.55228 2 2 1.55228 2 1C2 0.447715 1.55228 0 1 0C0.447715 0 0 0.447715 0 1C0 1.55228 0.447715 2 1 2Z" transform="translate(36 51)" fill="#656C89"/>
<path d="M1 2C1.55228 2 2 1.55228 2 1C2 0.447715 1.55228 0 1 0C0.447715 0 0 0.447715 0 1C0 1.55228 0.447715 2 1 2Z" transform="translate(33 48)" fill="#656C89"/>
<path d="M1 2C1.55228 2 2 1.55228 2 1C2 0.447715 1.55228 0 1 0C0.447715 0 0 0.447715 0 1C0 1.55228 0.447715 2 1 2Z" transform="translate(33 54)" fill="#656C89"/>
<path d="M1 2C1.55228 2 2 1.55228 2 1C2 0.447715 1.55228 0 1 0C0.447715 0 0 0.447715 0 1C0 1.55228 0.447715 2 1 2Z" transform="translate(30 51)" fill="#656C89"/>
<path d="M1 2C1.55228 2 2 1.55228 2 1C2 0.447715 1.55228 0 1 0C0.447715 0 0 0.447715 0 1C0 1.55228 0.447715 2 1 2Z" transform="translate(27 48)" fill="#656C89"/>
<path d="M1 2C1.55228 2 2 1.55228 2 1C2 0.447715 1.55228 0 1 0C0.447715 0 0 0.447715 0 1C0 1.55228 0.447715 2 1 2Z" transform="translate(27 54)" fill="#656C89"/>
<path d="M1 2C1.55228 2 2 1.55228 2 1C2 0.447715 1.55228 0 1 0C0.447715 0 0 0.447715 0 1C0 1.55228 0.447715 2 1 2Z" transform="translate(24 51)" fill="#656C89"/>
<path d="M1 2C1.55228 2 2 1.55228 2 1C2 0.447715 1.55228 0 1 0C0.447715 0 0 0.447715 0 1C0 1.55228 0.447715 2 1 2Z" transform="translate(21 48)" fill="#656C89"/>
<path d="M1 2C1.55228 2 2 1.55228 2 1C2 0.447715 1.55228 0 1 0C0.447715 0 0 0.447715 0 1C0 1.55228 0.447715 2 1 2Z" transform="translate(21 54)" fill="#656C89"/>
<path d="M1 2C1.55228 2 2 1.55228 2 1C2 0.447715 1.55228 0 1 0C0.447715 0 0 0.447715 0 1C0 1.55228 0.447715 2 1 2Z" transform="translate(18 51)" fill="#656C89"/>
<path d="M1 2C1.55228 2 2 1.55228 2 1C2 0.447715 1.55228 0 1 0C0.447715 0 0 0.447715 0 1C0 1.55228 0.447715 2 1 2Z" transform="translate(15 54)" fill="#656C89"/>
<path d="M1 2C1.55228 2 2 1.55228 2 1C2 0.447715 1.55228 0 1 0C0.447715 0 0 0.447715 0 1C0 1.55228 0.447715 2 1 2Z" transform="translate(12 51)" fill="#656C89"/>
<path d="M1 2C1.55228 2 2 1.55228 2 1C2 0.447715 1.55228 0 1 0C0.447715 0 0 0.447715 0 1C0 1.55228 0.447715 2 1 2Z" transform="translate(9 48)" fill="#656C89"/>
<path d="M1 2C1.55228 2 2 1.55228 2 1C2 0.447715 1.55228 0 1 0C0.447715 0 0 0.447715 0 1C0 1.55228 0.447715 2 1 2Z" transform="translate(9 54)" fill="#656C89"/>
<path d="M1 2C1.55228 2 2 1.55228 2 1C2 0.447715 1.55228 0 1 0C0.447715 0 0 0.447715 0 1C0 1.55228 0.447715 2 1 2Z" transform="translate(6 51)" fill="#656C89"/>
<path d="M1 2C1.55228 2 2 1.55228 2 1C2 0.447715 1.55228 0 1 0C0.447715 0 0 0.447715 0 1C0 1.55228 0.447715 2 1 2Z" transform="translate(3 48)" fill="#656C89"/>
<path d="M1 2C1.55228 2 2 1.55228 2 1C2 0.447715 1.55228 0 1 0C0.447715 0 0 0.447715 0 1C0 1.55228 0.447715 2 1 2Z" transform="translate(3 54)" fill="#656C89"/>
<path d="M1 2C1.55228 2 2 1.55228 2 1C2 0.447715 1.55228 0 1 0C0.447715 0 0 0.447715 0 1C0 1.55228 0.447715 2 1 2Z" transform="translate(45 42)" fill="#656C89"/>
<path d="M1 2C1.55228 2 2 1.55228 2 1C2 0.447715 1.55228 0 1 0C0.447715 0 0 0.447715 0 1C0 1.55228 0.447715 2 1 2Z" transform="translate(48 45)" fill="#656C89"/>
<path d="M1 2C1.55228 2 2 1.55228 2 1C2 0.447715 1.55228 0 1 0C0.447715 0 0 0.447715 0 1C0 1.55228 0.447715 2 1 2Z" transform="translate(42 39)" fill="#656C89"/>
<path d="M1 2C1.55228 2 2 1.55228 2 1C2 0.447715 1.55228 0 1 0C0.447715 0 0 0.447715 0 1C0 1.55228 0.447715 2 1 2Z" transform="translate(39 42)" fill="#656C89"/>
<path d="M1 2C1.55228 2 2 1.55228 2 1C2 0.447715 1.55228 0 1 0C0.447715 0 0 0.447715 0 1C0 1.55228 0.447715 2 1 2Z" transform="translate(42 45)" fill="#656C89"/>
<path d="M1 2C1.55228 2 2 1.55228 2 1C2 0.447715 1.55228 0 1 0C0.447715 0 0 0.447715 0 1C0 1.55228 0.447715 2 1 2Z" transform="translate(36 45)" fill="#656C89"/>
<path d="M1 2C1.55228 2 2 1.55228 2 1C2 0.447715 1.55228 0 1 0C0.447715 0 0 0.447715 0 1C0 1.55228 0.447715 2 1 2Z" transform="translate(27 42)" fill="#656C89"/>
<path d="M1 2C1.55228 2 2 1.55228 2 1C2 0.447715 1.55228 0 1 0C0.447715 0 0 0.447715 0 1C0 1.55228 0.447715 2 1 2Z" transform="translate(30 45)" fill="#656C89"/>
<path d="M1 2C1.55228 2 2 1.55228 2 1C2 0.447715 1.55228 0 1 0C0.447715 0 0 0.447715 0 1C0 1.55228 0.447715 2 1 2Z" transform="translate(24 45)" fill="#656C89"/>
<path d="M1 2C1.55228 2 2 1.55228 2 1C2 0.447715 1.55228 0 1 0C0.447715 0 0 0.447715 0 1C0 1.55228 0.447715 2 1 2Z" transform="translate(6 45)" fill="#656C89"/>
</svg>
