<svg width="60" height="60" viewBox="0 0 60 60" fill="none" xmlns="http://www.w3.org/2000/svg">
<path d="M14 2C14.552 2 15 1.553 15 1C15 0.447 14.552 0 14 0H1C0.448 0 0 0.447 0 1C0 1.553 0.448 2 1 2H14Z" transform="translate(22 47)" fill="#656C89"/>
<path d="M24 0H1C0.448 0 0 0.447 0 1C0 1.553 0.448 2 1 2H24C24.552 2 25 1.553 25 1C25 0.447 24.552 0 24 0Z" transform="translate(17 51)" fill="#656C89"/>
<path d="M4 0C1.794 0 0 1.794 0 4C0 6.206 1.794 8 4 8C6.206 8 8 6.206 8 4C8 1.794 6.206 0 4 0ZM4 6C2.897 6 2 5.103 2 4C2 2.897 2.897 2 4 2C5.103 2 6 2.897 6 4C6 5.103 5.103 6 4 6Z" transform="translate(3 3)" fill="#656C89"/>
<path d="M4 0C1.794 0 0 1.794 0 4C0 6.206 1.794 8 4 8C6.206 8 8 6.206 8 4C8 1.794 6.206 0 4 0ZM4 6C2.897 6 2 5.103 2 4C2 2.897 2.897 2 4 2C5.103 2 6 2.897 6 4C6 5.103 5.103 6 4 6Z" transform="translate(12 3)" fill="#656C89"/>
<path d="M4 0C1.794 0 0 1.794 0 4C0 6.206 1.794 8 4 8C6.206 8 8 6.206 8 4C8 1.794 6.206 0 4 0ZM4 6C2.897 6 2 5.103 2 4C2 2.897 2.897 2 4 2C5.103 2 6 2.897 6 4C6 5.103 5.103 6 4 6Z" transform="translate(21 3)" fill="#656C89"/>
<path d="M0 0V14V60H60V14V0H0ZM2 2H58V12H2V2ZM58 58H2V14H58V58Z" fill="#656C89"/>
<path d="M13 26C20.168 26 26 20.168 26 13C26 5.832 20.168 0 13 0C5.832 0 0 5.832 0 13C0 20.168 5.832 26 13 26ZM13 2C19.065 2 24 6.935 24 13C24 19.065 19.065 24 13 24C6.935 24 2 19.065 2 13C2 6.935 6.935 2 13 2Z" transform="translate(17 18)" fill="#656C89"/>
<path d="M4.29325 8.70725C4.48825 8.90225 4.74425 9.00025 5.00025 9.00025C5.25625 9.00025 5.51225 8.90225 5.70725 8.70725L12.7073 1.70725C13.0983 1.31625 13.0983 0.68425 12.7073 0.29325C12.3163 -0.09775 11.6843 -0.09775 11.2933 0.29325L5.00025 6.58625L1.70725 3.29325C1.31625 2.90225 0.68425 2.90225 0.29325 3.29325C-0.09775 3.68425 -0.09775 4.31625 0.29325 4.70725L4.29325 8.70725Z" transform="translate(24 26.9998)" fill="#656C89"/>
</svg>
