<svg width="60" height="60" viewBox="0 0 60 60" fill="none" xmlns="http://www.w3.org/2000/svg">
<path d="M14 2C14.552 2 15 1.553 15 1C15 0.447 14.552 0 14 0H1C0.448 0 0 0.447 0 1C0 1.553 0.448 2 1 2H14Z" transform="translate(22 46)" fill="#656C89"/>
<path d="M24 0H1C0.448 0 0 0.447 0 1C0 1.553 0.448 2 1 2H24C24.552 2 25 1.553 25 1C25 0.447 24.552 0 24 0Z" transform="translate(17 50)" fill="#656C89"/>
<path d="M4 0C1.794 0 0 1.794 0 4C0 6.206 1.794 8 4 8C6.206 8 8 6.206 8 4C8 1.794 6.206 0 4 0ZM4 6C2.897 6 2 5.103 2 4C2 2.897 2.897 2 4 2C5.103 2 6 2.897 6 4C6 5.103 5.103 6 4 6Z" transform="translate(3 3)" fill="#656C89"/>
<path d="M4 0C1.794 0 0 1.794 0 4C0 6.206 1.794 8 4 8C6.206 8 8 6.206 8 4C8 1.794 6.206 0 4 0ZM4 6C2.897 6 2 5.103 2 4C2 2.897 2.897 2 4 2C5.103 2 6 2.897 6 4C6 5.103 5.103 6 4 6Z" transform="translate(12 3)" fill="#656C89"/>
<path d="M4 0C1.794 0 0 1.794 0 4C0 6.206 1.794 8 4 8C6.206 8 8 6.206 8 4C8 1.794 6.206 0 4 0ZM4 6C2.897 6 2 5.103 2 4C2 2.897 2.897 2 4 2C5.103 2 6 2.897 6 4C6 5.103 5.103 6 4 6Z" transform="translate(21 3)" fill="#656C89"/>
<path d="M0 0V14V60H60V14V0H0ZM2 2H58V12H2V2ZM58 58H2V14H58V58Z" fill="#656C89"/>
<path d="M0.0769981 17.5904C0.601998 21.2434 3.892 23.9994 7.731 23.9994H28.252C32.377 23.9994 35.85 20.7584 35.992 16.7734C36.078 14.3794 35.001 12.0694 33.109 10.5904C33.042 10.5384 32.998 10.4234 32.998 10.2974V9.30137C32.998 4.56537 29.445 0.499372 24.909 0.0453724C21.898 -0.257628 18.948 0.970372 17.027 3.32737C16.905 3.47637 16.671 3.50637 16.504 3.39137C15.171 2.48037 13.614 1.99937 11.998 1.99937C7.629 1.99937 4.067 5.52037 3.999 9.87237C1.216 11.3474 -0.378002 14.4234 0.0769981 17.5904ZM5.407 11.4184L6.066 11.0674L6.015 10.3494C6.007 10.2334 5.998 10.1174 5.998 9.99937C5.998 6.69037 8.689 3.99937 11.998 3.99937C13.209 3.99937 14.376 4.35937 15.374 5.04337C16.394 5.73937 17.801 5.54237 18.576 4.59137C20.073 2.75637 22.368 1.80237 24.709 2.03537C28.236 2.38837 30.998 5.57937 30.998 9.30137V10.2974C30.998 11.0494 31.32 11.7324 31.88 12.1684C33.288 13.2694 34.059 14.9214 33.994 16.7014C33.89 19.6234 31.314 21.9994 28.253 21.9994H7.731C4.88 21.9994 2.44 19.9814 2.056 17.3054C1.697 14.8084 3.075 12.3874 5.407 11.4184Z" transform="translate(12.002 17.0006)" fill="#656C89"/>
</svg>
