<svg width="60" height="60" viewBox="0 0 60 60" fill="none" xmlns="http://www.w3.org/2000/svg">
<path d="M6 12C9.309 12 12 9.309 12 6C12 2.691 9.309 0 6 0C2.691 0 0 2.691 0 6C0 9.309 2.691 12 6 12ZM6 2C8.206 2 10 3.794 10 6C10 8.206 8.206 10 6 10C3.794 10 2 8.206 2 6C2 3.794 3.794 2 6 2Z" transform="translate(9 26)" fill="#656C89"/>
<path d="M0 0V12V14V19V60H60V19V14V12V0H0ZM2 17V14H35V17H2ZM58 58H2V19H58V58ZM58 17H37V14H58V17ZM2 12V2H58V12H2Z" fill="#656C89"/>
<path d="M6 0L3.707 2.293L1.414 0L0 1.414L2.293 3.707L0 6L1.414 7.414L3.707 5.121L6 7.414L7.414 6L5.121 3.707L7.414 1.414L6 0Z" transform="translate(48.293 3.293)" fill="#656C89"/>
<path d="M1 2H23C23.552 2 24 1.553 24 1C24 0.447 23.552 0 23 0H1C0.448 0 0 0.447 0 1C0 1.553 0.448 2 1 2Z" transform="translate(24 32)" fill="#656C89"/>
<path d="M1 2H23C23.552 2 24 1.553 24 1C24 0.447 23.552 0 23 0H1C0.448 0 0 0.447 0 1C0 1.553 0.448 2 1 2Z" transform="translate(24 38)" fill="#656C89"/>
<path d="M1 2H10C10.552 2 11 1.553 11 1C11 0.447 10.552 0 10 0H1C0.448 0 0 0.447 0 1C0 1.553 0.448 2 1 2Z" transform="translate(24 26)" fill="#656C89"/>
<path d="M1 1.9875C1.26 1.9875 1.52 1.8775 1.71 1.6975C1.89 1.5075 2 1.2475 2 0.987499C2 0.727499 1.89 0.4665 1.71 0.2775C1.34 -0.0925 0.660001 -0.0925 0.290001 0.2775C0.110001 0.4665 0 0.727499 0 0.987499C0 1.2475 0.110001 1.5075 0.290001 1.6975C0.480001 1.8775 0.74 1.9875 1 1.9875Z" transform="translate(37 26.0125)" fill="#656C89"/>
</svg>
