<svg width="60" height="60" viewBox="0 0 60 60" fill="none" xmlns="http://www.w3.org/2000/svg">
<path d="M4 0C1.794 0 0 1.794 0 4C0 6.206 1.794 8 4 8C6.206 8 8 6.206 8 4C8 1.794 6.206 0 4 0ZM4 6C2.897 6 2 5.103 2 4C2 2.897 2.897 2 4 2C5.103 2 6 2.897 6 4C6 5.103 5.103 6 4 6Z" transform="translate(3 3)" fill="#656C89"/>
<path d="M4 0C1.794 0 0 1.794 0 4C0 6.206 1.794 8 4 8C6.206 8 8 6.206 8 4C8 1.794 6.206 0 4 0ZM4 6C2.897 6 2 5.103 2 4C2 2.897 2.897 2 4 2C5.103 2 6 2.897 6 4C6 5.103 5.103 6 4 6Z" transform="translate(12 3)" fill="#656C89"/>
<path d="M4 0C1.794 0 0 1.794 0 4C0 6.206 1.794 8 4 8C6.206 8 8 6.206 8 4C8 1.794 6.206 0 4 0ZM4 6C2.897 6 2 5.103 2 4C2 2.897 2.897 2 4 2C5.103 2 6 2.897 6 4C6 5.103 5.103 6 4 6Z" transform="translate(21 3)" fill="#656C89"/>
<path d="M0 0V12V14V38V60H60V38V14V12V0H0ZM58 58H2V38H58V58ZM58 36H2V14H58V36ZM2 12V2H58V12H2Z" fill="#656C89"/>
<path d="M14 0H0V7H14V0ZM12 5H2V2H12V5Z" transform="translate(6 40)" fill="#656C89"/>
<path d="M14 0H0V7H14V0ZM12 5H2V2H12V5Z" transform="translate(40 40)" fill="#656C89"/>
<path d="M14 0H0V7H14V0ZM12 5H2V2H12V5Z" transform="translate(23 40)" fill="#656C89"/>
<path d="M1 2H13C13.553 2 14 1.552 14 1C14 0.448 13.553 0 13 0H1C0.447 0 0 0.448 0 1C0 1.552 0.447 2 1 2Z" transform="translate(6 49)" fill="#656C89"/>
<path d="M13 0H1C0.447 0 0 0.448 0 1C0 1.552 0.447 2 1 2H13C13.553 2 14 1.552 14 1C14 0.448 13.553 0 13 0Z" transform="translate(6 53)" fill="#656C89"/>
<path d="M1 2H13C13.553 2 14 1.552 14 1C14 0.448 13.553 0 13 0H1C0.447 0 0 0.448 0 1C0 1.552 0.447 2 1 2Z" transform="translate(23 49)" fill="#656C89"/>
<path d="M1 2H13C13.553 2 14 1.552 14 1C14 0.448 13.553 0 13 0H1C0.447 0 0 0.448 0 1C0 1.552 0.447 2 1 2Z" transform="translate(23 53)" fill="#656C89"/>
<path d="M1 2H13C13.553 2 14 1.552 14 1C14 0.448 13.553 0 13 0H1C0.447 0 0 0.448 0 1C0 1.552 0.447 2 1 2Z" transform="translate(40 49)" fill="#656C89"/>
<path d="M1 2H13C13.553 2 14 1.552 14 1C14 0.448 13.553 0 13 0H1C0.447 0 0 0.448 0 1C0 1.552 0.447 2 1 2Z" transform="translate(40 53)" fill="#656C89"/>
<path d="M0.875999 9.50875C1.148 9.66575 1.447 9.74375 1.745 9.74375C2.048 9.74375 2.349 9.66375 2.625 9.50375L8.022 6.35575C8.566 6.03775 8.889 5.47275 8.887 4.84175C8.885 4.21175 8.558 3.64875 8.011 3.33475L2.614 0.234753C2.065 -0.0792468 1.413 -0.0782485 0.870001 0.237752C0.325001 0.552752 0 1.11775 0 1.74775V7.99675C0 8.62875 0.326999 9.19375 0.875999 9.50875ZM2 2.18775L6.635 4.84975L2 7.55275V2.18775Z" transform="translate(26 20.1283)" fill="#656C89"/>
</svg>
