<svg width="60" height="60" viewBox="0 0 60 60" fill="none" xmlns="http://www.w3.org/2000/svg">
<path d="M4 0C1.794 0 0 1.794 0 4C0 6.206 1.794 8 4 8C6.206 8 8 6.206 8 4C8 1.794 6.206 0 4 0ZM4 6C2.897 6 2 5.103 2 4C2 2.897 2.897 2 4 2C5.103 2 6 2.897 6 4C6 5.103 5.103 6 4 6Z" transform="translate(3 3)" fill="#656C89"/>
<path d="M4 0C1.794 0 0 1.794 0 4C0 6.206 1.794 8 4 8C6.206 8 8 6.206 8 4C8 1.794 6.206 0 4 0ZM4 6C2.897 6 2 5.103 2 4C2 2.897 2.897 2 4 2C5.103 2 6 2.897 6 4C6 5.103 5.103 6 4 6Z" transform="translate(12 3)" fill="#656C89"/>
<path d="M4 0C1.794 0 0 1.794 0 4C0 6.206 1.794 8 4 8C6.206 8 8 6.206 8 4C8 1.794 6.206 0 4 0ZM4 6C2.897 6 2 5.103 2 4C2 2.897 2.897 2 4 2C5.103 2 6 2.897 6 4C6 5.103 5.103 6 4 6Z" transform="translate(21 3)" fill="#656C89"/>
<path d="M0 0V14V60H60V14V0H0ZM2 2H58V12H2V2ZM58 58H2V14H58V58Z" fill="#656C89"/>
<path d="M50 38V0H0V38H50ZM2 2H48V36H2V2Z" transform="translate(5 17)" fill="#656C89"/>
<path d="M12.537 7.15649L1.537 0.156488C1.228 -0.0405116 0.839 -0.0515125 0.518 0.123487C0.199 0.299487 0 0.635488 0 1.00049V15.0005C0 15.3655 0.198999 15.7015 0.518999 15.8765C0.668999 15.9595 0.835 16.0005 1 16.0005C1.187 16.0005 1.373 15.9485 1.537 15.8445L12.537 8.84449C12.825 8.66049 13 8.34249 13 8.00049C13 7.65849 12.825 7.34049 12.537 7.15649ZM2 13.1785V2.82249L10.138 8.00049L2 13.1785Z" transform="translate(25 28.4995)" fill="#656C89"/>
</svg>
