<svg width="60" height="60" viewBox="0 0 60 60" fill="none" xmlns="http://www.w3.org/2000/svg">
<path d="M4 0C1.794 0 0 1.794 0 4C0 6.206 1.794 8 4 8C6.206 8 8 6.206 8 4C8 1.794 6.206 0 4 0ZM4 6C2.897 6 2 5.103 2 4C2 2.897 2.897 2 4 2C5.103 2 6 2.897 6 4C6 5.103 5.103 6 4 6Z" transform="translate(3 3)" fill="#656C89"/>
<path d="M4 0C1.794 0 0 1.794 0 4C0 6.206 1.794 8 4 8C6.206 8 8 6.206 8 4C8 1.794 6.206 0 4 0ZM4 6C2.897 6 2 5.103 2 4C2 2.897 2.897 2 4 2C5.103 2 6 2.897 6 4C6 5.103 5.103 6 4 6Z" transform="translate(12 3)" fill="#656C89"/>
<path d="M4 0C1.794 0 0 1.794 0 4C0 6.206 1.794 8 4 8C6.206 8 8 6.206 8 4C8 1.794 6.206 0 4 0ZM4 6C2.897 6 2 5.103 2 4C2 2.897 2.897 2 4 2C5.103 2 6 2.897 6 4C6 5.103 5.103 6 4 6Z" transform="translate(21 3)" fill="#656C89"/>
<path d="M0 0V14V60H60V14V0H0ZM2 2H58V12H2V2ZM58 58H2V14H58V58Z" fill="#656C89"/>
<path d="M1 0C0.447 0 0 0.447 0 1V3C0 3.553 0.447 4 1 4C1.553 4 2 3.553 2 3V1C2 0.447 1.553 0 1 0Z" transform="translate(50 40)" fill="#656C89"/>
<path d="M1 0C0.447 0 0 0.447 0 1V3C0 3.553 0.447 4 1 4C1.553 4 2 3.553 2 3V1C2 0.447 1.553 0 1 0Z" transform="translate(50 28)" fill="#656C89"/>
<path d="M1 2H3C3.553 2 4 1.553 4 1C4 0.447 3.553 0 3 0H1C0.447 0 0 0.447 0 1C0 1.553 0.447 2 1 2Z" transform="translate(46 20)" fill="#656C89"/>
<path d="M0 3C0 3.553 0.447 4 1 4C1.553 4 2 3.553 2 3V1C2 0.447 1.553 0 1 0C0.447 0 0 0.447 0 1V3Z" transform="translate(50 22)" fill="#656C89"/>
<path d="M1 0C0.447 0 0 0.447 0 1V3C0 3.553 0.447 4 1 4C1.553 4 2 3.553 2 3V1C2 0.447 1.553 0 1 0Z" transform="translate(50 34)" fill="#656C89"/>
<path d="M3 0H1C0.447 0 0 0.447 0 1C0 1.553 0.447 2 1 2H3C3.553 2 4 1.553 4 1C4 0.447 3.553 0 3 0Z" transform="translate(30 50)" fill="#656C89"/>
<path d="M3 0H1C0.447 0 0 0.447 0 1C0 1.553 0.447 2 1 2H3C3.553 2 4 1.553 4 1C4 0.447 3.553 0 3 0Z" transform="translate(24 50)" fill="#656C89"/>
<path d="M1 0C0.447 0 0 0.447 0 1V3C0 3.553 0.447 4 1 4C1.553 4 2 3.553 2 3V1C2 0.447 1.553 0 1 0Z" transform="translate(50 46)" fill="#656C89"/>
<path d="M0 1C0 1.553 0.447 2 1 2H3C3.553 2 4 1.553 4 1C4 0.447 3.553 0 3 0H1C0.447 0 0 0.447 0 1Z" transform="translate(48 50)" fill="#656C89"/>
<path d="M1 2H3C3.553 2 4 1.553 4 1C4 0.447 3.553 0 3 0H1C0.447 0 0 0.447 0 1C0 1.553 0.447 2 1 2Z" transform="translate(10 20)" fill="#656C89"/>
<path d="M1 4C1.553 4 2 3.553 2 3V1C2 0.447 1.553 0 1 0C0.447 0 0 0.447 0 1V3C0 3.553 0.447 4 1 4Z" transform="translate(9 23)" fill="#656C89"/>
<path d="M0 1C0 1.553 0.447 2 1 2H3C3.553 2 4 1.553 4 1C4 0.447 3.553 0 3 0H1C0.447 0 0 0.447 0 1Z" transform="translate(42 50)" fill="#656C89"/>
<path d="M0 1C0 1.553 0.447 2 1 2H3C3.553 2 4 1.553 4 1C4 0.447 3.553 0 3 0H1C0.447 0 0 0.447 0 1Z" transform="translate(12 50)" fill="#656C89"/>
<path d="M1 4C1.553 4 2 3.553 2 3V1C2 0.447 1.553 0 1 0C0.447 0 0 0.447 0 1V3C0 3.553 0.447 4 1 4Z" transform="translate(9 29)" fill="#656C89"/>
<path d="M1 4C1.553 4 2 3.553 2 3V1C2 0.447 1.553 0 1 0C0.447 0 0 0.447 0 1V3C0 3.553 0.447 4 1 4Z" transform="translate(9 47)" fill="#656C89"/>
<path d="M1 4C1.553 4 2 3.553 2 3V1C2 0.447 1.553 0 1 0C0.447 0 0 0.447 0 1V3C0 3.553 0.447 4 1 4Z" transform="translate(9 35)" fill="#656C89"/>
<path d="M1 4C1.553 4 2 3.553 2 3V1C2 0.447 1.553 0 1 0C0.447 0 0 0.447 0 1V3C0 3.553 0.447 4 1 4Z" transform="translate(9 41)" fill="#656C89"/>
<path d="M1 2H3C3.553 2 4 1.553 4 1C4 0.447 3.553 0 3 0H1C0.447 0 0 0.447 0 1C0 1.553 0.447 2 1 2Z" transform="translate(16 20)" fill="#656C89"/>
<path d="M1 0C0.447 0 0 0.447 0 1C0 1.553 0.447 2 1 2H3C3.553 2 4 1.553 4 1C4 0.447 3.553 0 3 0H1Z" transform="translate(36 50)" fill="#656C89"/>
<path d="M1 2H3C3.553 2 4 1.553 4 1C4 0.447 3.553 0 3 0H1C0.447 0 0 0.447 0 1C0 1.553 0.447 2 1 2Z" transform="translate(40 20)" fill="#656C89"/>
<path d="M1 2H3C3.553 2 4 1.553 4 1C4 0.447 3.553 0 3 0H1C0.447 0 0 0.447 0 1C0 1.553 0.447 2 1 2Z" transform="translate(34 20)" fill="#656C89"/>
<path d="M1 2H3C3.553 2 4 1.553 4 1C4 0.447 3.553 0 3 0H1C0.447 0 0 0.447 0 1C0 1.553 0.447 2 1 2Z" transform="translate(22 20)" fill="#656C89"/>
<path d="M1 2H3C3.553 2 4 1.553 4 1C4 0.447 3.553 0 3 0H1C0.447 0 0 0.447 0 1C0 1.553 0.447 2 1 2Z" transform="translate(28 20)" fill="#656C89"/>
<path d="M0 1C0 1.553 0.447 2 1 2H3C3.553 2 4 1.553 4 1C4 0.447 3.553 0 3 0H1C0.447 0 0 0.447 0 1Z" transform="translate(18 50)" fill="#656C89"/>
<path d="M1 10H8V17C8 17.553 8.447 18 9 18C9.553 18 10 17.553 10 17V10H17C17.553 10 18 9.553 18 9C18 8.447 17.553 8 17 8H10V1C10 0.447 9.553 0 9 0C8.447 0 8 0.447 8 1V8H1C0.447 8 0 8.447 0 9C0 9.553 0.447 10 1 10Z" transform="translate(21 27)" fill="#656C89"/>
</svg>
