<svg width="60" height="58" viewBox="0 0 60 58" fill="none" xmlns="http://www.w3.org/2000/svg">
<path d="M0 0V58H60V0H0ZM58 56H2V2H58V56Z" fill="#656C89"/>
<path d="M10 42H1C0.447 42 0 42.447 0 43C0 43.553 0.447 44 1 44H10C11.2 44 12.266 43.458 13 42.618C13.734 43.458 14.8 44 16 44H25C25.553 44 26 43.553 26 43C26 42.447 25.553 42 25 42H16C14.897 42 14 41.103 14 40V22H18C18.553 22 19 21.553 19 21C19 20.447 18.553 20 18 20H14V4C14 2.897 14.897 2 16 2H25C25.553 2 26 1.553 26 1C26 0.447 25.553 0 25 0H16C14.8 0 13.734 0.542 13 1.382C12.266 0.542 11.2 0 10 0H1C0.447 0 0 0.447 0 1C0 1.553 0.447 2 1 2H10C11.103 2 12 2.897 12 4V20H8C7.447 20 7 20.447 7 21C7 21.553 7.447 22 8 22H12V40C12 41.103 11.103 42 10 42Z" transform="translate(17 7)" fill="#656C89"/>
</svg>
