<svg width="60" height="60" viewBox="0 0 60 60" fill="none" xmlns="http://www.w3.org/2000/svg">
<path d="M1 13H7V21C7 21.552 7.448 22 8 22C8.552 22 9 21.552 9 21V13H12C12.552 13 13 12.552 13 12C13 11.448 12.552 11 12 11H9V9C9 8.448 8.552 8 8 8C7.448 8 7 8.448 7 9V11H2V1C2 0.448 1.552 0 1 0C0.448 0 0 0.448 0 1V12C0 12.552 0.448 13 1 13Z" transform="translate(8 26)" fill="#656C89"/>
<path d="M1 13H7V21C7 21.552 7.448 22 8 22C8.552 22 9 21.552 9 21V13H12C12.552 13 13 12.552 13 12C13 11.448 12.552 11 12 11H9V9C9 8.448 8.552 8 8 8C7.448 8 7 8.448 7 9V11H2V1C2 0.448 1.552 0 1 0C0.448 0 0 0.448 0 1V12C0 12.552 0.448 13 1 13Z" transform="translate(39 26)" fill="#656C89"/>
<path d="M6.5 22C10.084 22 13 19.084 13 15.5V6.5C13 2.916 10.084 0 6.5 0C2.916 0 0 2.916 0 6.5V15.5C0 19.084 2.916 22 6.5 22ZM2 6.5C2 4.019 4.019 2 6.5 2C8.981 2 11 4.019 11 6.5V15.5C11 17.981 8.981 20 6.5 20C4.019 20 2 17.981 2 15.5V6.5Z" transform="translate(23 26)" fill="#656C89"/>
<path d="M0 0V14V60H60V14V0H0ZM2 2H58V12H2V2ZM58 58H2V14H58V58Z" fill="#656C89"/>
<path d="M6 0L3.707 2.293L1.414 0L0 1.414L2.293 3.707L0 6L1.414 7.414L3.707 5.121L6 7.414L7.414 6L5.121 3.707L7.414 1.414L6 0Z" transform="translate(48.293 3.293)" fill="#656C89"/>
<path d="M0 8H39V0H0V8ZM2 2H37V6H2V2Z" transform="translate(3 3)" fill="#656C89"/>
</svg>
