<svg width="60" height="59" viewBox="0 0 60 59" fill="none" xmlns="http://www.w3.org/2000/svg">
<path d="M0 0V59H60V0H0ZM58 57H2V2H58V57Z" fill="#656C89"/>
<path d="M0.782448 5.978C0.855448 5.994 0.928447 6.001 1.00045 6.001C1.45845 6.001 1.87245 5.684 1.97645 5.218L2.69145 2.001H14.6424L7.08645 36.001H1.88845C1.33545 36.001 0.888448 36.448 0.888448 37.001C0.888448 37.554 1.33545 38.001 1.88845 38.001H13.8884C14.4414 38.001 14.8884 37.554 14.8884 37.001C14.8884 36.448 14.4414 36.001 13.8884 36.001H9.13545L16.6914 2.001H28.6424L28.0244 4.784C27.9054 5.323 28.2454 5.857 28.7844 5.977C28.8574 5.993 28.9304 6 29.0024 6C29.4604 6 29.8744 5.683 29.9784 5.217L30.8674 1.217C30.8754 1.179 30.8654 1.144 30.8694 1.106C30.8734 1.07 30.8904 1.038 30.8904 1C30.8904 0.969 30.8754 0.942001 30.8724 0.912001C30.8664 0.843001 30.8524 0.779001 30.8324 0.714001C30.8134 0.652001 30.7934 0.595001 30.7634 0.539001C30.7334 0.483001 30.6984 0.434001 30.6594 0.384001C30.6184 0.333001 30.5774 0.287001 30.5274 0.245001C30.4804 0.205001 30.4294 0.173 30.3734 0.142C30.3144 0.108 30.2554 0.0810004 30.1894 0.0600004C30.1594 0.0500004 30.1374 0.0300007 30.1064 0.0230007C30.0704 0.0160007 30.0364 0.0250003 30.0004 0.0220003C29.9624 0.0180003 29.9284 0 29.8894 0H1.88945C1.85445 0 1.82445 0.0170005 1.78945 0.0200005C1.73245 0.0260005 1.67945 0.0380005 1.62445 0.0530005C1.55045 0.0740004 1.48145 0.0980002 1.41545 0.135C1.36945 0.16 1.32945 0.189001 1.28845 0.221001C1.23045 0.266001 1.17745 0.313 1.13045 0.369C1.09245 0.413 1.06345 0.461 1.03445 0.512C0.999448 0.573 0.971448 0.633 0.950448 0.701C0.941448 0.73 0.920447 0.753 0.913447 0.783L0.0244474 4.783C-0.0965526 5.323 0.243448 5.857 0.782448 5.978Z" transform="translate(15.001 10.999)" fill="#656C89"/>
</svg>
