<svg width="60" height="59" viewBox="0 0 60 59" fill="none" xmlns="http://www.w3.org/2000/svg">
<path d="M0 0V59H60V0H0ZM58 57H2V2H58V57Z" fill="#656C89"/>
<path d="M5 10C7.757 10 10 7.757 10 5C10 2.243 7.757 0 5 0C2.243 0 0 2.243 0 5C0 7.757 2.243 10 5 10ZM5 2C6.654 2 8 3.346 8 5C8 6.654 6.654 8 5 8C3.346 8 2 6.654 2 5C2 3.346 3.346 2 5 2Z" transform="translate(10 9)" fill="#656C89"/>
<path d="M5 10C7.757 10 10 7.757 10 5C10 2.243 7.757 0 5 0C2.243 0 0 2.243 0 5C0 7.757 2.243 10 5 10ZM5 2C6.654 2 8 3.346 8 5C8 6.654 6.654 8 5 8C3.346 8 2 6.654 2 5C2 3.346 3.346 2 5 2Z" transform="translate(10 25)" fill="#656C89"/>
<path d="M5 10C7.757 10 10 7.757 10 5C10 2.243 7.757 0 5 0C2.243 0 0 2.243 0 5C0 7.757 2.243 10 5 10ZM5 2C6.654 2 8 3.346 8 5C8 6.654 6.654 8 5 8C3.346 8 2 6.654 2 5C2 3.346 3.346 2 5 2Z" transform="translate(10 41)" fill="#656C89"/>
<path d="M1 2H24C24.552 2 25 1.553 25 1C25 0.447 24.552 0 24 0H1C0.448 0 0 0.447 0 1C0 1.553 0.448 2 1 2Z" transform="translate(24 13)" fill="#656C89"/>
<path d="M1 2H24C24.552 2 25 1.553 25 1C25 0.447 24.552 0 24 0H1C0.448 0 0 0.447 0 1C0 1.553 0.448 2 1 2Z" transform="translate(24 29)" fill="#656C89"/>
<path d="M1 2H24C24.552 2 25 1.553 25 1C25 0.447 24.552 0 24 0H1C0.448 0 0 0.447 0 1C0 1.553 0.448 2 1 2Z" transform="translate(24 45)" fill="#656C89"/>
</svg>
