<svg width="59" height="59" viewBox="0 0 59 59" fill="none" xmlns="http://www.w3.org/2000/svg">
<path d="M0 0V59H59V0H0ZM57 57H2V2H57V57Z" fill="#656C89"/>
<path d="M1 6C1.552 6 2 5.553 2 5V2H14V36H9C8.448 36 8 36.447 8 37C8 37.553 8.448 38 9 38H21C21.552 38 22 37.553 22 37C22 36.447 21.552 36 21 36H16V2H28V5C28 5.553 28.448 6 29 6C29.552 6 30 5.553 30 5V1C30 0.447 29.552 0 29 0H1C0.448 0 0 0.447 0 1V5C0 5.553 0.448 6 1 6Z" transform="translate(8 11)" fill="#656C89"/>
<path d="M0 1V3C0 3.553 0.448 4 1 4C1.552 4 2 3.553 2 3V2H8V21H5C4.448 21 4 21.447 4 22C4 22.553 4.448 23 5 23H13C13.552 23 14 22.553 14 22C14 21.447 13.552 21 13 21H10V2H16V3C16 3.553 16.448 4 17 4C17.552 4 18 3.553 18 3V1C18 0.447 17.552 0 17 0H1C0.448 0 0 0.447 0 1Z" transform="translate(33 26)" fill="#656C89"/>
</svg>
