<svg width="60" height="59" viewBox="0 0 60 59" fill="none" xmlns="http://www.w3.org/2000/svg">
<path d="M0 0V59H60V0H0ZM58 57H2V2H58V57Z" fill="#656C89"/>
<path d="M0.657517 34.929C0.770517 34.97 0.886517 34.99 0.999517 34.99C1.40752 34.99 1.79152 34.738 1.93852 34.332L6.06352 22.99H19.9365L24.0605 34.332C24.2075 34.738 24.5915 34.99 24.9995 34.99C25.1125 34.99 25.2285 34.97 25.3415 34.929C25.8605 34.741 26.1285 34.167 25.9395 33.648L13.9395 0.648C13.9345 0.634 13.9225 0.625 13.9175 0.612C13.8905 0.546 13.8475 0.49 13.8065 0.431C13.7725 0.382 13.7445 0.33 13.7025 0.288C13.6605 0.246 13.6085 0.218 13.5595 0.184C13.5005 0.143 13.4445 0.100999 13.3785 0.0739994C13.3645 0.0679994 13.3555 0.0569996 13.3415 0.0509996C13.2975 0.0349996 13.2525 0.0410001 13.2085 0.0310001C13.1385 0.0160001 13.0715 0 12.9985 0C12.9285 0 12.8645 0.0159997 12.7975 0.0299997C12.7505 0.0399997 12.7045 0.0339996 12.6585 0.0509996C12.6435 0.0559996 12.6345 0.0679994 12.6205 0.0739994C12.5565 0.0999994 12.5025 0.142 12.4455 0.181C12.3945 0.216 12.3405 0.245 12.2975 0.288C12.2565 0.329 12.2285 0.38 12.1955 0.429C12.1535 0.489 12.1115 0.545 12.0835 0.612C12.0775 0.625 12.0665 0.634 12.0615 0.648L0.0615173 33.648C-0.129483 34.168 0.139517 34.741 0.657517 34.929ZM6.79052 20.99L12.9995 3.915L19.2085 20.99H6.79052Z" transform="translate(6 12.01)" fill="#656C89"/>
<path d="M0.645384 22.928C0.762384 22.972 0.883383 22.993 1.00138 22.993C1.40338 22.993 1.78338 22.748 1.93638 22.349L4.73838 14.993H13.2644L16.0664 22.349C16.2194 22.748 16.5994 22.993 17.0014 22.993C17.1194 22.993 17.2404 22.972 17.3574 22.928C17.8734 22.732 18.1314 22.154 17.9354 21.637L9.93538 0.636999C9.93138 0.627999 9.92338 0.622001 9.91938 0.613001C9.89038 0.543001 9.84338 0.485 9.79938 0.423C9.76738 0.378 9.74338 0.328001 9.70538 0.290001C9.66438 0.249001 9.60939 0.222999 9.56139 0.188999C9.50239 0.147999 9.44739 0.102001 9.38039 0.0750008C9.37139 0.0710008 9.36538 0.0639995 9.35638 0.0599995C9.30938 0.0419995 9.26139 0.0469993 9.21339 0.0359993C9.14239 0.0199993 9.07338 0 8.99938 0C8.92438 0 8.85438 0.0199993 8.78238 0.0359993C8.73638 0.0459993 8.68938 0.042 8.64338 0.059C8.63438 0.062 8.62938 0.07 8.62038 0.073C8.55038 0.102 8.49139 0.149 8.42939 0.194C8.38439 0.226 8.33338 0.25 8.29538 0.288C8.25538 0.328 8.23038 0.38 8.19738 0.427C8.15538 0.487 8.10838 0.544 8.08038 0.612C8.07638 0.621 8.06838 0.626999 8.06438 0.636999L0.064383 21.637C-0.129617 22.153 0.129384 22.731 0.645384 22.928ZM5.50038 12.993L9.00138 3.803L12.5024 12.993H5.50038Z" transform="translate(34.999 24.007)" fill="#656C89"/>
<path d="M5.29225 11.706C5.38425 11.799 5.49525 11.872 5.61825 11.923C5.74025 11.974 5.87025 12 6.00025 12C6.13025 12 6.26025 11.974 6.38225 11.923C6.50525 11.872 6.61625 11.799 6.70825 11.706L11.7073 6.707C12.0983 6.316 12.0983 5.684 11.7073 5.293C11.3163 4.902 10.6843 4.902 10.2933 5.293L7.00025 8.586V1C7.00025 0.447 6.55325 0 6.00025 0C5.44725 0 5.00025 0.447 5.00025 1V8.586L1.70725 5.293C1.31625 4.902 0.68425 4.902 0.29325 5.293C-0.09775 5.684 -0.09775 6.316 0.29325 6.707L5.29225 11.706Z" transform="translate(38 9)" fill="#656C89"/>
</svg>
