<svg width="59" height="59" viewBox="0 0 59 59" fill="none" xmlns="http://www.w3.org/2000/svg">
<path d="M0 0V59H59V0H0ZM57 57H2V2H57V57Z" fill="#656C89"/>
<path d="M6.5 21C10.084 21 13 18.084 13 14.5C13 10.916 10.084 8 6.5 8C5.264 8 4.112 8.353 3.127 8.954C5.038 4.854 9.187 2 14 2C14.553 2 15 1.553 15 1C15 0.447 14.553 0 14 0C6.28 0 0 6.28 0 14C0 14.036 0.0170005 14.066 0.0200005 14.1C0.0120005 14.233 0 14.365 0 14.5C0 18.084 2.916 21 6.5 21ZM6.5 10C8.981 10 11 12.019 11 14.5C11 16.981 8.981 19 6.5 19C4.019 19 2 16.981 2 14.5C2 12.019 4.019 10 6.5 10Z" transform="translate(13 18)" fill="#656C89"/>
<path d="M6.5 21C10.084 21 13 18.084 13 14.5C13 10.916 10.084 8 6.5 8C5.264 8 4.112 8.353 3.127 8.954C5.038 4.854 9.187 2 14 2C14.553 2 15 1.553 15 1C15 0.447 14.553 0 14 0C6.28 0 0 6.28 0 14C0 14.036 0.0170005 14.066 0.0200005 14.1C0.0120005 14.233 0 14.365 0 14.5C0 18.084 2.916 21 6.5 21ZM6.5 10C8.981 10 11 12.019 11 14.5C11 16.981 8.981 19 6.5 19C4.019 19 2 16.981 2 14.5C2 12.019 4.019 10 6.5 10Z" transform="translate(30 18)" fill="#656C89"/>
</svg>
