<svg width="60" height="59" viewBox="0 0 60 59" fill="none" xmlns="http://www.w3.org/2000/svg">
<path d="M0 0V59H60V0H0ZM58 57H2V2H58V57Z" fill="#656C89"/>
<path d="M1 6C1.552 6 2 5.553 2 5V2H14V31H9C8.448 31 8 31.447 8 32C8 32.553 8.448 33 9 33H21C21.552 33 22 32.553 22 32C22 31.447 21.552 31 21 31H16V2H28V5C28 5.553 28.448 6 29 6C29.552 6 30 5.553 30 5V1C30 0.447 29.552 0 29 0H1C0.448 0 0 0.447 0 1V5C0 5.553 0.448 6 1 6Z" transform="translate(15 14)" fill="#656C89"/>
<path d="M1.70725 0.29325C1.31625 -0.09775 0.68425 -0.09775 0.29325 0.29325C-0.09775 0.68425 -0.09775 1.31625 0.29325 1.70725L4.08625 5.50025L0.29325 9.29325C-0.09775 9.68425 -0.09775 10.3163 0.29325 10.7073C0.48825 10.9023 0.744251 11.0003 1.00025 11.0003C1.25625 11.0003 1.51225 10.9023 1.70725 10.7073L5.50025 6.91425L9.29325 10.7073C9.48825 10.9023 9.74425 11.0003 10.0003 11.0003C10.2563 11.0003 10.5123 10.9023 10.7073 10.7073C11.0983 10.3163 11.0983 9.68425 10.7073 9.29325L6.91425 5.50025L10.7073 1.70725C11.0983 1.31625 11.0983 0.68425 10.7073 0.29325C10.3163 -0.09775 9.68425 -0.09775 9.29325 0.29325L5.50025 4.08625L1.70725 0.29325Z" transform="translate(36 26.9998)" fill="#656C89"/>
</svg>
