<svg width="60" height="59" viewBox="0 0 60 59" fill="none" xmlns="http://www.w3.org/2000/svg">
<path d="M0 0V59H60V0H0ZM58 57H2V2H58V57Z" fill="#656C89"/>
<path d="M1 2H17C17.553 2 18 1.553 18 1C18 0.447 17.553 0 17 0H1C0.448 0 0 0.447 0 1C0 1.553 0.448 2 1 2Z" transform="translate(30 11)" fill="#656C89"/>
<path d="M14 0H1C0.448 0 0 0.447 0 1C0 1.553 0.448 2 1 2H14C14.553 2 15 1.553 15 1C15 0.447 14.553 0 14 0Z" transform="translate(33 18)" fill="#656C89"/>
<path d="M1 2H17C17.553 2 18 1.553 18 1C18 0.447 17.553 0 17 0H1C0.448 0 0 0.447 0 1C0 1.553 0.448 2 1 2Z" transform="translate(30 25)" fill="#656C89"/>
<path d="M36 0H1C0.448 0 0 0.447 0 1C0 1.553 0.448 2 1 2H36C36.553 2 37 1.553 37 1C37 0.447 36.553 0 36 0Z" transform="translate(11 32)" fill="#656C89"/>
<path d="M28 0H1C0.448 0 0 0.447 0 1C0 1.553 0.448 2 1 2H28C28.553 2 29 1.553 29 1C29 0.447 28.553 0 28 0Z" transform="translate(19 39)" fill="#656C89"/>
<path d="M36 0H1C0.448 0 0 0.447 0 1C0 1.553 0.448 2 1 2H36C36.553 2 37 1.553 37 1C37 0.447 36.553 0 36 0Z" transform="translate(11 46)" fill="#656C89"/>
<path d="M6 0H0V20H6V0ZM4 18H2V2H4V18Z" transform="translate(23 9)" fill="#656C89"/>
<path d="M1 7.00025H8.586L5.293 10.2932C4.902 10.6842 4.902 11.3163 5.293 11.7073C5.488 11.9023 5.744 12.0002 6 12.0002C6.256 12.0002 6.512 11.9023 6.707 11.7073L11.706 6.70825C11.799 6.61625 11.872 6.50525 11.923 6.38225C12.024 6.13825 12.024 5.86225 11.923 5.61825C11.872 5.49525 11.799 5.38525 11.706 5.29225L6.707 0.29325C6.316 -0.09775 5.684 -0.09775 5.293 0.29325C4.902 0.68425 4.902 1.31625 5.293 1.70725L8.586 5.00025H1C0.448 5.00025 0 5.44725 0 6.00025C0 6.55325 0.448 7.00025 1 7.00025Z" transform="translate(10 12.9998)" fill="#656C89"/>
</svg>
