<svg width="60" height="58" viewBox="0 0 60 58" fill="none" xmlns="http://www.w3.org/2000/svg">
<path d="M0 0V58H60V0H0ZM58 56H2V2H58V56Z" fill="#656C89"/>
<path d="M12 42V0H0V42H12ZM2 14.414L10 6.414V10.586L2 18.586V14.414ZM2 21.414L10 13.414V17.586L2 25.586V21.414ZM2 28.414L10 20.414V24.586L2 32.586V28.414ZM2 35.414L10 27.414V31.586L2 39.586V35.414ZM4.414 40L10 34.414V40H4.414ZM10 3.586L2 11.586V7.414L7.414 2H10V3.586ZM4.586 2L2 4.586V2H4.586Z" transform="translate(40 8)" fill="#656C89"/>
<path d="M1 10.0003H18.586L12.293 16.2932C11.902 16.6842 11.902 17.3163 12.293 17.7073C12.488 17.9023 12.744 18.0002 13 18.0002C13.256 18.0002 13.512 17.9023 13.707 17.7073L21.706 9.70825C21.799 9.61625 21.872 9.50525 21.923 9.38225C22.024 9.13825 22.024 8.86325 21.923 8.61825C21.872 8.49525 21.798 8.38425 21.706 8.29225L13.707 0.29325C13.316 -0.09775 12.684 -0.09775 12.293 0.29325C11.902 0.68425 11.902 1.31625 12.293 1.70725L18.586 8.00025H1C0.447 8.00025 0 8.44725 0 9.00025C0 9.55325 0.447 10.0003 1 10.0003Z" transform="translate(11 19.9998)" fill="#656C89"/>
</svg>
