<svg width="60" height="60" viewBox="0 0 60 60" fill="none" xmlns="http://www.w3.org/2000/svg">
<path d="M4 0C1.794 0 0 1.794 0 4C0 6.206 1.794 8 4 8C6.206 8 8 6.206 8 4C8 1.794 6.206 0 4 0ZM4 6C2.897 6 2 5.103 2 4C2 2.897 2.897 2 4 2C5.103 2 6 2.897 6 4C6 5.103 5.103 6 4 6Z" transform="translate(3 3)" fill="#656C89"/>
<path d="M4 0C1.794 0 0 1.794 0 4C0 6.206 1.794 8 4 8C6.206 8 8 6.206 8 4C8 1.794 6.206 0 4 0ZM4 6C2.897 6 2 5.103 2 4C2 2.897 2.897 2 4 2C5.103 2 6 2.897 6 4C6 5.103 5.103 6 4 6Z" transform="translate(12 3)" fill="#656C89"/>
<path d="M4 0C1.794 0 0 1.794 0 4C0 6.206 1.794 8 4 8C6.206 8 8 6.206 8 4C8 1.794 6.206 0 4 0ZM4 6C2.897 6 2 5.103 2 4C2 2.897 2.897 2 4 2C5.103 2 6 2.897 6 4C6 5.103 5.103 6 4 6Z" transform="translate(21 3)" fill="#656C89"/>
<path d="M0 0V14V60H60V14V0H0ZM2 2H58V12H2V2ZM58 58H2V14H58V58Z" fill="#656C89"/>
<path d="M43 8H50V0H43H41H0V8H41H43ZM43 2H48V6H43V2ZM2 6V2H41V6H2Z" transform="translate(5 17)" fill="#656C89"/>
<path d="M1 2H33C33.552 2 34 1.552 34 1C34 0.448 33.552 0 33 0H1C0.448 0 0 0.448 0 1C0 1.552 0.448 2 1 2Z" transform="translate(4 33)" fill="#656C89"/>
<path d="M1 2H33C33.552 2 34 1.552 34 1C34 0.448 33.552 0 33 0H1C0.448 0 0 0.448 0 1C0 1.552 0.448 2 1 2Z" transform="translate(4 37)" fill="#656C89"/>
<path d="M1 2H23C23.552 2 24 1.552 24 1C24 0.448 23.552 0 23 0H1C0.448 0 0 0.448 0 1C0 1.552 0.448 2 1 2Z" transform="translate(4 29)" fill="#656C89"/>
<path d="M1 2H33C33.552 2 34 1.552 34 1C34 0.448 33.552 0 33 0H1C0.448 0 0 0.448 0 1C0 1.552 0.448 2 1 2Z" transform="translate(4 48)" fill="#656C89"/>
<path d="M33 0H1C0.448 0 0 0.448 0 1C0 1.552 0.448 2 1 2H33C33.552 2 34 1.552 34 1C34 0.448 33.552 0 33 0Z" transform="translate(4 52)" fill="#656C89"/>
<path d="M1 2H23C23.552 2 24 1.552 24 1C24 0.448 23.552 0 23 0H1C0.448 0 0 0.448 0 1C0 1.552 0.448 2 1 2Z" transform="translate(4 44)" fill="#656C89"/>
</svg>
