<svg width="60" height="59" viewBox="0 0 60 59" fill="none" xmlns="http://www.w3.org/2000/svg">
<path d="M0 0V59H60V0H0ZM58 57H2V2H58V57Z" fill="#656C89"/>
<path d="M1 2H19C19.553 2 20 1.553 20 1C20 0.447 19.553 0 19 0H1C0.447 0 0 0.447 0 1C0 1.553 0.447 2 1 2Z" transform="translate(30 46)" fill="#656C89"/>
<path d="M1 2H12C12.553 2 13 1.553 13 1C13 0.447 12.553 0 12 0H1C0.447 0 0 0.447 0 1C0 1.553 0.447 2 1 2Z" transform="translate(30 39)" fill="#656C89"/>
<path d="M1 2H19C19.553 2 20 1.553 20 1C20 0.447 19.553 0 19 0H1C0.447 0 0 0.447 0 1C0 1.553 0.447 2 1 2Z" transform="translate(30 32)" fill="#656C89"/>
<path d="M1 2H17C17.553 2 18 1.553 18 1C18 0.447 17.553 0 17 0H1C0.447 0 0 0.447 0 1C0 1.553 0.447 2 1 2Z" transform="translate(30 25)" fill="#656C89"/>
<path d="M1 2H13C13.553 2 14 1.553 14 1C14 0.447 13.553 0 13 0H1C0.447 0 0 0.447 0 1C0 1.553 0.447 2 1 2Z" transform="translate(30 18)" fill="#656C89"/>
<path d="M1 2H19C19.553 2 20 1.553 20 1C20 0.447 19.553 0 19 0H1C0.447 0 0 0.447 0 1C0 1.553 0.447 2 1 2Z" transform="translate(30 11)" fill="#656C89"/>
<path d="M1.70725 34.2917C1.31625 33.9007 0.68425 33.9007 0.29325 34.2917C-0.09775 34.6827 -0.09775 35.3147 0.29325 35.7057L7.29225 42.7048C7.38425 42.7978 7.49525 42.8707 7.61825 42.9217C7.74025 42.9727 7.87025 42.9987 8.00025 42.9987C8.13025 42.9987 8.26025 42.9727 8.38225 42.9217C8.50525 42.8707 8.61625 42.7978 8.70825 42.7048L15.7073 35.7057C16.0983 35.3147 16.0983 34.6827 15.7073 34.2917C15.3163 33.9007 14.6842 33.9007 14.2932 34.2917L9.00025 39.5847V3.41275L14.2932 8.70575C14.4882 8.90075 14.7442 8.99875 15.0002 8.99875C15.2562 8.99875 15.5123 8.90075 15.7073 8.70575C16.0983 8.31475 16.0983 7.68275 15.7073 7.29175L8.70825 0.29275C8.61625 0.19975 8.50525 0.12675 8.38225 0.07575C8.13825 -0.02525 7.86325 -0.02525 7.61825 0.07575C7.49525 0.12675 7.38425 0.20075 7.29225 0.29275L0.29325 7.29175C-0.09775 7.68275 -0.09775 8.31475 0.29325 8.70575C0.48825 8.90075 0.74425 8.99875 1.00025 8.99875C1.25625 8.99875 1.51225 8.90075 1.70725 8.70575L7.00025 3.41275V39.5847L1.70725 34.2917Z" transform="translate(8 8.00122)" fill="#656C89"/>
</svg>
