<svg width="59" height="59" viewBox="0 0 59 59" fill="none" xmlns="http://www.w3.org/2000/svg">
<path d="M0 0V59H59V0H0ZM57 57H2V2H57V57Z" fill="#656C89"/>
<path d="M5.70054 21.026L15.6455 26.71C20.1815 29.302 20.8335 33.948 20.0135 37.139C19.2145 40.252 16.4745 43.916 11.3875 43.998L11.1685 44C6.20554 44 2.16854 39.963 2.16854 35C2.16854 34.447 1.72154 34 1.16854 34C0.615535 34 0.168535 34.447 0.168535 35C0.168535 41.065 5.10354 46 11.1685 46L11.4165 45.998C16.5315 45.915 20.6675 42.633 21.9505 37.637C23.2615 32.537 21.1755 27.567 16.6375 24.974L6.69254 19.29C2.15654 16.698 1.50454 12.052 2.32454 8.861C3.12354 5.748 5.86354 2.084 10.9505 2.002L11.1685 2C16.1315 2 20.1685 6.037 20.1685 11C20.1685 11.553 20.6155 12 21.1685 12C21.7215 12 22.1685 11.553 22.1685 11C22.1685 4.935 17.2335 0 11.1685 0L10.9205 0.00199986C5.80554 0.0849999 1.66954 3.367 0.386536 8.363C-0.924464 13.463 1.16154 18.434 5.70054 21.026Z" transform="translate(11.9863 6)" fill="#656C89"/>
<path d="M0.29325 10.7073C0.48825 10.9023 0.744251 11.0003 1.00025 11.0003C1.25625 11.0003 1.51225 10.9023 1.70725 10.7073L5.50025 6.91425L9.29325 10.7073C9.48825 10.9023 9.74425 11.0003 10.0003 11.0003C10.2563 11.0003 10.5123 10.9023 10.7073 10.7073C11.0983 10.3163 11.0983 9.68425 10.7073 9.29325L6.91425 5.50025L10.7073 1.70725C11.0983 1.31625 11.0983 0.68425 10.7073 0.29325C10.3163 -0.09775 9.68425 -0.09775 9.29325 0.29325L5.50025 4.08625L1.70725 0.29325C1.31625 -0.09775 0.68425 -0.09775 0.29325 0.29325C-0.09775 0.68425 -0.09775 1.31625 0.29325 1.70725L4.08625 5.50025L0.29325 9.29325C-0.09775 9.68425 -0.09775 10.3163 0.29325 10.7073Z" transform="translate(37 23.9998)" fill="#656C89"/>
</svg>
