<svg width="60" height="59" viewBox="0 0 60 59" fill="none" xmlns="http://www.w3.org/2000/svg">
<path d="M0 0V59H60V0H0ZM58 57H2V2H58V57Z" fill="#656C89"/>
<path d="M0.657518 34.93C0.770518 34.971 0.886517 34.991 0.999517 34.991C1.40752 34.991 1.79152 34.739 1.93852 34.333L6.06352 22.991H19.9365L24.0605 34.333C24.2075 34.739 24.5915 34.991 24.9995 34.991C25.1125 34.991 25.2285 34.971 25.3415 34.93C25.8605 34.742 26.1285 34.168 25.9395 33.649L13.9395 0.649C13.9345 0.635 13.9225 0.626 13.9175 0.613C13.8905 0.547 13.8485 0.491 13.8075 0.432C13.7735 0.382 13.7445 0.33 13.7025 0.288C13.6615 0.247 13.6095 0.219 13.5615 0.185C13.5015 0.143 13.4455 0.101 13.3785 0.073C13.3645 0.067 13.3555 0.0560006 13.3415 0.0510006C13.2975 0.0350006 13.2535 0.0410001 13.2095 0.0310001C13.1395 0.0160001 13.0715 0 12.9985 0C12.9285 0 12.8635 0.0159997 12.7965 0.0299997C12.7505 0.0399997 12.7035 0.0340006 12.6585 0.0510006C12.6435 0.0560006 12.6345 0.0680004 12.6205 0.0740004C12.5555 0.101 12.5015 0.142 12.4435 0.182C12.3935 0.217 12.3395 0.245 12.2975 0.288C12.2565 0.329 12.2285 0.381 12.1945 0.43C12.1535 0.489 12.1105 0.546 12.0835 0.612C12.0775 0.626 12.0665 0.634 12.0615 0.648L0.0615172 33.648C-0.129483 34.169 0.139518 34.742 0.657518 34.93ZM6.79052 20.991L12.9995 3.916L19.2085 20.991H6.79052Z" transform="translate(28 12.009)" fill="#656C89"/>
<path d="M0.644918 22.93C0.761918 22.974 0.882918 22.995 1.00092 22.995C1.40292 22.995 1.78292 22.75 1.93592 22.351L4.73792 14.995H13.2639L16.0659 22.351C16.2189 22.75 16.5989 22.995 17.0009 22.995C17.1189 22.995 17.2399 22.974 17.3569 22.93C17.8729 22.734 18.1309 22.156 17.9349 21.639L9.93492 0.639C9.93092 0.63 9.92292 0.624002 9.91892 0.615002C9.88992 0.545002 9.84292 0.488001 9.79892 0.426001C9.76692 0.381001 9.74292 0.33 9.70392 0.291C9.66392 0.25 9.60992 0.225 9.56192 0.191C9.50192 0.149 9.44592 0.103001 9.37892 0.0750008C9.36992 0.0710008 9.36492 0.0640014 9.35592 0.0600014C9.30892 0.0420014 9.26192 0.0470012 9.21392 0.0360012C9.14192 0.0200012 9.07292 0 8.99892 0C8.92392 0 8.85392 0.0200012 8.78192 0.0360012C8.73592 0.0460012 8.68892 0.042 8.64292 0.059C8.63392 0.062 8.62892 0.07 8.61992 0.073C8.54892 0.102 8.48992 0.150002 8.42692 0.195002C8.38292 0.227002 8.33292 0.25 8.29492 0.288C8.25392 0.328 8.22892 0.382001 8.19592 0.429001C8.15392 0.489001 8.10892 0.544001 8.08092 0.612001C8.07692 0.621001 8.06892 0.627001 8.06492 0.637001L0.0649185 21.637C-0.130081 22.155 0.128918 22.733 0.644918 22.93ZM5.49992 12.995L9.00092 3.805L12.5019 12.995H5.49992Z" transform="translate(6.99902 24.005)" fill="#656C89"/>
<path d="M1.00025 6.99875C1.25625 6.99875 1.51225 6.90075 1.70725 6.70575L5.00025 3.41275V10.9988C5.00025 11.5518 5.44725 11.9988 6.00025 11.9988C6.55325 11.9988 7.00025 11.5518 7.00025 10.9988V3.41275L10.2932 6.70575C10.4882 6.90075 10.7442 6.99875 11.0002 6.99875C11.2562 6.99875 11.5123 6.90075 11.7073 6.70575C12.0983 6.31475 12.0983 5.68275 11.7073 5.29175L6.70825 0.29275C6.61625 0.19975 6.50525 0.12675 6.38225 0.07575C6.13825 -0.02525 5.86325 -0.02525 5.61825 0.07575C5.49525 0.12675 5.38425 0.20075 5.29225 0.29275L0.29325 5.29175C-0.09775 5.68275 -0.09775 6.31475 0.29325 6.70575C0.48825 6.90075 0.74425 6.99875 1.00025 6.99875Z" transform="translate(10 9.00122)" fill="#656C89"/>
</svg>
