<svg width="165" height="230" viewBox="0 0 165 230" fill="none" xmlns="http://www.w3.org/2000/svg">
<path d="M0.5 202C0.5 182.946 15.9462 167.5 35 167.5H130C149.054 167.5 164.5 182.946 164.5 202V229.5H0.5V202Z" fill="#6A7E8C" stroke="black"/>
<rect x="50" y="153.6" width="65" height="14.4" fill="#6A7E8C"/>
<path d="M114.5 140.5H52.4245L114.5 167.24V140.5Z" fill="#6A7E8C" stroke="black"/>
<path d="M50.5 140.5H112.575L50.5 167.24V140.5Z" fill="#6A7E8C" stroke="black"/>
<rect x="77" y="156" width="1" height="73" fill="black"/>
<rect x="87" y="156" width="1" height="73" fill="black"/>
<circle cx="82.5" cy="218.5" r="2" fill="white" stroke="black"/>
<circle cx="82.5" cy="202.5" r="2" fill="white" stroke="black"/>
<circle cx="82.5" cy="170.5" r="2" fill="white" stroke="black"/>
<circle cx="82.5" cy="186.5" r="2" fill="white" stroke="black"/>
<rect x="126.978" y="69.9783" width="22.913" height="26.1739" rx="9" fill="#BFA3A3" stroke="black"/>
<rect x="8.5" y="69.9783" width="22.913" height="26.1739" rx="9" fill="#BFA3A3" stroke="black"/>
<rect x="20.4565" y="25.413" width="117.478" height="125.087" rx="39.5" fill="#8D6E6E" stroke="black"/>
<path d="M41.5055 15.6739H37.899C35.7998 15.6739 33.9091 16.9438 33.1152 18.8871L27.1003 33.6087L25.4989 26.5533C25.1368 24.9582 23.7189 23.8261 22.0832 23.8261C20.5111 23.8261 19.1316 24.8735 18.7093 26.3878L17.1122 32.115C16.8358 33.1062 16.6957 34.1304 16.6957 35.1593V46.6522L19.3142 68.0404C19.3864 68.6303 19.5797 69.1989 19.8819 69.7106C21.7929 72.9467 26.6397 72.3639 27.7292 68.7671L32.0815 54.3986C33.475 49.7983 37.7153 46.6522 42.522 46.6522H123.2C125.915 46.6522 128.394 48.1972 129.59 50.635L135.916 63.5352C137.681 67.1333 143.095 65.8771 143.095 61.8696C146.812 65.0053 152.519 63.4214 154.087 58.8188L154.989 56.1726C155.536 54.5698 155.609 52.8435 155.2 51.2002L151.502 36.3301C151.055 34.5364 150.232 32.8586 149.086 31.4084L145.859 27.3245C144.068 25.0571 141.572 23.4512 138.766 22.7606L127.636 20.0217L127.976 19.8506C132.011 17.8198 132.804 12.3979 129.518 9.29759C128.31 8.15706 126.711 7.52174 125.049 7.52174H117.515C116.708 7.52174 115.924 7.79126 115.287 8.28756L113.456 9.71462C111.172 11.4951 107.968 9.22787 108.886 6.48146C109.519 4.58772 108.11 2.63043 106.113 2.63043H101.346C100.728 2.63043 100.128 2.83984 99.6442 3.22449L91.082 10.0327C89.9538 10.9298 88.4619 9.50277 89.308 8.33582C89.652 7.8614 89.6165 7.21087 89.223 6.77666L86.6973 3.98982C85.1216 2.25129 82.5379 1.86635 80.5239 3.07005L76.6471 5.38705C75.0736 6.32748 73.0753 5.19382 73.0753 3.36069C73.0753 2.05692 72.0184 1 70.7146 1H67.656C66.4993 1 65.4216 1.58709 64.7944 2.55896L60.07 9.87934C58.8551 11.7618 58.4378 12.3691 58.7793 10.1549C58.9459 9.07519 58.0948 7.52174 57.0024 7.52174H53.5772C52.1512 7.52174 50.8471 8.32628 50.2073 9.6008L46.0236 17.9357C45.285 19.407 43.0668 18.8815 43.0668 17.2353C43.0668 16.3729 42.3678 15.6739 41.5055 15.6739Z" fill="#3F3939"/>
<path d="M24.8798 39.0435L27.1003 33.6087M127.636 20.0217L127.976 19.8506C132.011 17.8198 132.804 12.3979 129.518 9.29759V9.29759C128.31 8.15706 126.711 7.52174 125.049 7.52174H117.515C116.708 7.52174 115.924 7.79126 115.287 8.28756L113.456 9.71462C111.172 11.4951 107.968 9.22787 108.886 6.48146V6.48146C109.519 4.58772 108.11 2.63043 106.113 2.63043H101.346C100.728 2.63043 100.128 2.83984 99.6442 3.22449L91.082 10.0327C89.9538 10.9298 88.4619 9.50277 89.308 8.33582V8.33582C89.652 7.8614 89.6165 7.21087 89.223 6.77666L86.6973 3.98982C85.1216 2.25129 82.5379 1.86635 80.5239 3.07005L76.6471 5.38705C75.0736 6.32748 73.0753 5.19382 73.0753 3.36069V3.36069C73.0753 2.05692 72.0184 1 70.7146 1H67.656C66.4993 1 65.4216 1.58709 64.7944 2.55896L60.07 9.87934C58.8551 11.7618 58.4378 12.3691 58.7793 10.1549V10.1549C58.9459 9.07519 58.0948 7.52174 57.0024 7.52174H53.5772C52.1512 7.52174 50.8471 8.32628 50.2073 9.6008L46.0236 17.9357C45.285 19.407 43.0668 18.8815 43.0668 17.2353V17.2353C43.0668 16.3729 42.3678 15.6739 41.5055 15.6739H37.899C35.7998 15.6739 33.9091 16.9438 33.1152 18.8871L27.1003 33.6087M127.636 20.0217L116.269 23.8261M127.636 20.0217L138.766 22.7606C141.572 23.4512 144.068 25.0571 145.859 27.3245L149.086 31.4084C150.232 32.8586 151.055 34.5364 151.502 36.3301L155.2 51.2002C155.609 52.8435 155.536 54.5698 154.989 56.1726L154.087 58.8188C152.519 63.4214 146.812 65.0053 143.095 61.8696V61.8696M143.095 61.8696L136.275 46.6522M143.095 61.8696V61.8696C143.095 65.8771 137.681 67.1333 135.916 63.5352L129.59 50.635C128.394 48.1972 125.915 46.6522 123.2 46.6522H42.522C37.7153 46.6522 33.475 49.7983 32.0815 54.3986L27.7292 68.7671C26.6397 72.3639 21.7929 72.9467 19.8819 69.7106V69.7106C19.5797 69.1989 19.3864 68.6303 19.3142 68.0404L16.6957 46.6522V35.1593C16.6957 34.1304 16.8358 33.1062 17.1122 32.115L18.7093 26.3878C19.1316 24.8735 20.5111 23.8261 22.0832 23.8261V23.8261C23.7189 23.8261 25.1368 24.9582 25.4989 26.5533L27.1003 33.6087" stroke="black" stroke-width="0.8"/>
<path d="M106.407 116.717C106.142 127.616 97.2234 136.37 86.2608 136.37H73.2174C62.2548 136.37 53.3367 127.616 53.0713 116.717H106.407Z" fill="#997878" stroke="black"/>
<circle cx="52.0217" cy="77.6304" r="7.65217" fill="#3F3939" stroke="black"/>
<circle cx="106.37" cy="77.6304" r="7.65217" fill="#3F3939" stroke="black"/>
<path d="M75.842 84.837C77.5741 81.837 81.9042 81.837 83.6363 84.837L89.096 94.2935C90.8281 97.2935 88.663 101.043 85.1989 101.043H74.2794C70.8153 101.043 68.6503 97.2935 70.3823 94.2935L75.842 84.837Z" fill="#997878" stroke="black"/>
</svg>
