<svg width="512" height="214" viewBox="0 0 512 214" fill="none" xmlns="http://www.w3.org/2000/svg">
<path d="M256 170.449C220.715 170.449 192 141.734 192 106.449C192 71.1639 220.715 42.4491 256 42.4491C291.285 42.4491 320 71.1639 320 106.449C320 141.734 291.285 170.449 256 170.449ZM256 74.4491C238.355 74.4491 224 88.8046 224 106.449C224 124.094 238.355 138.449 256 138.449C273.645 138.449 288 124.094 288 106.449C288 88.8046 273.645 74.4491 256 74.4491Z" fill="#FF6978"/>
<path d="M384 213.117C372.246 213.117 362.668 203.539 362.668 191.781V21.1171C362.668 5.3085 380.906 -5.59385 395.562 3.06631C396.203 3.45303 396.82 3.87881 397.398 4.34756L504.062 89.6796C509.676 95.1835 512 100.687 512 106.449C512 112.211 509.676 117.715 505.449 121.98L397.418 208.551C396.844 209.019 396.203 209.445 395.586 209.832C391.828 212.051 388.031 213.117 384 213.117V213.117ZM394.668 43.1093V169.766L473.879 106.387L394.668 43.1093Z" fill="#FF6978"/>
<path d="M128 213.117C123.969 213.117 120.172 212.051 116.438 209.832C115.797 209.445 115.18 209.019 114.602 208.551L7.9375 123.219C2.32422 117.715 0 112.211 0 106.449C0 100.687 2.32422 95.1835 6.55078 90.9179L114.582 4.34755C115.156 3.8788 115.797 3.45302 116.414 3.0663C131.07 -5.61339 149.332 5.30849 149.332 21.1171V191.781C149.332 203.539 139.754 213.117 128 213.117ZM38.1211 106.512L117.332 169.789V43.1327L38.1211 106.512Z" fill="#FF6978"/>
</svg>
