<svg width="234" height="500" viewBox="0 0 234 500" fill="none" xmlns="http://www.w3.org/2000/svg">
  <path d="M146 214H86V271H146V214Z" fill="#321B1A"/>
  <g className="avatar-one-face">
    <rect width="233.333" height="500" fill="black" fill-opacity="0"/>
    <rect width="197.402" height="243.137" fill="black" fill-opacity="0" transform="translate(20.2612)"/>
    <path d="M183.031 131.282C183.031 126.228 187.128 122.132 192.182 122.132H204.023C209.077 122.132 213.174 126.228 213.174 131.282V144.684C213.174 149.738 209.077 153.835 204.023 153.835H192.182C187.128 153.835 183.031 149.738 183.031 144.684V131.282Z" fill="#321B1A"/>
    <path d="M20.2612 131.283C20.2612 126.229 24.358 122.132 29.4116 122.132H41.2533C46.3069 122.132 50.4036 126.229 50.4036 131.283V144.685C50.4036 149.739 46.3069 153.835 41.2533 153.835H29.4116C24.358 153.835 20.2612 149.739 20.2612 144.685V131.283Z" fill="#321B1A"/>
    <path d="M36.7563 73.2026H195.58V190.357C195.58 219.507 171.562 243.137 141.936 243.137H89.7384C60.4772 243.137 36.7563 219.799 36.7563 191.008V73.2026Z" fill="#4C2D2B"/>
    <path d="M99.6362 212.832C99.6362 212.175 100.169 211.642 100.827 211.642H132.607C133.265 211.642 133.798 212.175 133.798 212.832C133.798 213.49 133.265 214.023 132.607 214.023H100.827C100.169 214.023 99.6362 213.49 99.6362 212.832Z" fill="#321B1A"/>

    <path d="M66.4771 124.036H91.5957C91.5957 130.61 86.2665 135.939 79.6927 135.939H78.3801C71.8062 135.939 66.4771 130.61 66.4771 124.036Z" fill="black"/>
    <path d="M61.9551 121.893C61.9551 121.236 62.488 120.703 63.1454 120.703H94.9262C95.5836 120.703 96.1165 121.236 96.1165 121.893C96.1165 122.551 95.5836 123.084 94.9262 123.084H63.1454C62.488 123.084 61.9551 122.551 61.9551 121.893Z" fill="black"/>
    <path d="M141.834 124.036H166.953C166.953 130.61 161.623 135.939 155.05 135.939H153.737C147.163 135.939 141.834 130.61 141.834 124.036Z" fill="black"/>
    <path d="M137.312 121.893C137.312 121.236 137.845 120.703 138.503 120.703H170.284C170.941 120.703 171.474 121.236 171.474 121.893C171.474 122.551 170.941 123.084 170.284 123.084H138.503C137.845 123.084 137.312 122.551 137.312 121.893Z" fill="black"/>

    <path d="M110.02 152.647C113.077 147.63 120.36 147.63 123.417 152.647L131.209 165.437C134.393 170.664 130.63 177.361 124.51 177.361H108.927C102.807 177.361 99.0446 170.664 102.229 165.437L110.02 152.647Z" fill="#321B1A"/>
    <path d="M178.587 73.2026H195.58V107.19L178.587 73.2026Z" fill="black"/>
    <path d="M55.0576 72.6701C55.0576 55.6376 68.8464 41.8301 85.8556 41.8301H187.062C191.767 41.8301 195.58 45.6492 195.58 50.3603V73.8562H55.0576V72.6701Z" fill="black"/>
    <path d="M124.495 19.6466C130.187 9.17185 145.222 9.17185 150.913 19.6466L154.093 25.4993C159.536 35.5161 152.284 47.7086 140.884 47.7086H134.525C123.125 47.7086 115.873 35.5161 121.316 25.4993L124.495 19.6466Z" fill="black"/>
    <path d="M148.54 12.2794C158.214 1.71462 175.95 8.43435 175.14 22.3574L173.943 42.9201C173.32 53.6209 161.504 60.4313 151.66 55.7634L139.366 49.9335C130.452 45.7067 128.316 34.3649 135.049 27.0124L148.54 12.2794Z" fill="black"/>
    <path d="M96.3602 30.1207C102.051 19.646 117.087 19.646 122.778 30.1207L125.958 35.9734C131.4 45.9902 124.149 58.1828 112.749 58.1828H106.389C94.9895 58.1828 87.738 45.9902 93.1803 35.9734L96.3602 30.1207Z" fill="black"/>
    <path d="M56.3647 68.6274H36.7569V102.614L56.3647 68.6274Z" fill="black"/>
    <path d="M47.3338 44.4504C49.9138 39.2138 58.2394 39.2138 60.8194 44.4504L70.7658 64.6384C72.9059 68.9821 69.3405 73.8563 64.023 73.8563H44.1302C38.8127 73.8563 35.2473 68.9821 37.3874 64.6384L47.3338 44.4504Z" fill="black"/>
    <path d="M64.1399 35.7958C66.3668 31.697 72.2505 31.697 74.4774 35.7958L81.9188 49.4923C84.0484 53.4119 81.2109 58.1829 76.7501 58.1829H61.8672C57.4064 58.1829 54.5689 53.4119 56.6985 49.4923L64.1399 35.7958Z" fill="black"/>
    <path d="M73.2499 34.8824C78.9409 24.4077 93.9768 24.4077 99.6678 34.8824L102.848 40.7351C108.29 50.7519 101.039 62.9445 89.6388 62.9445H83.2789C71.8792 62.9445 64.6277 50.7519 70.07 40.7351L73.2499 34.8824Z" fill="black"/>
    <path d="M182.104 21.1052C194.813 14.1012 209.687 26.3263 204.173 39.2436L196.158 58.0202C191.996 67.7709 178.653 70.2821 170.862 62.7808L161.376 53.6487C154.306 46.8414 155.897 35.5478 164.603 30.7498L182.104 21.1052Z" fill="black"/>
  </g>
  <rect width="233.333" height="230.719" fill="black" fill-opacity="0" transform="translate(0 269.281)"/>
  <path d="M0 359.281C0 309.575 40.2944 269.281 90 269.281H143.333C193.039 269.281 233.333 309.575 233.333 359.281V500H0V359.281Z" fill="#89023E"/>
  <path d="M196.079 312.418H198.693V500H196.079V312.418Z" fill="#5A0F31"/>
  <path d="M35.2939 312.418H37.9083V500H35.2939V312.418Z" fill="#5A0F31"/>
  <path d="M21.5684 326.144C21.5684 318.563 27.7135 312.418 35.2938 312.418V312.418V500H21.5684V326.144Z" fill="black" fill-opacity="0.14"/>
  <path d="M212.418 326.144C212.418 318.563 206.273 312.418 198.693 312.418V312.418V500H212.418V326.144Z" fill="black" fill-opacity="0.14"/>
</svg>