<svg width="235" height="500" viewBox="0 0 235 500" fill="none" xmlns="http://www.w3.org/2000/svg">
  <!--Neck-->
  <path d="M61 0H0V70H61V0Z" transform="translate(87 198)" fill="#321B1A"/>

  <g>
    <!--Ear Left-->
    <path d="M0 9.21053C0 4.12369 4.12369 0 9.21053 0H21.1301C26.217 0 30.3407 4.12369 30.3407 9.21053V22.7011C30.3407 27.7879 26.217 31.9116 21.1301 31.9116H9.21053C4.12369 31.9116 0 27.7879 0 22.7011V9.21053Z" transform="translate(184.737 122.935)" fill="#321B1A"/>
    <!--Ear Right-->
    <path d="M0 9.21053C0 4.12369 4.12369 0 9.21053 0H21.1301C26.217 0 30.3407 4.12369 30.3407 9.21053V22.7011C30.3407 27.7879 26.217 31.9116 21.1301 31.9116H9.21053C4.12369 31.9116 0 27.7879 0 22.7011V9.21053Z" transform="translate(20.896 122.936)" fill="#321B1A"/>
    <!--Face Shape-->
    <path d="M0 0H158.553V117.925C158.553 147.267 134.576 171.053 105 171.053H52.8916C23.6804 171.053 0 147.56 0 118.581V0Z" transform="translate(38.8159 74.342)" fill="#4C2D2B"/>
    <!--Eyes Left-->
    <path d="M0 1.19815C0 0.53643 0.53643 0 1.19815 0H33.188C33.8498 0 34.3862 0.53643 34.3862 1.19815C34.3862 1.85987 33.8498 2.3963 33.188 2.3963H1.19815C0.536431 2.3963 0 1.85987 0 1.19815Z" transform="translate(63.8159 121.053)" fill="black"/>
    <!--Eyes Right-->
    <path d="M0 1.19815C0 0.53643 0.53643 0 1.19815 0H33.188C33.8498 0 34.3862 0.53643 34.3862 1.19815C34.3862 1.85987 33.8498 2.3963 33.188 2.3963H1.19815C0.536431 2.3963 0 1.85987 0 1.19815Z" transform="translate(138.717 121.497)" fill="black"/>
    <!--Mouth-->
    <path d="M0 1.19815C0 0.53643 0.53643 0 1.19815 0H33.188C33.8498 0 34.3862 0.53643 34.3862 1.19815C34.3862 1.85987 33.8498 2.3963 33.188 2.3963H1.19815C0.536431 2.3963 0 1.85987 0 1.19815Z" transform="translate(100.793 213.034)" fill="#321B1A"/>
    <!--Nose-->
    <path d="M9.00799 3.78747C12.0844 -1.26249 19.4161 -1.26249 22.4925 3.78747L30.3356 16.6623C33.5405 21.9233 29.7536 28.6643 23.5934 28.6643H7.90706C1.7468 28.6643 -2.04001 21.9233 1.16489 16.6623L9.00799 3.78747Z" transform="translate(102.238 149.863)" fill="#321B1A"/>
    <!--Hair-->
    <path d="M0 17.1053V0H34.2105L0 17.1053Z" transform="translate(197.368 73.6841) rotate(90)" fill="black"/>
    <path d="M0 31.0429C0 13.8984 13.8795 0 31.0006 0H132.873C137.609 0 141.447 3.84423 141.447 8.58633V32.2368H0V31.0429Z" transform="translate(55.9209 42.1052)" fill="black"/>
    <path d="M5.05785 7.90771C10.7863 -2.63591 25.9211 -2.63591 31.6496 7.90771L34.8504 13.799C40.3285 23.8817 33.0293 36.1544 21.5546 36.1544H15.1529C3.67811 36.1544 -3.62109 23.8817 1.857 13.799L5.05785 7.90771Z" transform="translate(120.758 11.8679)" fill="black"/>
    <path d="M5.60192 11.2627C9.25205 -2.53104 28.2154 -4.07025 34.0423 8.95429L42.648 28.1901C47.1263 38.2003 39.8019 49.5009 28.8357 49.5009H15.1397C5.20981 49.5009 -2.02859 40.0983 0.511665 30.4986L5.60192 11.2627Z" transform="matrix(0.903559 0.428464 -0.466861 0.884331 150.215 0)" fill="black"/>
    <path d="M5.05785 7.90771C10.7863 -2.63591 25.9211 -2.63591 31.6496 7.90771L34.8504 13.799C40.3285 23.8817 33.0293 36.1544 21.5546 36.1544H15.1529C3.67811 36.1544 -3.62109 23.8817 1.857 13.799L5.05785 7.90771Z" transform="translate(92.438 22.4111)" fill="black"/>
    <path d="M0 0V18.4211H34.2105L0 0Z" transform="translate(57.2368 69.0789) rotate(90)" fill="black"/>
    <path d="M10.2453 3.95325C12.7442 -1.31775 20.8084 -1.31775 23.3074 3.95325L32.9414 24.2741C35.0143 28.6464 31.5608 33.5526 26.4104 33.5526H7.14232C1.99182 33.5526 -1.46164 28.6464 0.611238 24.2741L10.2453 3.95325Z" transform="translate(38.8159 40.7896)" fill="black"/>
    <path d="M8.21703 3.09435C10.4586 -1.03145 16.381 -1.03145 18.6226 3.09435L26.113 16.8809C28.2565 20.8263 25.4003 25.6287 20.9102 25.6287H5.9294C1.43927 25.6287 -1.41694 20.8263 0.726642 16.8809L8.21703 3.09435Z" transform="translate(56.8467 32.937)" fill="black"/>
    <path d="M5.05785 7.90771C10.7863 -2.63591 25.9211 -2.63591 31.6496 7.90771L34.8504 13.799C40.3285 23.8817 33.0293 36.1544 21.5546 36.1544H15.1529C3.67811 36.1544 -3.62109 23.8817 1.857 13.799L5.05785 7.90771Z" transform="translate(69.1758 27.2041)" fill="black"/>
    <path d="M5.4064 11.3805C8.9835 -2.59088 28.2226 -4.11253 33.9516 9.12273L42.2794 28.3617C46.604 38.3523 39.2796 49.5043 28.3928 49.5043H15.1394C5.25975 49.5043 -1.96988 40.1905 0.48058 30.6194L5.4064 11.3805Z" transform="matrix(0.720396 0.693563 -0.731186 0.682178 188.23 9.73096)" fill="black"/>

    <!--Glasses-->
    <rect width="13.1579" height="1.31579" transform="translate(38.8159 108.553)" fill="#C4C4C4"/>
    <path d="M2.5 2.5H46.1842V12.5C46.1842 24.5631 36.4052 34.3421 24.3421 34.3421C12.279 34.3421 2.5 24.5631 2.5 12.5V2.5Z" transform="translate(56.5791 108.553)" fill="white" fill-opacity="0.2" stroke="black" stroke-width="5"/>
    <path d="M2.5 2.5H46.1842V12.5C46.1842 24.5631 36.4052 34.3421 24.3421 34.3421C12.279 34.3421 2.5 24.5631 2.5 12.5V2.5Z" transform="translate(131.579 108.553)" fill="white" fill-opacity="0.2" stroke="black" stroke-width="5"/>
    <rect width="26.3158" height="2.63158" transform="translate(105.263 108.553)" fill="black"/>
    <path d="M0 0H4.60526L1.64474 0.986842L0 3.94737V0Z" transform="translate(180.263 109.868)" fill="black"/>
    <rect width="4.60526" height="1.31579" transform="translate(180.263 108.553)" fill="black"/>
    <path d="M0 0H4.60526L1.64474 0.986842L0 3.94737V0Z" transform="translate(56.5791 109.868) scale(-1 1)" fill="black"/>
    <rect width="4.60526" height="1.31579" transform="translate(56.5791 108.553) scale(-1 1)" fill="black"/>
    <rect width="12.5" height="1.31579" transform="translate(184.869 108.553)" fill="#C4C4C4"/>
  </g>

  <path d="M0 90C0 40.2944 40.2944 0 90 0H144.869C194.574 0 234.868 40.2944 234.868 90V232.237H0V90Z" transform="translate(0 267.763)" fill="#A9A9A9"/>
  <path d="M0 0H2.63158V188.816H0V0Z" transform="translate(197.368 311.184)" fill="black" fill-opacity="0.4"/>
  <path d="M0 0H2.63158V188.816H0V0Z" transform="translate(35.5264 311.184)" fill="black" fill-opacity="0.4"/>
  <path d="M0 13.8158C0 6.18553 6.18554 0 13.8158 0V188.816H0V13.8158Z" transform="translate(21.7104 311.184)" fill="black" fill-opacity="0.14"/>
  <path d="M0 13.8158C0 6.18553 6.18554 0 13.8158 0V188.816H0V13.8158Z" transform="translate(213.816 311.184) scale(-1 1)" fill="black" fill-opacity="0.14"/>
  <path d="M9.75483 34.8282L69.0789 0.57735L128.403 34.8282V103.33L69.0789 137.581L9.75483 103.33V34.8282Z" transform="translate(50.6577 431.579) rotate(-90)" fill="black" stroke="#C4C4C4"/>
  <path d="M9.31412 33.1834L65.7895 0.57735L122.265 33.1834V98.3955L65.7895 131.002L9.31412 98.3955V33.1834Z" transform="translate(53.9473 428.29) rotate(-90)" fill="black" stroke="#C4C4C4"/>
  <path d="M21.4798 12.4517C21.4798 13.1353 21.3894 13.7651 21.2088 14.3413C21.0281 14.9175 20.7669 15.4131 20.4251 15.8281C20.0833 16.2432 19.6658 16.5679 19.1726 16.8022C18.6843 17.0317 18.1326 17.1465 17.5173 17.1465C16.9021 17.1465 16.3552 17.0317 15.8767 16.8022C15.3982 16.5679 14.9954 16.2432 14.6682 15.8281C14.3411 15.4082 14.0921 14.9126 13.9212 14.3413C13.7503 13.7651 13.6648 13.1353 13.6648 12.4517V10.8989C13.6648 10.2153 13.7503 9.58545 13.9212 9.00928C14.0921 8.43311 14.3411 7.9375 14.6682 7.52246C14.9954 7.10254 15.3958 6.77539 15.8694 6.54102C16.3479 6.30664 16.8948 6.18945 17.51 6.18945C18.1301 6.18945 18.6843 6.30664 19.1726 6.54102C19.6658 6.77539 20.0833 7.10254 20.4251 7.52246C20.7669 7.9375 21.0281 8.43311 21.2088 9.00928C21.3894 9.58545 21.4798 10.2153 21.4798 10.8989V12.4517ZM19.3923 10.8843C19.3923 10.4497 19.3557 10.0493 19.2825 9.68311C19.2141 9.31689 19.1043 9.00195 18.9529 8.73828C18.8015 8.47461 18.6062 8.26953 18.367 8.12305C18.1326 7.97168 17.8469 7.896 17.51 7.896C17.178 7.896 16.8997 7.97168 16.6751 8.12305C16.4505 8.26953 16.2698 8.47461 16.1331 8.73828C15.9964 9.00195 15.8987 9.31689 15.8401 9.68311C15.7815 10.0493 15.7522 10.4497 15.7522 10.8843V12.4517C15.7522 12.8813 15.7815 13.2793 15.8401 13.6455C15.8987 14.0117 15.9964 14.3291 16.1331 14.5977C16.2698 14.8662 16.4505 15.0762 16.6751 15.2275C16.8997 15.3789 17.1804 15.4546 17.5173 15.4546C17.8494 15.4546 18.1326 15.3789 18.367 15.2275C18.6062 15.0762 18.7991 14.8687 18.9456 14.605C19.0969 14.3364 19.2092 14.019 19.2825 13.6528C19.3557 13.2866 19.3923 12.8862 19.3923 12.4517V10.8843ZM26.6653 13.0156H25.1052V17H23.0471V6.33594H26.6214C27.2122 6.33594 27.7468 6.40674 28.2254 6.54834C28.7039 6.68506 29.1116 6.8877 29.4485 7.15625C29.7903 7.4248 30.0515 7.75928 30.2322 8.15967C30.4177 8.56006 30.5105 9.02393 30.5105 9.55127C30.5105 9.93213 30.4641 10.2764 30.3714 10.584C30.2835 10.8867 30.1541 11.1602 29.9832 11.4043C29.8172 11.6436 29.6145 11.8535 29.3753 12.0342C29.1409 12.2148 28.8772 12.3711 28.5842 12.5029L30.8767 16.9048V17H28.6721L26.6653 13.0156ZM25.1052 11.3457H26.6287C27.2097 11.3457 27.6565 11.1992 27.969 10.9062C28.2864 10.6084 28.4451 10.2031 28.4451 9.69043C28.4451 9.1582 28.2913 8.74561 27.9837 8.45264C27.676 8.15479 27.2219 8.00586 26.6214 8.00586H25.1052V11.3457ZM32.51 6.33594H38.677V7.99854H36.5969V15.3447H38.677V17H32.51V15.3447H34.5388V7.99854H32.51V6.33594ZM48.3963 15.7549C48.2644 15.916 48.0838 16.0796 47.8543 16.2456C47.6248 16.4116 47.3513 16.563 47.034 16.6997C46.7215 16.8315 46.3699 16.939 45.9793 17.022C45.5886 17.105 45.1687 17.1465 44.7195 17.1465C44.114 17.1465 43.5672 17.0391 43.0789 16.8242C42.5906 16.6094 42.1731 16.2993 41.8264 15.894C41.4798 15.4888 41.2112 14.9932 41.0208 14.4072C40.8352 13.8164 40.7424 13.1475 40.7424 12.4004V10.9502C40.7424 10.2031 40.8401 9.53662 41.0354 8.95068C41.2356 8.35986 41.509 7.85938 41.8557 7.44922C42.2073 7.03906 42.6174 6.72656 43.0862 6.51172C43.5598 6.29688 44.0725 6.18945 44.6243 6.18945C45.2249 6.18945 45.7473 6.26514 46.1917 6.4165C46.6409 6.56787 47.0193 6.7876 47.3269 7.07568C47.6345 7.35889 47.8738 7.70557 48.0447 8.11572C48.2205 8.52588 48.3352 8.9873 48.3889 9.5H46.3821C46.3137 8.95312 46.1477 8.54297 45.884 8.26953C45.6253 7.99121 45.2224 7.85205 44.6756 7.85205C44.4119 7.85205 44.1677 7.92041 43.9431 8.05713C43.7185 8.18896 43.5232 8.38428 43.3572 8.64307C43.1912 8.90186 43.0593 9.22412 42.9617 9.60986C42.864 9.99072 42.8152 10.4326 42.8152 10.9355V12.4004C42.8201 13.3965 42.9861 14.1606 43.3132 14.6929C43.6404 15.2202 44.1409 15.4863 44.8147 15.4912C44.9758 15.4912 45.1345 15.479 45.2908 15.4546C45.447 15.4302 45.5935 15.396 45.7302 15.3521C45.867 15.3081 45.9866 15.2593 46.0891 15.2056C46.1965 15.147 46.2771 15.0859 46.3308 15.0225L46.3382 13.0889H44.573V11.5508H48.3889L48.3963 15.7549ZM50.5276 6.33594H56.6946V7.99854H54.6145V15.3447H56.6946V17H50.5276V15.3447H52.5564V7.99854H50.5276V6.33594ZM66.1135 17H64.0628L61.0965 10.1226V17H59.0237V6.33594H61.0965L64.0408 13.1841L64.0481 6.33594H66.1135V17ZM73.3352 14.7734H70.1345L69.5047 17H67.3367L70.8303 6.33594H72.698L76.1257 17H73.9578L73.3352 14.7734ZM70.6399 13.0229H72.8518L71.7605 9.09717L70.6399 13.0229ZM79.3045 15.3374H84.2996V17H77.239V6.33594H79.3045V15.3374ZM91.6458 14.2168C91.6458 14.0264 91.6116 13.8481 91.5432 13.6821C91.4798 13.5161 91.3674 13.3623 91.2063 13.2207C91.0501 13.0742 90.8425 12.9424 90.5838 12.8252C90.3298 12.7031 90.0125 12.5908 89.6316 12.4883C89.1677 12.3613 88.7234 12.2026 88.2986 12.0122C87.8787 11.8218 87.5076 11.5923 87.1853 11.3237C86.8631 11.0552 86.6043 10.7427 86.409 10.3862C86.2185 10.0298 86.1233 9.61963 86.1233 9.15576C86.1233 8.70654 86.2185 8.29883 86.409 7.93262C86.5994 7.56641 86.8631 7.25391 87.2 6.99512C87.5369 6.73633 87.9348 6.53857 88.3938 6.40186C88.8528 6.26025 89.3508 6.18945 89.888 6.18945C90.4446 6.18945 90.9524 6.27002 91.4114 6.43115C91.8753 6.59229 92.2732 6.81934 92.6052 7.1123C92.9373 7.40039 93.1961 7.74463 93.3816 8.14502C93.5672 8.54541 93.6599 8.98486 93.6599 9.46338H91.6531C91.6433 9.22412 91.5994 9.00439 91.5213 8.8042C91.448 8.604 91.3357 8.43311 91.1843 8.2915C91.0379 8.14502 90.8523 8.03271 90.6277 7.95459C90.408 7.87158 90.1492 7.83008 89.8513 7.83008C89.5779 7.83008 89.3338 7.86426 89.1189 7.93262C88.909 7.99609 88.7307 8.08887 88.5842 8.21094C88.4378 8.32812 88.3255 8.46973 88.2473 8.63574C88.1741 8.79688 88.1375 8.97266 88.1375 9.16309C88.1375 9.36328 88.1863 9.54395 88.284 9.70508C88.3865 9.86621 88.533 10.0127 88.7234 10.1445C88.9138 10.2715 89.1433 10.3887 89.4119 10.4961C89.6853 10.6035 89.9929 10.7036 90.3347 10.7964C90.823 10.938 91.2722 11.1113 91.6824 11.3164C92.0925 11.5215 92.4441 11.7656 92.7371 12.0488C93.0349 12.3271 93.2644 12.647 93.4256 13.0083C93.5916 13.3647 93.6746 13.7627 93.6746 14.2021C93.6746 14.6709 93.5794 15.0884 93.3889 15.4546C93.2034 15.8159 92.9446 16.1235 92.6126 16.3774C92.2805 16.6265 91.885 16.8169 91.426 16.9487C90.9671 17.0757 90.4666 17.1392 89.9246 17.1392C89.5877 17.1392 89.2507 17.1074 88.9138 17.0439C88.5818 16.9854 88.262 16.8926 87.9544 16.7656C87.6516 16.6387 87.3684 16.48 87.1048 16.2896C86.8411 16.0991 86.6116 15.877 86.4163 15.623C86.2258 15.3691 86.0745 15.0811 85.9622 14.7588C85.8548 14.4365 85.801 14.0801 85.801 13.6895H87.8225C87.8323 14.0117 87.8884 14.2876 87.991 14.5171C88.0935 14.7466 88.2351 14.9346 88.4158 15.0811C88.6013 15.2275 88.8211 15.335 89.075 15.4033C89.3338 15.4717 89.617 15.5059 89.9246 15.5059C90.198 15.5059 90.4397 15.4741 90.6497 15.4106C90.8645 15.3472 91.0452 15.2593 91.1917 15.147C91.3382 15.0347 91.4505 14.9004 91.5286 14.7441C91.6067 14.583 91.6458 14.4072 91.6458 14.2168Z" transform="translate(64 349)" fill="#A9A9A9"/>
  <rect width="35.5263" height="161.184" transform="translate(0 338.158)" fill="black"/>
  <rect width="34.8684" height="161.184" transform="translate(200 338.158)" fill="black"/>
</svg>
