<svg width="236" height="500" viewBox="0 0 236 500" fill="none" xmlns="http://www.w3.org/2000/svg">

<path d="M184.564 132.494C184.564 127.394 188.699 123.26 193.799 123.26H205.75C210.851 123.26 214.985 127.394 214.985 132.494V146.02C214.985 151.121 210.851 155.255 205.75 155.255H193.799C188.699 155.255 184.564 151.121 184.564 146.02V132.494Z" fill="#321B1A"/>
<path d="M20.2915 132.495C20.2915 127.395 24.4261 123.26 29.5263 123.26H41.4774C46.5777 123.26 50.7122 127.395 50.7122 132.495V146.021C50.7122 151.121 46.5777 155.256 41.4774 155.256H29.5263C24.4261 155.256 20.2915 151.121 20.2915 146.021V132.495Z" fill="#321B1A"/>
<path d="M148 219H87V268H148V219Z" fill="#321B1A"/>
<path d="M38.5459 74.2451H196.735V192.841C196.735 222.35 172.814 246.271 143.305 246.271H91.3163C62.172 246.271 38.5459 222.646 38.5459 193.501V74.2451Z" fill="#4C2D2B"/>
<rect width="25.066" height="25.066" fill="black" fill-opacity="0" transform="translate(67.2822 112.797)"/>
<circle cx="79.8152" cy="125.33" r="12.533" fill="black"/>
<circle cx="85.0921" cy="120.053" r="3.29815" fill="white"/>
<circle cx="155.673" cy="125.33" r="12.533" fill="black"/>
<circle cx="160.95" cy="120.053" r="3.29815" fill="white"/>
<path d="M110.88 154.056C113.964 148.993 121.315 148.993 124.4 154.056L132.264 166.965C135.477 172.24 131.68 178.998 125.504 178.998H109.776C103.6 178.998 99.8027 172.24 103.016 166.965L110.88 154.056Z" fill="#321B1A"/>
<path d="M180.08 73.8787H196.811V107.996L180.08 73.8787Z" fill="black"/>
<path d="M55.4092 73.2189C55.4092 56.0967 69.2895 42.2163 86.4118 42.2163H188.29C193.027 42.2163 196.866 46.0556 196.866 50.7915V74.4114H55.4092V73.2189Z" fill="black"/>
<path d="M125.488 19.8277C131.232 9.25631 146.406 9.25631 152.15 19.8277L155.359 25.7345C160.852 35.8438 153.533 48.149 142.028 48.149H135.61C124.105 48.149 116.786 35.8438 122.279 25.7345L125.488 19.8277Z" fill="black"/>
<path d="M149.755 12.3928C159.519 1.73045 177.419 8.51224 176.601 22.5638L175.393 43.3165C174.765 54.116 162.839 60.9894 152.905 56.2784L140.497 50.3947C131.501 46.1288 129.345 34.6823 136.14 27.2618L149.755 12.3928Z" fill="black"/>
<path d="M97.0932 30.3988C102.837 19.8274 118.011 19.8274 123.755 30.3988L126.964 36.3056C132.457 46.4149 125.138 58.72 113.633 58.72H107.215C95.7098 58.72 88.3913 46.4149 93.8839 36.3056L97.0932 30.3988Z" fill="black"/>
<path d="M54.9897 69.2612H38.2582V103.378L54.9897 69.2612Z" fill="black"/>
<path d="M48.5306 44.8607C51.0361 39.5757 59.1216 39.5757 61.6272 44.8607L71.2866 65.2351C73.365 69.619 69.9024 74.5381 64.7384 74.5381H45.4195C40.2554 74.5381 36.7928 69.619 38.8712 65.2351L48.5306 44.8607Z" fill="black"/>
<path d="M64.5751 36.1264C66.8226 31.9898 72.7606 31.9898 75.0081 36.1264L82.5183 49.9494C84.6675 53.9052 81.8038 58.7202 77.3018 58.7202H62.2815C57.7795 58.7202 54.9157 53.9052 57.065 49.9494L64.5751 36.1264Z" fill="black"/>
<path d="M73.7694 35.2045C79.513 24.633 94.6877 24.633 100.431 35.2045L103.641 41.1113C109.133 51.2206 101.815 63.5257 90.3097 63.5257H83.8911C72.3861 63.5257 65.0676 51.2206 70.5601 41.1113L73.7694 35.2045Z" fill="black"/>
<path d="M183.629 21.3002C196.455 14.2315 211.467 26.5695 205.902 39.606L197.813 58.5561C193.612 68.3968 180.146 70.9312 172.283 63.3606L162.71 54.1442C155.574 47.274 157.18 35.8762 165.966 31.0338L183.629 21.3002Z" fill="black"/>
<path d="M85.0923 202.507H151.055C151.055 211.25 143.968 218.338 135.224 218.338H100.923C92.1801 218.338 85.0923 211.25 85.0923 202.507Z" fill="white"/>

<rect width="235.488" height="248.021" fill="black" fill-opacity="0" transform="translate(0 251.979)"/>
<path d="M0 357.15C0 307.445 40.2944 267.15 90 267.15H145.488C195.194 267.15 235.488 307.445 235.488 357.15V500H0V357.15Z" fill="#395380"/>
<path d="M197.889 310.686H200.528V500H197.889V310.686Z" fill="#25344F"/>
<path d="M35.6201 310.686H38.2586V500H35.6201V310.686Z" fill="#25344F"/>
<rect width="73.8786" height="15.8311" fill="black" fill-opacity="0" transform="translate(80.4746 251.979)"/>
<rect x="87.0708" y="251.979" width="60.686" height="15.8311" fill="#25344F"/>
<path d="M87.0441 251.979L93.6135 266.82H80.4746L87.0441 251.979Z" fill="#25344F"/>
<path d="M147.73 251.979L154.3 266.82H141.161L147.73 251.979Z" fill="#25344F"/>
<rect x="80.4746" y="266.491" width="73.8786" height="1.31926" fill="#25344F"/>
<rect width="3.95802" height="174.142" fill="black" fill-opacity="0" transform="translate(121.372 279.683)"/>
<circle cx="123.35" cy="408.311" r="1.97889" fill="#FFFFF9"/>
<circle cx="123.35" cy="451.847" r="1.97889" fill="#FFFFF9"/>
<circle cx="123.35" cy="364.776" r="1.97889" fill="#FFFFF9"/>
<circle cx="123.35" cy="321.24" r="1.97889" fill="#FFFFF9"/>
<circle cx="123.35" cy="281.662" r="1.97889" fill="#FFFFF9"/>
<path d="M118.074 251.979L124.67 267.81H111.478L118.074 251.979Z" fill="#395380"/>
<path d="M116.755 251.979H119.393V500H116.755V251.979Z" fill="#25344F"/>
<path d="M21.7681 324.538C21.7681 316.888 27.9699 310.686 35.6203 310.686V500H21.7681V324.538Z" fill="black" fill-opacity="0.14"/>
<path d="M111.478 288.918C111.478 286.004 113.84 283.641 116.755 283.641V500H111.478V288.918Z" fill="black" fill-opacity="0.14"/>
<path d="M214.38 324.538C214.38 316.888 208.178 310.686 200.528 310.686V500H214.38V324.538Z" fill="black" fill-opacity="0.14"/>
</svg>
